<svg width="40" height="100" viewBox="0 0 40 100" fill="none" xmlns="http://www.w3.org/2000/svg">
<rect y="0.718839" width="15.1715" height="31.9144" transform="matrix(0.695195 0.718839 -0.695195 0.718839 23.3951 0.202232)" fill="#FFE4BB" stroke="#AA5826"/>
<path d="M24.2275 8.19829C25.7873 6.35632 27.624 5.40811 27.6424 5.39883C27.7763 5.33045 27.7133 4.88495 27.5781 4.95375C27.4976 4.99463 25.585 5.97823 23.9122 7.95501C21.8565 10.3834 20.601 13.3725 21.128 13.9173C21.5319 14.335 22.5066 13.3272 23.8557 11.9322C24.4174 11.3513 24.9984 10.7506 25.585 10.2018C27.286 8.61009 29.3906 7.17741 29.4118 7.16297C29.4359 7.14658 29.4578 7.1279 29.4776 7.10742C29.565 7.01708 29.3971 6.67752 29.2669 6.76579C29.1789 6.82556 27.0892 8.24794 25.339 9.88578C24.7366 10.4495 24.1216 11.0851 23.579 11.6461C22.8919 12.3566 21.7415 13.5462 21.5362 13.4952C21.259 13.2086 22.1588 10.642 24.2275 8.19829V8.19829Z" fill="#AA5826"/>
<path d="M21.1236 8.8325C19.8717 10.2165 19.1236 11.5241 18.3311 12.9086C17.4324 14.4789 16.5028 16.1113 14.7469 17.905C13.23 19.4617 11.681 20.2404 10.1829 20.9932C9.15482 21.5099 8.18381 21.9981 7.28726 22.706C5.26086 24.3061 3.64308 27.0692 3.57486 27.1861C3.49554 27.3227 3.89611 27.4452 3.97556 27.3087C3.99133 27.2815 5.58008 24.5682 7.47926 23.0688C8.31282 22.4105 9.25069 21.9391 10.2438 21.44C11.7265 20.6948 13.4072 19.85 15.0214 18.1935C15.0404 18.1739 15.0591 18.1548 15.0775 18.1358C16.8734 16.2788 17.8194 14.6258 18.7346 13.0266C19.5038 11.6826 20.2305 10.4128 21.4204 9.09718C24.4063 5.7955 26.9048 4.70387 26.9297 4.6933C27.0653 4.6355 27.0445 4.17036 26.9086 4.22822C26.801 4.27398 24.2432 5.3837 21.1236 8.8325V8.8325Z" fill="#AA5826"/>
<path d="M13.2896 29.7793C13.3049 29.5921 13.2609 29.3469 12.9634 29.242C11.6024 28.7626 8.95703 31.9857 8.65976 32.3546C8.55834 32.4807 8.88401 32.7098 8.98864 32.5816C9.7113 31.6841 11.7818 29.4222 12.6638 29.7326C12.7926 29.7779 12.8039 29.8572 12.7979 29.9287C12.7428 30.5956 10.9389 32.441 9.81466 33.4479C9.69315 33.5578 9.92665 33.8845 10.0467 33.777C10.1841 33.6538 10.7777 33.1169 11.4207 32.4521C12.2839 31.5602 13.2351 30.4381 13.2896 29.7793V29.7793Z" fill="#AA5826"/>
<path d="M6.22887 19.5131C7.90108 17.784 9.26891 15.6207 8.66272 14.9939C8.58636 14.9149 8.17811 15.3371 8.25447 15.416C8.58094 15.7536 7.66585 17.455 5.9522 19.227C4.88277 20.3328 3.66231 20.9396 3.28743 20.552C3.21106 20.473 2.80281 20.8952 2.87917 20.9741C3.42227 21.5357 4.89346 20.8939 6.22887 19.5131Z" fill="#AA5826"/>
<path d="M8.76157 20.5719C9.0926 20.2299 9.41561 19.8653 9.72465 19.4773C11.505 17.2435 12.1422 15.5033 12.7043 13.9683C13.1857 12.6537 13.6013 11.5185 14.6236 10.2698C16.1543 8.39919 17.798 7.40866 19.7024 6.25953C20.2476 5.93039 20.8115 5.59007 21.3933 5.21601C23.1345 4.09669 24.7821 2.39785 24.854 2.32358C24.9666 2.20697 24.6895 1.92157 24.5768 2.03804C24.5766 2.03825 24.5766 2.03825 24.5764 2.03846C24.5511 2.06462 22.9192 3.74467 21.2646 4.80842C20.6918 5.17695 20.1328 5.51427 19.5921 5.84046C17.7048 6.97939 15.922 8.05581 14.2992 10.0376C13.1889 11.3936 12.7318 12.6422 12.2478 13.9642C11.6792 15.5174 11.091 17.1237 9.3932 19.2539C6.2841 23.1556 1.55641 24.6238 1.50924 24.638C1.37314 24.6796 1.3324 25.1667 1.46823 25.1256C1.65089 25.0704 5.59103 23.8477 8.76157 20.5719V20.5719Z" fill="#AA5826"/>
<path d="M16.9582 24.016C15.4229 22.9945 8.46465 30.4429 7.67612 31.2954C7.56607 31.4146 7.85656 31.6876 7.96613 31.5674C10.8054 28.4957 15.6603 23.8538 16.5947 24.4751C16.8175 24.6235 16.3723 25.3811 15.8566 26.2587C15.2616 27.2716 14.521 28.5321 14.2001 29.8197C13.6152 32.1669 11.1328 34.353 11.1086 34.3743C10.9904 34.478 11.6313 34.4484 12.0028 34.0642C12.8457 33.1927 14.2315 31.5466 14.6771 29.7578C14.9741 28.5654 15.6845 27.3564 16.2554 26.3848C16.9247 25.2456 17.4536 24.3454 16.9582 24.016V24.016Z" fill="#AA5826"/>
<path d="M7.20595 20.1712C8.45073 18.8841 8.92929 17.7951 9.53542 16.4162C9.67633 16.0954 9.82451 15.7586 9.99131 15.3996C10.8334 13.588 11.9042 11.9217 11.915 11.9051C12.0014 11.7711 11.6214 11.6154 11.5344 11.75C11.4894 11.8196 10.4236 13.4775 9.55783 15.3397C9.3888 15.7036 9.2386 16.0451 9.09568 16.3706C8.52182 17.676 8.06866 18.7073 6.92942 19.8853C4.15043 22.7588 1.75763 22.1593 1.65712 22.1322C1.54465 22.1021 1.26685 22.5996 1.37912 22.63C1.40641 22.6375 4.14261 23.3387 7.20595 20.1712V20.1712Z" fill="#AA5826"/>
<path d="M6.08199 29.3847C6.26923 28.8164 6.89553 27.2304 7.5412 26.7207C7.93559 26.4096 8.27871 26.3203 8.67611 26.2166C9.19914 26.0803 9.79151 25.9258 10.5325 25.2183C11.2946 24.4909 11.4868 24.0939 11.7274 23.5943C11.887 23.2624 12.0682 22.8863 12.4815 22.2895C13.4908 20.832 15.1368 19.1412 20.2927 16.6658C22.6306 15.5435 24.6865 13.6514 26.5001 11.982C27.0433 11.482 27.5563 11.0098 28.0356 10.5983C29.5071 9.33454 30.8703 8.80352 30.884 8.79824C30.9351 8.77853 30.9827 8.74538 31.0223 8.70444C31.0876 8.63689 31.0208 8.2723 30.8846 8.32441C30.8246 8.34724 29.3969 8.90063 27.8168 10.2576C27.3262 10.679 26.8078 11.1561 26.2591 11.6611C24.4873 13.2918 22.4789 15.1402 20.2428 16.2136C14.9211 18.7683 13.1922 20.5582 12.1155 22.1116C11.6658 22.7611 11.4618 23.1846 11.2979 23.5251C11.0779 23.9827 10.9332 24.2835 10.2799 24.9082C9.68491 25.4762 9.22494 25.5962 8.73819 25.7228C8.30943 25.8345 7.86575 25.9503 7.34886 26.358C6.38999 27.1146 5.69386 29.1696 5.61784 29.4012C5.57203 29.5421 6.0355 29.5258 6.08199 29.3847V29.3847Z" fill="#AA5826"/>
<path d="M16.6373 11.7535C16.158 12.2309 15.648 12.848 15.2723 13.4021C14.901 13.9499 14.6144 14.4983 14.4652 14.9468C14.2274 15.6617 14.422 15.8748 14.5594 15.9379C14.6967 16.0009 15.0185 16.0264 15.6323 15.485C15.73 15.3989 15.8294 15.3033 15.9298 15.1994C16.2252 14.894 16.5274 14.518 16.8045 14.1093C17.1873 13.5443 17.5641 12.8693 17.8118 12.3039C18.1484 11.5362 18.1905 11.107 17.9411 10.9918C17.6925 10.877 17.2659 11.1261 16.6373 11.7535V11.7535ZM16.4342 13.9383C16.1023 14.428 15.7366 14.8591 15.4048 15.1518C15.1068 15.4147 14.9305 15.4786 14.8846 15.4573C14.8387 15.4365 14.8126 15.279 14.9282 14.932C15.0567 14.5453 15.3105 14.0626 15.6424 13.573C16.0009 13.0441 16.4191 12.5507 16.7823 12.1752C17.1627 11.7818 17.4827 11.5182 17.609 11.48C17.656 11.7021 17.1633 12.8626 16.4342 13.9383V13.9383Z" fill="#AA5826"/>
<path d="M25.6407 3.11187C25.7481 2.99028 25.4452 2.73413 25.3375 2.85444C23.3422 5.11151 21.38 6.44872 19.6486 7.62906C18.2143 8.60699 16.8603 9.53042 15.6966 10.8203C13.5425 13.2091 12.4622 15.3379 12.3939 17.329C12.3894 17.4615 12.4959 17.5303 12.6323 17.4822C12.6863 17.4633 12.7369 17.4287 12.7785 17.3856C12.8418 17.3202 12.8841 17.2356 12.8869 17.1557C12.9506 15.2933 13.9382 13.3637 15.9939 11.0839C17.0869 9.87112 18.4026 8.97439 19.7951 8.0249C21.5666 6.81766 23.5729 5.45054 25.6407 3.11187V3.11187Z" fill="#AA5826"/>
<path d="M32.3638 10.2406C32.3181 10.3199 27.7499 18.1703 21.6734 19.131C14.9949 20.1874 7.20803 30.1032 6.88024 30.5246C6.78082 30.6523 7.11847 30.8693 7.21754 30.7408C7.29666 30.6398 15.137 20.6513 21.5608 19.6356C24.5129 19.1687 27.1145 17.1781 29.0662 15.16C31.3477 12.8009 32.7412 10.4037 32.7668 10.3592C32.8455 10.2223 32.4427 10.103 32.3638 10.2406V10.2406Z" fill="#AA5826"/>
<path d="M19.618 23.9298C16.856 26.7858 15.8719 30.1969 15.8313 30.3407C15.7917 30.4812 16.3397 30.1715 16.4116 29.963C16.7278 29.0464 17.765 26.4179 19.8947 24.2158C22.1597 21.8738 26.4518 19.1785 27.6869 18.4238C27.8973 18.2952 28.0552 17.7168 27.9224 17.7952C27.6961 17.9294 22.3478 21.1071 19.618 23.9298V23.9298Z" fill="#AA5826"/>
<path d="M22.8718 16.5182C22.8644 16.6946 22.9457 16.8213 23.1006 16.8755C23.6917 17.0819 25.4223 16.2169 26.4446 15.5132C26.9264 15.1815 27.5709 14.6127 28.1747 13.9883C29.1929 12.9355 30.0954 11.7243 29.9061 11.2246C29.7924 10.9247 29.2806 11.187 29.1122 11.2733C27.8883 11.9003 22.9065 15.6777 22.8718 16.5182V16.5182ZM26.2951 15.1188C25.2083 15.8673 23.7472 16.5056 23.3995 16.3842C23.3809 16.3776 23.3719 16.3709 23.3678 16.3645C23.7705 15.5909 28.6674 11.7581 29.4427 11.599C29.4267 12.0869 27.6047 14.2175 26.2951 15.1188V15.1188Z" fill="#AA5826"/>
<rect x="23.4825" y="37.9999" width="15.1185" height="61.5" fill="#FFE4BB" stroke="#AA5826"/>
<path d="M29.581 46.5089C29.4231 41.9458 30.0783 38.1851 30.0851 38.1477C30.1333 37.8745 29.7815 37.3722 29.7326 37.6476C29.7034 37.8115 29.0183 41.7228 29.1887 46.6182C29.3972 52.6331 30.5625 58.2957 31.3134 58.2957C31.8891 58.2957 31.8891 55.6333 31.8891 51.9484C31.8891 50.414 31.8891 48.8272 31.9289 47.3012C32.044 42.8758 32.5564 38.1093 32.5615 38.0613C32.5674 38.0067 32.5702 37.952 32.5702 37.8979C32.5702 37.6593 32.2165 37.4402 32.1846 37.7346C32.1631 37.9336 31.6543 42.6662 31.5358 47.2198C31.495 48.7871 31.4948 50.4664 31.4948 51.9484C31.4948 53.8252 31.4948 56.9676 31.3134 57.1805C30.9183 57.1805 29.7909 52.5617 29.581 46.5089V46.5089Z" fill="#AA5826"/>
<path d="M27.8061 51.5887C27.8678 55.1264 28.2358 57.8752 28.6252 60.7862C29.0669 64.0875 29.5294 67.5131 29.5142 72.2803C29.5062 76.4079 28.939 79.5519 28.3904 82.5923C28.0138 84.6787 27.6584 86.6496 27.5074 88.8091C27.1661 93.6899 27.9174 99.5487 27.9494 99.7963C27.987 100.085 28.3569 99.6998 28.3194 99.411C28.3119 99.3536 27.5742 93.6002 27.8942 89.026C28.0345 87.0182 28.3779 85.1147 28.7417 83.0991C29.2846 80.09 29.9 76.6788 29.9087 72.2864C29.9087 72.2345 29.9089 72.1838 29.9089 72.1336C29.9089 67.2282 29.4439 63.753 28.994 60.3909C28.6159 57.5652 28.2587 54.8956 28.1999 51.533C28.0523 43.0943 29.0803 38.2402 29.0908 38.1923C29.1476 37.9308 28.8122 37.3448 28.7553 37.6068C28.7101 37.8143 27.6523 42.7732 27.8061 51.5887V51.5887Z" fill="#AA5826"/>
<path d="M36.6589 89.9511C36.5408 89.6829 36.3405 89.4192 36.0563 89.6868C34.7562 90.9123 35.0923 98.7823 35.1347 99.6755C35.1492 99.9805 35.5392 99.8383 35.5254 99.5261C35.4219 97.3538 35.3385 91.5385 36.1809 90.744C36.3039 90.628 36.3666 90.7172 36.4115 90.8198C36.8318 91.776 36.8182 96.6769 36.711 99.5422C36.7001 99.8534 37.0916 99.966 37.1031 99.6599C37.1161 99.3097 37.1691 97.7898 37.1691 96.0335C37.1695 93.6767 37.0741 90.8956 36.6589 89.9511V89.9511Z" fill="#AA5826"/>
<path d="M24.5532 86.0342C24.5532 81.4667 24.0371 76.7414 23.1733 76.7414C23.0645 76.7414 23.0645 77.8565 23.1733 77.8565C23.6385 77.8565 24.159 81.3535 24.159 86.0342C24.159 88.9553 23.7075 91.4236 23.1733 91.4236C23.0645 91.4236 23.0645 92.5387 23.1733 92.5387C23.9473 92.5387 24.5532 89.6818 24.5532 86.0342Z" fill="#AA5826"/>
<path d="M27.0839 83.9773C27.0839 83.0735 27.0626 82.1507 27.0153 81.2163C26.7435 75.8342 25.9977 72.665 25.3399 69.8694C24.7764 67.4753 24.2899 65.4078 24.1572 62.3625C23.9579 57.8011 24.4458 54.2483 25.0101 50.1302C25.1715 48.951 25.3385 47.7316 25.495 46.4431C25.9636 42.587 25.966 38.0931 25.966 37.8968C25.9658 37.589 25.5717 37.5902 25.5717 37.8979C25.5717 37.8985 25.5717 37.8985 25.5717 37.8991C25.5717 37.9682 25.5676 42.4158 25.1224 46.0801C24.9685 47.3491 24.8029 48.5579 24.6426 49.7271C24.0835 53.8084 23.5558 57.6645 23.7661 62.4985C23.91 65.8059 24.4453 68.0797 25.0118 70.4872C25.6776 73.3157 26.366 76.2412 26.6252 81.3735C27.1005 90.7734 24.7453 99.1674 24.7214 99.2505C24.6532 99.4914 24.96 100.191 25.0284 99.9508C25.1205 99.6285 27.0839 92.634 27.0839 83.9773V83.9773Z" fill="#AA5826"/>
<path d="M35.3014 77.3281C33.5035 78.0758 33.6782 97.4164 33.7038 99.6193C33.7075 99.9271 34.1026 99.8908 34.0979 99.5825C34.0042 91.6479 34.2648 78.8865 35.3588 78.431C35.6198 78.3228 35.8246 79.9314 36.0619 81.7947C36.336 83.9452 36.6768 86.6215 37.3354 88.7603C38.5362 92.6593 38.2738 98.9369 38.2713 98.9982C38.2584 99.2965 38.6947 98.3821 38.6947 97.3673C38.6947 95.0652 38.5478 90.9984 37.6327 88.0271C37.0226 86.0467 36.6957 83.4797 36.433 81.4167C36.1248 78.998 35.8814 77.0867 35.3014 77.3281V77.3281Z" fill="#AA5826"/>
<path d="M25.7032 85.5692C25.7032 82.1692 25.2938 80.0773 24.7755 77.4283C24.6549 76.8122 24.5283 76.1649 24.3998 75.4629C23.7514 71.9202 23.3662 68.257 23.3624 68.2202C23.3317 67.9253 22.9536 68.2386 22.9843 68.5353C23.0003 68.6886 23.3833 72.3339 24.0497 75.9759C24.18 76.6873 24.3083 77.3436 24.4307 77.9686C24.9214 80.4765 25.3092 82.4575 25.3092 85.5692C25.3092 93.1598 23.1911 95.6359 23.1008 95.7374C22.9999 95.8511 23.1448 96.8876 23.2457 96.7745C23.2704 96.7471 25.7032 93.9365 25.7032 85.5692V85.5692Z" fill="#AA5826"/>
<path d="M31.2511 99.2737C30.9929 98.2673 30.3463 95.3172 30.4551 93.7622C30.5217 92.8127 30.7047 92.2261 30.9164 91.5465C31.1951 90.6521 31.5108 89.639 31.5512 87.6926C31.593 85.691 31.4564 84.9043 31.2835 83.9157C31.1685 83.2595 31.0384 82.5151 30.9217 81.1625C30.6365 77.859 30.6442 73.3779 32.6122 63.0669C33.5046 58.3918 33.6657 53.085 33.8076 48.4032C33.85 47.0009 33.8902 45.6767 33.9482 44.4785C34.1258 40.7997 34.7312 38.2366 34.7373 38.211C34.7602 38.1151 34.7712 38.0064 34.7712 37.8982C34.7712 37.7198 34.4724 37.3295 34.4112 37.5843C34.3842 37.6964 33.7483 40.3771 33.5574 44.3274C33.4983 45.554 33.4577 46.8922 33.4147 48.3084C33.2759 52.882 33.1186 58.0662 32.265 62.5378C30.2335 73.1799 30.2351 77.9052 30.5383 81.4273C30.6654 82.8993 30.8119 83.7373 30.9298 84.4108C31.0883 85.3157 31.1926 85.9107 31.1575 87.6279C31.125 89.1908 30.8799 89.9775 30.6203 90.8094C30.3918 91.5425 30.1554 92.3014 30.0681 93.5459C29.9063 95.8547 30.8263 99.5195 30.9318 99.9293C30.9962 100.178 31.3152 99.5234 31.2511 99.2737V99.2737Z" fill="#AA5826"/>
<path d="M26.6226 61.5704C26.61 62.8556 26.6719 64.3671 26.786 65.6121C26.899 66.8427 27.0727 67.9583 27.2753 68.7545C27.5986 70.0235 27.8841 70.0391 28.0254 69.9349C28.1668 69.8306 28.4136 69.4247 28.4778 67.8714C28.4881 67.6244 28.493 67.3623 28.493 67.088C28.493 66.2812 28.4493 65.3718 28.3651 64.4535C28.2486 63.1845 28.0518 61.7784 27.8387 60.6934C27.5495 59.2197 27.2838 58.5953 27.0267 58.7837C26.7704 58.9716 26.6382 59.8832 26.6226 61.5704V61.5704ZM27.9834 64.7334C28.0844 65.8335 28.1208 66.9023 28.0861 67.742C28.055 68.4964 27.9734 68.8214 27.9261 68.856C27.8789 68.8911 27.7518 68.7188 27.5951 68.1027C27.4202 67.4164 27.2684 66.4323 27.1675 65.3322C27.0585 64.1441 27.0165 62.9214 27.0165 61.9295C27.0165 60.8902 27.0628 60.1051 27.1265 59.8821C27.313 60.1113 27.7616 62.317 27.9834 64.7334V64.7334Z" fill="#AA5826"/>
<path d="M27.083 37.8609C27.0757 37.5536 26.6834 37.6289 26.6895 37.935C26.8231 43.6411 26.3465 48.087 25.9262 52.0106C25.578 55.2611 25.2496 58.3299 25.3093 61.6229C25.4205 67.7198 26.1178 72.0068 27.4412 74.7299C27.5293 74.9111 27.6525 74.8565 27.7166 74.6067C27.742 74.508 27.7542 74.3932 27.7542 74.2794C27.7542 74.1066 27.726 73.9371 27.673 73.8278C26.435 71.2809 25.8091 67.3836 25.7028 61.5649C25.6458 58.4704 25.9654 55.4892 26.3033 52.3334C26.7336 48.3195 27.2212 43.7738 27.083 37.8609V37.8609Z" fill="#AA5826"/>
<path d="M36.7859 38.0948C36.8079 38.2621 38.9626 54.8695 35.2949 64.4372C31.2642 74.9533 32.5488 98.6846 32.6056 99.6888C32.6227 99.9932 33.0128 99.8187 32.9949 99.5137C32.9817 99.2723 31.6851 75.372 35.5624 65.2573C37.3442 60.609 37.8262 54.4268 37.8262 49.096C37.8262 42.8641 37.1671 37.7948 37.1547 37.7012C37.1165 37.4129 36.7472 37.8054 36.7859 38.0948V38.0948Z" fill="#AA5826"/>
<path d="M37.137 73.5822C37.137 81.1265 38.7864 86.9758 38.8566 87.2211C38.9252 87.4609 39.1022 86.3034 39.0098 85.9298C38.6035 84.2873 37.5312 79.3992 37.5312 73.5822C37.5312 67.3955 38.7322 57.9739 39.0922 55.2904C39.1535 54.8332 38.8674 53.8535 38.8268 54.1384C38.758 54.6246 37.137 66.1259 37.137 73.5822V73.5822Z" fill="#AA5826"/>
<path d="M34.3481 59.3494C34.4644 59.5925 34.6097 59.6488 34.7573 59.5088C35.3207 58.9741 35.9579 55.4682 36.2014 53.1426C36.3161 52.0465 36.3833 50.4151 36.3833 48.7658C36.3833 45.9847 36.1917 43.1523 35.7125 42.7509C35.4248 42.51 35.2409 43.5554 35.1804 43.8994C34.7404 46.399 33.7937 58.1919 34.3481 59.3494V59.3494ZM35.8231 52.8259C35.5644 55.2987 34.9631 58.1372 34.6318 58.4517C34.614 58.4684 34.603 58.4718 34.5957 58.469C34.3495 56.8972 35.1975 45.1472 35.6403 43.8782C35.9652 44.5445 36.1351 49.8469 35.8231 52.8259V52.8259Z" fill="#AA5826"/>
<rect x="23.3955" y="0.5" width="15.1185" height="61.5" fill="#FFE4BB" stroke="#AA5826"/>
<path d="M29.4943 9.00875C29.3364 4.4457 29.9917 0.684968 29.9984 0.647611C30.0467 0.374408 29.6948 -0.12795 29.6459 0.147484C29.6167 0.311406 28.9317 4.22267 29.102 9.11803C29.3106 15.133 30.4758 20.7955 31.2267 20.7955C31.8024 20.7955 31.8024 18.1332 31.8024 14.4483C31.8024 12.9139 31.8024 11.3271 31.8422 9.80104C31.9573 5.3757 32.4697 0.60914 32.4748 0.56119C32.4807 0.50655 32.4835 0.451909 32.4835 0.397826C32.4835 0.159191 32.1298 -0.0599286 32.0979 0.234462C32.0764 0.43351 31.5676 5.16606 31.4491 9.71964C31.4083 11.2869 31.4081 12.9663 31.4081 14.4483C31.4081 16.325 31.4081 19.4674 31.2267 19.6804C30.8317 19.6804 29.7043 15.0616 29.4943 9.00875V9.00875Z" fill="#AA5826"/>
<path d="M27.7193 14.0858C27.781 17.6235 28.149 20.3723 28.5384 23.2833C28.9801 26.5846 29.4426 30.0102 29.4275 34.7773C29.4194 38.9049 28.8522 42.049 28.3036 45.0894C27.927 47.1757 27.5716 49.1467 27.4206 51.3061C27.0794 56.187 27.8306 62.0458 27.8626 62.2934C27.9002 62.5822 28.2701 62.1969 28.2326 61.9081C28.2251 61.8507 27.4874 56.0972 27.8074 51.523C27.9477 49.5153 28.2912 47.6118 28.6549 45.5962C29.1978 42.587 29.8133 39.1759 29.8219 34.7835C29.8219 34.7316 29.8221 34.6809 29.8221 34.6307C29.8221 29.7253 29.3571 26.25 28.9072 22.888C28.5291 20.0623 28.1719 17.3927 28.1131 14.03C27.9655 5.59139 28.9936 0.737297 29.004 0.689347C29.0608 0.427852 28.7254 -0.158143 28.6685 0.103909C28.6233 0.311321 27.5655 5.27024 27.7193 14.0858V14.0858Z" fill="#AA5826"/>
<path d="M36.5719 52.4508C36.4538 52.1826 36.2535 51.9188 35.9692 52.1865C34.6691 53.412 35.0052 61.2819 35.0476 62.1751C35.0622 62.4801 35.4521 62.3379 35.4383 62.0257C35.3348 59.8535 35.2515 54.0381 36.0938 53.2436C36.2168 53.1276 36.2795 53.2168 36.3245 53.3194C36.7448 54.2756 36.7312 59.1766 36.6239 62.0419C36.6131 62.353 37.0046 62.4656 37.016 62.1595C37.029 61.8094 37.0821 60.2895 37.0821 58.5332C37.0825 56.1764 36.9871 53.3953 36.5719 52.4508V52.4508Z" fill="#AA5826"/>
<path d="M24.4663 48.534C24.4663 43.9665 23.9502 39.2412 23.0864 39.2412C22.9776 39.2412 22.9776 40.3563 23.0864 40.3563C23.5516 40.3563 24.0721 43.8533 24.0721 48.534C24.0721 51.455 23.6206 53.9233 23.0864 53.9233C22.9776 53.9233 22.9776 55.0385 23.0864 55.0385C23.8603 55.0385 24.4663 52.1815 24.4663 48.534Z" fill="#AA5826"/>
<path d="M26.997 46.4773C26.997 45.5735 26.9757 44.6507 26.9284 43.7163C26.6566 38.3342 25.9108 35.165 25.253 32.3694C24.6895 29.9753 24.203 27.9078 24.0703 24.8625C23.871 20.3011 24.3589 16.7483 24.9231 12.6302C25.0846 11.451 25.2516 10.2316 25.4081 8.94307C25.8767 5.087 25.8791 0.593082 25.8791 0.396821C25.8789 0.0890494 25.4848 0.0901639 25.4848 0.397936C25.4848 0.398493 25.4848 0.398493 25.4848 0.39905C25.4848 0.468188 25.4806 4.91583 25.0355 8.5801C24.8815 9.8491 24.716 11.0579 24.5557 12.2271C23.9966 16.3084 23.4689 20.1645 23.6792 24.9985C23.8231 28.3059 24.3583 30.5797 24.9249 32.9872C25.5906 35.8157 26.2791 38.7412 26.5383 43.8735C27.0136 53.2734 24.6584 61.6674 24.6345 61.7505C24.5663 61.9914 24.8731 62.6905 24.9415 62.4508C25.0335 62.1285 26.997 55.134 26.997 46.4773V46.4773Z" fill="#AA5826"/>
<path d="M35.2144 39.8283C33.4165 40.5759 33.5911 59.9165 33.6168 62.1194C33.6205 62.4272 34.0156 62.391 34.0108 62.0826C33.9172 54.148 34.1778 41.3866 35.2717 40.9311C35.5327 40.8229 35.7376 42.4315 35.9749 44.2949C36.2489 46.4454 36.5898 49.1216 37.2484 51.2604C38.4492 55.1594 38.1868 61.437 38.1842 61.4983C38.1714 61.7966 38.6077 60.8822 38.6077 59.8675C38.6077 57.5653 38.4608 53.4985 37.5457 50.5272C36.9356 48.5468 36.6087 45.9798 36.3459 43.9168C36.0378 41.4981 35.7943 39.5868 35.2144 39.8283V39.8283Z" fill="#AA5826"/>
<path d="M25.6162 48.069C25.6162 44.669 25.2067 42.577 24.6885 39.9281C24.5678 39.312 24.4413 38.6646 24.3127 37.9627C23.6643 34.42 23.2791 30.7568 23.2754 30.72C23.2446 30.425 22.8665 30.7384 22.8973 31.035C22.9133 31.1883 23.2963 34.8337 23.9626 38.4756C24.0929 39.1871 24.2213 39.8433 24.3437 40.4683C24.8344 42.9762 25.2221 44.9572 25.2221 48.069C25.2221 55.6596 23.1041 58.1357 23.0138 58.2372C22.9129 58.3509 23.0578 59.3874 23.1587 59.2742C23.1833 59.2469 25.6162 56.4362 25.6162 48.069V48.069Z" fill="#AA5826"/>
<path d="M31.1641 61.7739C30.9058 60.7675 30.2592 57.8175 30.3681 56.2624C30.4347 55.3129 30.6176 54.7264 30.8294 54.0467C31.1081 53.1524 31.4237 52.1393 31.4641 50.1929C31.5059 48.1912 31.3693 47.4045 31.1964 46.416C31.0815 45.7597 30.9514 45.0154 30.8347 43.6627C30.5494 40.3592 30.5571 35.8781 32.5251 25.5672C33.4176 20.8921 33.5786 15.5852 33.7206 10.9034C33.763 9.50115 33.8032 8.17694 33.8611 6.97875C34.0388 3.29998 34.6442 0.736886 34.6503 0.711238C34.6731 0.615338 34.6842 0.506616 34.6842 0.39845C34.6842 0.220031 34.3853 -0.170262 34.3242 0.0845426C34.2972 0.196612 33.6612 2.87735 33.4704 6.82765C33.4113 8.05428 33.3707 9.39242 33.3277 10.8086C33.1889 15.3823 33.0316 20.5664 32.178 25.0381C30.1465 35.6802 30.1481 40.4055 30.4513 43.9276C30.5784 45.3995 30.7249 46.2375 30.8428 46.9111C31.0013 47.816 31.1056 48.4109 31.0705 50.1282C31.0379 51.691 30.7929 52.4777 30.5333 53.3096C30.3048 54.0428 30.0684 54.8016 29.9811 56.0461C29.8192 58.3549 30.7393 62.0198 30.8447 62.4296C30.9092 62.6783 31.2282 62.0237 31.1641 61.7739V61.7739Z" fill="#AA5826"/>
<path d="M26.5358 24.0705C26.5232 25.3557 26.5851 26.8672 26.6992 28.1123C26.8122 29.3428 26.9859 30.4585 27.1885 31.2547C27.5118 32.5237 27.7973 32.5393 27.9386 32.435C28.08 32.3307 28.3268 31.9248 28.3911 30.3715C28.4013 30.1245 28.4062 29.8624 28.4062 29.5881C28.4062 28.7813 28.3625 27.8719 28.2783 26.9537C28.1618 25.6846 27.965 24.2785 27.7519 23.1935C27.4627 21.7199 27.197 21.0954 26.9399 21.2838C26.6836 21.4717 26.5514 22.3833 26.5358 24.0705V24.0705ZM27.8966 27.2335C27.9976 28.3336 28.034 29.4024 27.9993 30.2421C27.9682 30.9965 27.8866 31.3216 27.8393 31.3561C27.7922 31.3913 27.665 31.219 27.5083 30.6029C27.3334 29.9165 27.1816 28.9324 27.0807 27.8324C26.9717 26.6442 26.9297 25.4215 26.9297 24.4296C26.9297 23.3903 26.976 22.6053 27.0397 22.3822C27.2262 22.6114 27.6749 24.8171 27.8966 27.2335V27.2335Z" fill="#AA5826"/>
<path d="M26.996 0.361104C26.9888 0.0538897 26.5964 0.129162 26.6026 0.435261C26.7362 6.14131 26.2595 10.5873 25.8392 14.5108C25.4911 17.7614 25.1627 20.8302 25.2224 24.1231C25.3336 30.22 26.0309 34.5071 27.3542 37.2302C27.4424 37.4114 27.5656 37.3568 27.6296 37.107C27.6551 37.0083 27.6673 36.8934 27.6673 36.7797C27.6673 36.6068 27.6391 36.4373 27.5861 36.3281C26.3481 33.7811 25.7221 29.8838 25.6159 24.0651C25.5589 20.9707 25.8785 17.9894 26.2164 14.8336C26.6467 10.8198 27.1342 6.27401 26.996 0.361104V0.361104Z" fill="#AA5826"/>
<path d="M36.6991 0.594539C36.7211 0.761806 38.8759 17.3692 35.2081 26.9369C31.1775 37.453 32.462 61.1844 32.5188 62.1885C32.5359 62.493 32.9261 62.3184 32.9081 62.0135C32.8949 61.772 31.5983 37.8718 35.4756 27.7571C37.2574 23.1087 37.7394 16.9265 37.7394 11.5957C37.7394 5.36389 37.0803 0.294576 37.0679 0.200907C37.0297 -0.087351 36.6604 0.305166 36.6991 0.594539V0.594539Z" fill="#AA5826"/>
<path d="M37.0503 36.0822C37.0503 43.6265 38.6997 49.4758 38.7699 49.7211C38.8385 49.9609 39.0156 48.8034 38.9231 48.4298C38.5168 46.7873 37.4446 41.8992 37.4446 36.0822C37.4446 29.8955 38.6455 20.4739 39.0055 17.7904C39.0668 17.3332 38.7808 16.3535 38.7402 16.6384C38.6714 17.1246 37.0503 28.6259 37.0503 36.0822V36.0822Z" fill="#AA5826"/>
<path d="M34.261 21.8494C34.3773 22.0925 34.5226 22.1488 34.6703 22.0088C35.2337 21.4741 35.8709 17.9682 36.1143 15.6426C36.2291 14.5465 36.2963 12.9151 36.2963 11.2658C36.2963 8.4847 36.1047 5.6523 35.6254 5.25086C35.3378 5.01 35.1539 6.05542 35.0933 6.39943C34.6533 8.89896 33.7067 20.6919 34.261 21.8494V21.8494ZM35.736 15.3259C35.4774 17.7987 34.8761 20.6372 34.5447 20.9517C34.527 20.9684 34.5159 20.9718 34.5086 20.969C34.2624 19.3972 35.1105 7.64724 35.5533 6.37824C35.8781 7.04452 36.0481 12.3469 35.736 15.3259V15.3259Z" fill="#AA5826"/>
</svg>
