<svg width="68" height="100" viewBox="0 0 68 100" fill="none" xmlns="http://www.w3.org/2000/svg">
<rect x="0.179125" y="0.694621" width="15.0314" height="31.7812" transform="matrix(0.853786 0.520643 -0.495537 0.868598 16.6269 0.411711)" fill="#FFE4BB" stroke="#AA5826"/>
<path d="M19.5523 7.95554C20.6034 5.79445 22.1407 4.42252 22.1561 4.40899C22.2684 4.30969 22.0983 3.8975 21.985 3.99751C21.9174 4.05699 20.3156 5.48199 19.1888 7.80095C17.8036 10.6499 17.3274 13.8367 17.9689 14.2279C18.4607 14.5278 19.1527 13.3149 20.1104 11.6361C20.5092 10.9371 20.9216 10.2142 21.3523 9.53968C22.6008 7.58357 24.2774 5.67895 24.2943 5.65978C24.3135 5.63796 24.3301 5.61451 24.3441 5.58987C24.4062 5.48115 24.161 5.19708 24.0572 5.31456C23.9871 5.39405 22.3224 7.28502 21.0376 9.29781C20.5954 9.99057 20.1588 10.7556 19.7736 11.4307C19.2858 12.2857 18.4691 13.7173 18.2588 13.7199C17.9212 13.5141 18.1585 10.8225 19.5523 7.95554V7.95554Z" fill="#AA5826"/>
<path d="M16.7168 9.34374C15.85 10.9876 15.45 12.4316 15.026 13.9606C14.5454 15.6948 14.0502 17.4964 12.7982 19.6603C11.7185 21.5365 10.4168 22.6734 9.15787 23.7727C8.29393 24.5271 7.47799 25.2398 6.78773 26.1449C5.22762 28.1908 4.34671 31.2513 4.30965 31.3808C4.26676 31.5319 4.68285 31.5491 4.72591 31.398C4.73444 31.3679 5.59958 28.3625 7.0618 26.4453C7.70355 25.6037 8.49167 24.9154 9.32627 24.1866C10.5722 23.0986 11.9846 21.8652 13.1336 19.8686C13.1471 19.845 13.1605 19.822 13.1735 19.7991C14.4485 17.5643 14.9544 15.7388 15.4439 13.9727C15.8553 12.4884 16.244 11.0861 17.0678 9.52354C19.1349 5.60215 21.2748 3.92632 21.2962 3.90992C21.4127 3.82037 21.2785 3.3787 21.1617 3.46841C21.0692 3.53938 18.8766 5.24746 16.7168 9.34374V9.34374Z" fill="#AA5826"/>
<path d="M14.3083 31.4339C14.2771 31.2502 14.1745 31.0258 13.8621 30.9996C12.4329 30.8806 10.6746 34.6411 10.4786 35.0701C10.4118 35.2166 10.7819 35.355 10.8513 35.2055C11.3274 34.162 12.7677 31.4692 13.6938 31.5461C13.829 31.5574 13.8594 31.6307 13.8712 31.7008C13.9817 32.3554 12.6963 34.5811 11.8599 35.8306C11.7698 35.9667 12.075 36.2219 12.1644 36.0884C12.2665 35.9357 12.7068 35.2709 13.1633 34.4708C13.7762 33.3973 14.4175 32.0805 14.3083 31.4339V31.4339Z" fill="#AA5826"/>
<path d="M4.98427 23.3432C6.17141 21.2623 6.95863 18.8407 6.22062 18.3907C6.12765 18.334 5.83782 18.842 5.93079 18.8987C6.32826 19.1411 5.86398 21.0054 4.64743 23.1378C3.88823 24.4685 2.86101 25.3579 2.4046 25.0795C2.31163 25.0228 2.0218 25.5309 2.11477 25.5876C2.77598 25.9908 4.03624 25.0049 4.98427 23.3432Z" fill="#AA5826"/>
<path d="M7.6808 23.7246C7.91571 23.3128 8.13735 22.8813 8.3398 22.431C9.50641 19.8374 9.69297 18.005 9.85755 16.3887C9.99847 15.0045 10.1202 13.8091 10.7983 12.3526C11.8136 10.1707 13.1538 8.80631 14.7062 7.22411C15.1506 6.77099 15.6102 6.30246 16.0788 5.79698C17.4814 4.28436 18.6514 2.23826 18.7024 2.14885C18.7822 2.00854 18.4453 1.80374 18.3653 1.94395C18.3651 1.94421 18.3651 1.94421 18.365 1.94446C18.347 1.97596 17.1875 4.00005 15.8548 5.43751C15.3935 5.93543 14.9378 6.39986 14.497 6.84902C12.9586 8.41712 11.5055 9.89893 10.4288 12.2108C9.69214 13.7926 9.55844 15.1073 9.41674 16.4993C9.25034 18.1347 9.0781 19.8261 7.96564 22.2993C5.92859 26.8293 1.73481 29.4265 1.69284 29.4519C1.57196 29.5261 1.6523 30.0044 1.77305 29.9309C1.93547 29.832 5.43087 27.6684 7.6808 23.7246V23.7246Z" fill="#AA5826"/>
<path d="M16.4293 24.9762C14.699 24.3802 9.82147 33.2824 9.27081 34.2993C9.19402 34.4415 9.54095 34.6308 9.61704 34.4878C11.5993 30.8242 15.1388 25.1462 16.1917 25.5085C16.4428 25.5952 16.1997 26.4348 15.9182 27.4073C15.5934 28.5298 15.189 29.9266 15.1958 31.2442C15.2082 33.646 13.3525 36.3693 13.3343 36.3959C13.2459 36.5251 13.8562 36.3358 14.12 35.8735C14.7183 34.8247 15.6499 32.8954 15.6403 31.065C15.6338 29.8449 16.0217 28.5052 16.3334 27.4284C16.6988 26.166 16.9876 25.1684 16.4293 24.9762V24.9762Z" fill="#AA5826"/>
<path d="M6.0872 23.7304C6.97088 22.1814 7.16479 21.015 7.41051 19.5382C7.46756 19.1947 7.52768 18.8338 7.60032 18.4471C7.96718 16.4953 8.59017 14.6258 8.59653 14.607C8.64692 14.4566 8.24245 14.4024 8.19163 14.5536C8.16542 14.6317 7.54521 16.492 7.16789 18.4984C7.0943 18.8904 7.03338 19.2562 6.97552 19.6047C6.74289 21.0029 6.55929 22.1074 5.75053 23.5251C3.77767 26.9832 1.32461 27.0078 1.2211 27.007C1.10531 27.0062 0.959702 27.5539 1.07535 27.5549C1.1035 27.5553 3.91247 27.5423 6.0872 23.7304V23.7304Z" fill="#AA5826"/>
<path d="M7.26548 32.8639C7.30642 32.2709 7.52075 30.5901 8.01788 29.9383C8.32159 29.5404 8.63034 29.3685 8.98787 29.1692C9.45846 28.907 9.9914 28.6099 10.5318 27.7442C11.0878 26.854 11.1755 26.4245 11.2848 25.884C11.3571 25.5252 11.4394 25.1183 11.6913 24.4413C12.3062 22.7876 13.4774 20.7501 17.8387 17.078C19.8162 15.413 21.3331 13.0793 22.6712 11.0203C23.0719 10.4035 23.4504 9.82119 23.8113 9.30551C24.9192 7.72208 26.1026 6.86979 26.1145 6.86129C26.159 6.82951 26.1966 6.78573 26.2248 6.73645C26.2711 6.65517 26.1172 6.32166 25.9988 6.40591C25.9466 6.4429 24.7065 7.33286 23.5168 9.03312C23.1475 9.56113 22.765 10.1496 22.3602 10.7724C21.0529 12.7838 19.5711 15.0636 17.6796 16.6561C13.1781 20.446 11.9513 22.5996 11.2949 24.3622C11.0209 25.099 10.9283 25.5571 10.8539 25.9253C10.7541 26.4202 10.6886 26.7455 10.2123 27.5096C9.77832 28.2047 9.3645 28.4354 8.92648 28.6791C8.54072 28.8941 8.14156 29.1167 7.7435 29.6381C7.00514 30.6057 6.83863 32.7546 6.82222 32.9963C6.81266 33.1431 7.2553 33.0111 7.26548 32.8639V32.8639Z" fill="#AA5826"/>
<path d="M13.1105 13.2761C12.7657 13.855 12.4258 14.5759 12.1997 15.2026C11.9764 15.822 11.8348 16.4208 11.801 16.8891C11.7473 17.6357 11.9872 17.7915 12.135 17.8176C12.2829 17.8438 12.5992 17.7874 13.0579 17.1132C13.1308 17.006 13.2031 16.8892 13.2744 16.7643C13.4841 16.3967 13.6831 15.9596 13.8498 15.4974C14.0801 14.8586 14.2775 14.1155 14.3775 13.5101C14.5134 12.6881 14.4487 12.2652 14.1801 12.2171C13.9123 12.1692 13.5624 12.5156 13.1105 13.2761V13.2761ZM13.451 15.4261C13.2514 15.9798 13.0047 16.4858 12.7568 16.8502C12.5341 17.1777 12.3799 17.2833 12.3305 17.2744C12.2812 17.2658 12.2173 17.1211 12.2435 16.7587C12.2725 16.355 12.3986 15.8275 12.5983 15.2738C12.814 14.6757 13.0959 14.0968 13.3537 13.6449C13.6238 13.1714 13.8675 12.8379 13.9798 12.7695C14.0796 12.971 13.8896 14.2096 13.451 15.4261V15.4261Z" fill="#AA5826"/>
<path d="M19.666 2.71433C19.7396 2.57057 19.3849 2.40049 19.3105 2.54312C17.9417 5.21231 16.3789 6.98946 15.0001 8.55798C13.8578 9.85749 12.7796 11.0845 11.9748 12.6158C10.4851 15.4513 9.96656 17.7677 10.3894 19.6977C10.4176 19.8262 10.537 19.8655 10.6567 19.7851C10.7041 19.7533 10.7444 19.7074 10.7739 19.6556C10.8189 19.5768 10.8388 19.4849 10.8219 19.4075C10.4262 17.6022 10.9044 15.5006 12.326 12.7944C13.0816 11.3549 14.1295 10.1632 15.2383 8.90152C16.6492 7.29709 18.2472 5.48012 19.666 2.71433V2.71433Z" fill="#AA5826"/>
<path d="M27.8947 7.87557C27.8701 7.96328 25.3945 16.6518 19.7744 19.0999C13.5976 21.7909 8.52708 33.2716 8.31459 33.7587C8.25012 33.9063 8.62878 34.03 8.69272 33.8817C8.74419 33.7649 13.8484 22.2009 19.7897 19.6129C22.52 18.4234 24.5386 15.858 25.9242 13.4294C27.5439 10.5903 28.2984 7.93754 28.3121 7.8884C28.3544 7.73715 27.9369 7.72361 27.8947 7.87557V7.87557Z" fill="#AA5826"/>
<path d="M18.9713 24.2261C17.0104 27.6631 16.8993 31.1873 16.8955 31.3356C16.8918 31.4806 17.3439 31.0455 17.362 30.8271C17.4418 29.8671 17.7962 27.0816 19.3081 24.4315C20.9161 21.613 24.3908 17.9464 25.3958 16.9113C25.5671 16.735 25.5773 16.1397 25.4685 16.2483C25.2834 16.434 20.9092 20.8292 18.9713 24.2261V24.2261Z" fill="#AA5826"/>
<path d="M20.2877 16.289C20.3239 16.4604 20.4334 16.5617 20.5959 16.5749C21.2162 16.6248 22.6718 15.3595 23.4842 14.4269C23.8671 13.9873 24.3486 13.2791 24.7772 12.5277C25.5001 11.2607 26.0725 9.87047 25.7674 9.43791C25.5843 9.17833 25.1555 9.55878 25.0144 9.68398C23.9888 10.5935 20.115 15.4729 20.2877 16.289V16.289ZM23.2433 14.0855C22.3797 15.0773 21.1282 16.0572 20.7634 16.0279C20.7439 16.0262 20.7336 16.022 20.7281 16.0169C20.9262 15.1726 24.7047 10.2614 25.4128 9.91393C25.5172 10.3867 24.2842 12.8909 23.2433 14.0855V14.0855Z" fill="#AA5826"/>
<rect x="0.0788023" y="0.71417" width="17.41" height="85.4757" transform="matrix(0.770128 0.637889 -0.612524 0.790452 54.2357 15.2152)" fill="#FFE4BB" stroke="#AA5826"/>
<path d="M51.9499 29.7761C55.6781 24.6706 59.4417 21.035 59.4793 20.999C59.7533 20.7354 59.8695 19.9296 59.5931 20.1952C59.4285 20.3532 55.5112 24.1318 51.5122 29.6098C46.598 36.3402 42.824 43.3822 43.4845 43.9293C43.9909 44.3487 46.2472 41.4369 49.3701 37.4068C50.6705 35.7287 52.0153 33.9932 53.3437 32.3533C57.1954 27.5973 61.6857 22.7575 61.7309 22.7088C61.7824 22.6533 61.8311 22.5956 61.8769 22.5364C62.0792 22.2754 61.9538 21.7781 61.6762 22.0768C61.4886 22.2788 57.0302 27.084 53.0669 31.9778C51.7027 33.6622 50.2793 35.4988 49.0233 37.1196C47.4328 39.1721 44.7696 42.6089 44.4296 42.7097C44.0821 42.4219 47.0048 36.549 51.9499 29.7761V29.7761Z" fill="#AA5826"/>
<path d="M46.0855 34.0356C43.1416 37.9496 41.1358 41.224 39.0112 44.6914C36.602 48.6238 34.1056 52.7073 30.0521 57.91C26.5469 62.4184 23.3834 65.4437 20.3242 68.3692C18.2247 70.3767 16.2417 72.2733 14.2788 74.525C9.84212 79.6145 5.53765 86.5695 5.35594 86.8635C5.14429 87.2068 5.79612 87.0549 6.00794 86.7118C6.05002 86.6435 10.2771 79.8136 14.4352 75.044C16.2602 72.9504 18.1755 71.1188 20.2036 69.1794C23.2314 66.284 26.6637 63.0017 30.3939 58.2041C30.4379 58.1474 30.481 58.092 30.5236 58.0372C34.6809 52.6722 37.2171 48.5326 39.6707 44.5278C41.7329 41.1619 43.6811 37.982 46.4792 34.2615C53.5011 24.9248 58.5192 20.365 58.569 20.3202C58.8406 20.0756 59.0422 19.1904 58.77 19.4355C58.5546 19.6294 53.4214 24.2822 46.0855 34.0356V34.0356Z" fill="#AA5826"/>
<path d="M21.3586 82.4447C21.482 82.0654 21.5294 81.631 21.0525 81.7166C18.8703 82.1097 12.4962 90.9618 11.7765 91.9695C11.5309 92.3137 11.9943 92.4423 12.2468 92.0908C13.9968 89.6396 18.8519 83.2188 20.2662 82.9636C20.4727 82.9263 20.4522 83.0696 20.4048 83.2145C19.9641 84.5665 15.7986 89.9167 13.276 92.9722C13.0028 93.3046 13.2517 93.713 13.5212 93.3866C13.8294 93.0131 15.1641 91.3895 16.6526 89.4686C18.6503 86.8913 20.9233 83.7802 21.3586 82.4447V82.4447Z" fill="#AA5826"/>
<path d="M14.0299 69.3408C17.9009 64.3455 21.4516 58.8015 20.6917 58.1721C20.596 58.0928 19.6509 59.3124 19.7467 59.3917C20.1559 59.7306 17.65 63.9344 13.6831 69.0536C11.2076 72.2483 8.71858 74.6189 8.24866 74.2297C8.15294 74.1504 7.20788 75.3699 7.3036 75.4492C7.98439 76.0131 10.9387 73.3301 14.0299 69.3408Z" fill="#AA5826"/>
<path d="M17.9998 68.9362C18.7658 67.9477 19.5291 66.923 20.2794 65.8665C24.6016 59.7822 26.6314 55.7728 28.422 52.236C29.9555 49.2071 31.2797 46.5915 33.7439 43.1642C37.4343 38.0303 40.8744 34.5002 44.8608 30.4074C46.0022 29.2353 47.1825 28.0233 48.4122 26.7282C52.0924 22.8523 55.9031 17.9391 56.0694 17.7244C56.3301 17.3877 55.9825 17.1018 55.7216 17.4384C55.7212 17.439 55.7212 17.439 55.7207 17.4396C55.6621 17.5152 51.8891 22.3765 48.3921 26.0597C47.1812 27.3354 46.0111 28.5368 44.8792 29.6988C40.9286 33.7551 37.1963 37.5879 33.2846 43.028C30.6081 46.7501 29.1519 49.6268 27.6099 52.6727C25.7984 56.2512 23.9246 59.9523 19.803 65.7543C12.2547 76.381 3.06915 83.8454 2.97776 83.9189C2.71363 84.1326 2.3909 85.1208 2.65426 84.9084C3.00836 84.623 10.6633 78.4038 17.9998 68.9362V68.9362Z" fill="#AA5826"/>
<path d="M30.862 67.6504C28.6469 67.1583 12.4095 88.4379 10.5651 90.8658C10.3076 91.2052 10.6858 91.4534 10.9429 91.1127C17.5851 82.3666 28.6295 68.5996 29.9778 68.8984C30.2991 68.9703 29.116 70.8787 27.7456 73.0896C26.1641 75.6412 24.1958 78.8165 22.9625 81.6355C20.7143 86.7746 15.1634 93.4491 15.1091 93.5143C14.845 93.8312 16.0037 93.149 16.8637 92.0392C18.8148 89.5213 22.1322 84.9665 23.8454 81.0502C24.9871 78.4397 26.8751 75.3941 28.3923 72.9465C30.1711 70.0767 31.5768 67.809 30.862 67.6504V67.6504Z" fill="#AA5826"/>
<path d="M15.4351 69.6701C18.3165 65.9517 19.7293 63.3654 21.5184 60.0907C21.9344 59.329 22.3717 58.5288 22.8535 57.6674C25.2856 53.3204 28.0513 49.0335 28.0792 48.9905C28.3021 48.6455 27.704 48.7127 27.4796 49.0595C27.3637 49.2389 24.6113 53.5047 22.1108 57.9734C21.6225 58.8464 21.1792 59.6576 20.7572 60.4304C19.0634 63.5307 17.7256 65.9798 15.0884 69.383C8.65544 77.6847 4.69388 78.8496 4.52846 78.8948C4.34328 78.9457 3.59231 80.1848 3.77701 80.1346C3.82184 80.1227 8.34385 78.8213 15.4351 69.6701V69.6701Z" fill="#AA5826"/>
<path d="M8.70077 88.7005C9.32652 87.4117 11.2579 83.7142 12.6715 82.0928C13.5348 81.1028 14.1928 80.5946 14.9551 80.0056C15.9582 79.2306 17.0944 78.3525 18.7796 76.2532C20.5127 74.0945 21.0593 73.1345 21.745 71.9274C22.2 71.126 22.7164 70.2171 23.7601 68.6527C26.3089 64.8319 30.1134 59.9366 40.5829 50.0936C45.3301 45.6308 49.9693 39.9442 54.0619 34.9272C55.2876 33.4244 56.4453 32.0055 57.5117 30.7373C60.7857 26.8433 63.4904 24.4812 63.5175 24.4576C63.6189 24.3694 63.7208 24.2585 63.8124 24.1402C63.9636 23.9451 64.0315 23.3005 63.7618 23.5346C63.6431 23.6375 60.8118 26.106 57.2961 30.2873C56.2045 31.5858 55.0347 33.0197 53.7967 34.5372C49.7985 39.4382 45.2665 44.9934 40.726 49.262C29.9199 59.421 25.9167 64.5901 23.1984 68.663C22.0628 70.3655 21.4814 71.3887 21.0143 72.2112C20.3868 73.3164 19.9743 74.043 18.4881 75.8956C17.135 77.5812 16.2527 78.263 15.3193 78.9837C14.497 79.6191 13.6459 80.2768 12.5144 81.5742C10.4153 83.9814 8.1187 88.6599 7.86416 89.1849C7.71012 89.5039 8.54544 89.0204 8.70077 88.7005V88.7005Z" fill="#AA5826"/>
<path d="M36.5827 44.0934C35.4825 45.4898 34.2559 47.188 33.3011 48.6328C32.3576 50.0609 31.5649 51.4077 31.0684 52.4261C30.2773 54.0495 30.5151 54.2746 30.7278 54.2635C30.9405 54.2525 31.5016 53.9884 32.8746 52.3363C33.093 52.0737 33.3194 51.7906 33.5519 51.4906C34.2356 50.6083 34.9678 49.5818 35.672 48.5162C36.645 47.0434 37.6637 45.3622 38.3958 44.0203C39.3903 42.1979 39.6858 41.3213 39.2999 41.3401C38.9152 41.3589 38.0263 42.2595 36.5827 44.0934V44.0934ZM35.0991 48.5442C34.2556 49.8209 33.3818 51.0164 32.6397 51.9095C31.973 52.7118 31.6257 53.0079 31.5548 53.0112C31.4836 53.0153 31.5177 52.7342 31.902 51.9462C32.3299 51.0682 33.0304 49.8813 33.8739 48.6046C34.785 47.2258 35.7843 45.8579 36.6249 44.7731C37.5057 43.6364 38.2118 42.8116 38.4568 42.6141C38.4266 43.0006 36.952 45.7398 35.0991 48.5442V48.5442Z" fill="#AA5826"/>
<path d="M57.0813 18.4982C57.3353 18.1569 56.9264 17.9534 56.6724 18.2927C51.9541 24.6306 47.7669 29.1458 44.072 33.1307C41.0109 36.4321 38.1213 39.5491 35.383 43.194C30.3138 49.943 27.2938 55.1397 26.1501 59.0821C26.074 59.3445 26.2287 59.3745 26.4968 59.148C26.6028 59.0586 26.7109 58.9419 26.8073 58.8175C26.9537 58.6285 27.0726 58.4226 27.1186 58.2644C28.1881 54.5769 30.9405 49.8584 35.7783 43.4173C38.3507 39.9914 41.1584 36.9637 44.1301 33.7585C47.9104 29.6822 52.1918 25.0657 57.0813 18.4982V18.4982Z" fill="#AA5826"/>
<path d="M65.4182 25.823C65.2959 26.022 53.1165 45.755 41.7817 53.5468C29.3239 62.1114 10.3417 89.0017 9.54057 90.1413C9.29766 90.4867 9.78873 90.5801 10.0314 90.2335C10.2244 89.9598 29.3393 62.876 41.3219 54.6387C46.8286 50.853 52.492 44.4428 57.0098 38.6126C62.2913 31.797 66.0078 25.7727 66.0763 25.6612C66.2869 25.3181 65.6295 25.4783 65.4182 25.823V25.823Z" fill="#AA5826"/>
<path d="M35.6515 64.8908C29.2577 73.1419 25.7513 80.7409 25.6051 81.0604C25.4623 81.3725 26.599 80.2356 26.8342 79.7597C27.8689 77.6672 31.0684 71.54 35.9983 65.1781C41.2415 58.4118 50.2826 48.9826 52.8735 46.31C53.3149 45.8546 53.8935 44.5748 53.6164 44.8568C53.1438 45.3384 41.9706 56.7361 35.6515 64.8908V64.8908Z" fill="#AA5826"/>
<path d="M45.2606 47.2927C45.1569 47.6433 45.237 47.8107 45.4855 47.7653C46.4342 47.591 49.9659 44.2208 52.151 41.8548C53.1809 40.7395 54.6227 39.0043 56.0204 37.2005C58.3774 34.1589 60.6092 30.9215 60.5279 30.1333C60.479 29.6603 59.4313 30.6697 59.0865 31.0018C56.5811 33.4149 45.754 45.6229 45.2606 47.2927V47.2927ZM52.0866 41.2328C49.7635 43.7488 46.8289 46.4151 46.2709 46.5176C46.2412 46.523 46.2286 46.5186 46.2246 46.5102C47.34 44.6118 58.0441 32.379 59.509 31.3137C59.2301 32.2791 54.8858 38.2021 52.0866 41.2328V41.2328Z" fill="#AA5826"/>
<rect x="-0.687658" y="-0.106067" width="15.0809" height="31.6834" transform="matrix(-0.797148 0.603784 -0.578169 -0.815917 66.4806 26.8895)" fill="#FFE4BB" stroke="#AA5826"/>
<path d="M59.7744 26.822C61.2804 28.6732 61.8931 30.6749 61.899 30.6949C61.943 30.8408 62.3764 30.8419 62.3323 30.6947C62.3061 30.6071 61.6716 28.5231 60.0553 26.5376C58.0698 24.0976 55.4254 22.3878 54.8246 22.8428C54.364 23.1917 55.169 24.3276 56.2831 25.8999C56.747 26.5546 57.2268 27.2316 57.6563 27.9068C58.9021 29.8648 59.9333 32.209 59.9437 32.2326C59.9555 32.2595 59.9698 32.2845 59.9862 32.3076C60.0583 32.4094 60.4076 32.2886 60.3441 32.1436C60.3011 32.0456 59.2774 29.718 57.9954 27.7034C57.5542 27.0099 57.0466 26.2932 56.5985 25.6609C56.0311 24.8602 55.081 23.5194 55.1618 23.3186C55.4779 23.0792 57.7764 24.3666 59.7744 26.822V26.822Z" fill="#AA5826"/>
<path d="M59.6596 23.5807C58.5406 22.1086 57.415 21.1589 56.2234 20.1528C54.8718 19.012 53.466 17.8306 52.0368 15.7874C50.7953 14.0214 50.2986 12.3362 49.8183 10.7065C49.4888 9.58808 49.1772 8.53172 48.6452 7.51884C47.4425 5.22951 45.07 3.18503 44.9696 3.09875C44.8522 2.99834 44.6727 3.38686 44.79 3.48739C44.8134 3.50735 47.1431 5.51512 48.2701 7.6607C48.7649 8.60242 49.0656 9.62271 49.384 10.7031C49.8594 12.3161 50.3983 14.1445 51.7194 16.0239C51.735 16.046 51.7502 16.0678 51.7654 16.0892C53.2485 18.1822 54.6713 19.3831 56.0478 20.545C57.2046 21.5215 58.2976 22.444 59.3613 23.8432C62.0308 27.3542 62.6758 30.0484 62.682 30.0752C62.7156 30.2211 63.1611 30.268 63.1274 30.1216C63.1008 30.0058 62.4479 27.2488 59.6596 23.5807V23.5807Z" fill="#AA5826"/>
<path d="M40.9771 12.5763C41.1526 12.6191 41.3926 12.6103 41.5392 12.3238C42.2089 11.013 39.5605 7.85882 39.2565 7.5034C39.1527 7.38211 38.8837 7.67909 38.9891 7.80395C39.7287 8.66806 41.5536 11.0988 41.1199 11.9483C41.0565 12.0723 40.9794 12.0722 40.9124 12.0557C40.287 11.9024 38.8161 9.80308 38.0356 8.51555C37.9502 8.37623 37.6029 8.56545 37.6863 8.70298C37.7818 8.86027 38.1989 9.5409 38.7299 10.2903C39.4421 11.2961 40.3593 12.4249 40.9771 12.5763V12.5763Z" fill="#AA5826"/>
<path d="M51.847 6.91091C53.2279 8.85974 55.0695 10.5631 55.7607 10.0396C55.8478 9.97364 55.5106 9.49785 55.4236 9.5638C55.0513 9.84576 53.5776 8.66909 52.1624 6.67197C51.2793 5.42564 50.8942 4.09889 51.3217 3.77513C51.4087 3.70918 51.0716 3.23339 50.9845 3.29934C50.3652 3.76838 50.7442 5.35461 51.847 6.91091Z" fill="#AA5826"/>
<path d="M50.4438 9.32223C50.7171 9.70785 51.0131 10.0887 51.3335 10.4587C53.1783 12.5903 54.7331 13.4906 56.1047 14.2847C57.2794 14.9648 58.2938 15.552 59.3207 16.771C60.8592 18.5964 61.543 20.408 62.3367 22.507C62.564 23.108 62.7991 23.7294 63.0634 24.3741C63.8544 26.3033 65.2112 28.2222 65.2705 28.3059C65.3637 28.4371 65.6787 28.1978 65.5856 28.0665C65.5855 28.0663 65.5855 28.0663 65.5853 28.066C65.5644 28.0365 64.223 26.1364 63.4713 24.3031C63.2108 23.6684 62.9778 23.0523 62.7526 22.4563C61.9659 20.3761 61.2223 18.411 59.5925 16.4759C58.4773 15.1519 57.3616 14.5062 56.1804 13.8223C54.7926 13.0189 53.3573 12.1879 51.5981 10.1552C48.3758 6.43257 47.7224 1.42375 47.7163 1.37385C47.6981 1.22974 47.2413 1.11732 47.259 1.26107C47.2828 1.45437 47.8265 5.62868 50.4438 9.32223V9.32223Z" fill="#AA5826"/>
<path d="M45.8795 17.1392C47.092 15.7306 41.1047 7.58441 40.4182 6.66003C40.3222 6.53098 40.017 6.78586 40.114 6.91455C42.5879 10.2433 46.2377 15.8461 45.5002 16.7034C45.3241 16.9078 44.6738 16.3456 43.9206 15.6944C43.0511 14.9429 41.9692 14.0076 40.7956 13.4942C38.656 12.5583 36.968 9.7208 36.9515 9.69307C36.8716 9.55804 36.799 10.2126 37.1058 10.6455C37.8018 11.6278 39.1489 13.274 40.7794 13.9871C41.8664 14.4624 42.904 15.3596 43.738 16.0805C44.7158 16.9258 45.4885 17.5937 45.8795 17.1392V17.1392Z" fill="#AA5826"/>
<path d="M51.0677 7.80639C52.0957 9.25707 53.0558 9.9015 54.2714 10.7176C54.5542 10.9074 54.8511 11.1069 55.1662 11.3285C56.7561 12.4471 58.1719 13.7767 58.186 13.7901C58.2998 13.8973 58.5076 13.5345 58.3933 13.4265C58.3341 13.3708 56.9255 12.0476 55.2913 10.8975C54.9719 10.6729 54.6708 10.4707 54.3839 10.2782C53.233 9.50549 52.3238 8.89525 51.383 7.56756C49.088 4.32887 50.0341 1.98879 50.0756 1.89077C50.122 1.78107 49.6927 1.42664 49.6462 1.5361C49.6347 1.56269 48.5379 4.23631 51.0677 7.80639V7.80639Z" fill="#AA5826"/>
<path d="M42.485 5.3212C42.9959 5.59409 44.4052 6.46092 44.7883 7.19035C45.0221 7.63587 45.053 7.997 45.0891 8.41531C45.1365 8.96582 45.1902 9.58935 45.7464 10.4443C46.3181 11.3237 46.6653 11.5766 47.1025 11.8936C47.3929 12.1039 47.7221 12.3427 48.2244 12.8491C49.4514 14.0857 50.8001 16.0023 52.3429 21.5944C53.0424 24.13 54.518 26.4919 55.8199 28.5755C56.21 29.1995 56.5782 29.7888 56.8941 30.3352C57.8642 32.0125 58.1547 33.473 58.1576 33.4876C58.1683 33.5424 58.1923 33.5955 58.2251 33.6416C58.279 33.7177 58.6361 33.7032 58.608 33.5574C58.5957 33.4932 58.294 31.964 57.2524 30.1629C56.9288 29.6037 56.5568 29.0081 56.163 28.3778C54.8912 26.3423 53.4496 24.035 52.7807 21.6098C51.1885 15.8379 49.7586 13.8227 48.4511 12.5037C47.9043 11.9527 47.5338 11.6839 47.2358 11.468C46.8354 11.178 46.5721 10.9873 46.081 10.2333C45.6345 9.54681 45.5927 9.06264 45.5489 8.55036C45.51 8.09906 45.4697 7.63204 45.1633 7.04813C44.5948 5.96493 42.7506 4.95883 42.5423 4.84789C42.4155 4.78086 42.3582 5.25345 42.485 5.3212V5.3212Z" fill="#AA5826"/>
<path d="M57.5875 18.6029C57.2091 18.0469 56.7025 17.4395 56.2348 16.9774C55.7724 16.5209 55.2961 16.1501 54.8932 15.9332C54.2508 15.5877 54.0177 15.754 53.9362 15.8842C53.8546 16.0143 53.7798 16.3371 54.1981 17.0388C54.2645 17.1504 54.3398 17.2652 54.4228 17.3822C54.6667 17.7265 54.9766 18.088 55.3216 18.4288C55.7985 18.8996 56.3811 19.3803 56.8797 19.7141C57.5566 20.1676 57.958 20.273 58.1067 20.0368C58.255 19.8013 58.0852 19.3322 57.5875 18.6029V18.6029ZM55.5424 18.078C55.129 17.6698 54.7767 17.2359 54.5506 16.8566C54.3474 16.5159 54.3144 16.3277 54.3418 16.2843C54.3689 16.2407 54.5228 16.2372 54.8344 16.4051C55.1818 16.592 55.6008 16.9198 56.0142 17.328C56.4606 17.7689 56.8639 18.2652 57.1638 18.6884C57.478 19.1318 57.6783 19.4949 57.6948 19.6286C57.4763 19.6439 56.4504 18.9747 55.5424 18.078V18.078Z" fill="#AA5826"/>
<path d="M64.3877 28.9982C64.4865 29.1249 64.7776 28.855 64.6802 28.7281C62.848 26.3745 61.8852 24.1886 61.0352 22.2599C60.331 20.662 59.6659 19.1535 58.6226 17.7847C56.6902 15.2508 54.8362 13.8442 52.954 13.4843C52.8287 13.4604 52.7466 13.5584 52.7709 13.7038C52.7804 13.7613 52.8053 13.8177 52.8397 13.8662C52.892 13.94 52.9658 13.9952 53.0412 14.0097C54.8019 14.3461 56.481 15.6297 58.3253 18.048C59.3064 19.3337 59.9521 20.7994 60.6359 22.3507C61.5051 24.3241 62.4894 26.5591 64.3877 28.9982V28.9982Z" fill="#AA5826"/>
<path d="M56.554 34.7787C56.4857 34.7207 49.7405 28.9406 49.7824 22.6356C49.8279 15.706 41.6251 6.35895 41.2761 5.96491C41.1703 5.84542 40.9109 6.15631 41.0175 6.27557C41.1011 6.37057 49.3646 15.7824 49.3204 22.4478C49.3002 25.5109 50.7837 28.4408 52.3955 30.7153C54.2796 33.3742 56.3396 35.1377 56.3778 35.1702C56.4956 35.27 56.6724 34.8788 56.554 34.7787V34.7787Z" fill="#AA5826"/>
<path d="M45.5431 19.85C43.2621 16.6311 40.1739 15.135 40.0436 15.0728C39.9162 15.0121 40.1245 15.6133 40.3114 15.7166C41.1331 16.1712 43.4689 17.607 45.2277 20.089C47.0982 22.7286 48.9858 27.4764 49.5092 28.8395C49.5983 29.0718 50.1234 29.3164 50.0697 29.1702C49.9778 28.9211 47.7975 23.0314 45.5431 19.85V19.85Z" fill="#AA5826"/>
<path d="M52.0778 24.2326C51.9112 24.1993 51.778 24.2634 51.7021 24.4126C51.413 24.9822 51.9632 26.8642 52.4715 28.004C52.7111 28.5412 53.1506 29.278 53.6493 29.9817C54.4901 31.1683 55.4998 32.2607 56.0046 32.1415C56.3076 32.07 56.1386 31.5125 56.0831 31.329C55.6794 29.9959 52.8713 24.3905 52.0778 24.2326V24.2326ZM52.87 27.9098C52.3293 26.698 51.9522 25.1225 52.1222 24.7875C52.1314 24.7696 52.1392 24.7615 52.1459 24.7583C52.8181 25.2797 55.6921 30.807 55.7215 31.6168C55.2601 31.5294 53.521 29.37 52.87 27.9098V27.9098Z" fill="#AA5826"/>
<rect x="47.8739" y="0.913452" width="15.4291" height="30.9745" transform="rotate(90 47.8739 0.913452)" fill="#FFE4BB" stroke="#AA5826"/>
<path d="M43.7649 7.18003C46.0993 7.0181 48.0233 7.69007 48.0424 7.69694C48.1822 7.74647 48.4392 7.38562 48.2982 7.33549C48.2144 7.30557 46.2134 6.60308 43.709 6.77774C40.6318 6.99162 37.7349 8.18656 37.7349 8.95658C37.7349 9.54687 39.0969 9.54687 40.9821 9.54687C41.7671 9.54687 42.5789 9.54687 43.3596 9.58771C45.6235 9.70577 48.0621 10.2312 48.0866 10.2364C48.1146 10.2425 48.1425 10.2453 48.1702 10.2453C48.2923 10.2453 48.4044 9.88265 48.2538 9.8499C48.1519 9.82787 45.7308 9.3061 43.4012 9.18461C42.5994 9.14276 41.7402 9.14256 40.9821 9.14256C40.0219 9.14256 38.4143 9.14256 38.3053 8.95658C38.3053 8.55145 40.6683 7.39533 43.7649 7.18003V7.18003Z" fill="#AA5826"/>
<path d="M41.168 5.36022C39.3581 5.4235 37.9518 5.80092 36.4626 6.20018C34.7737 6.65321 33.0211 7.12747 30.5823 7.11191C28.4707 7.10362 26.8622 6.52201 25.3068 5.95941C24.2394 5.5733 23.2311 5.20881 22.1263 5.05396C19.6293 4.70403 16.632 5.47444 16.5053 5.50719C16.3576 5.5458 16.5547 5.92505 16.7024 5.88664C16.7318 5.87896 19.6752 5.12249 22.0153 5.45059C23.0425 5.59452 24.0163 5.94668 25.0475 6.31966C26.5869 6.87639 28.332 7.50752 30.5792 7.51642C30.6057 7.51642 30.6317 7.51662 30.6573 7.51662C33.1669 7.51662 34.9448 7.03974 36.6648 6.57842C38.1104 6.19068 39.4762 5.82437 41.1965 5.76413C45.5136 5.61272 47.9969 6.66696 48.0215 6.67768C48.1553 6.7359 48.455 6.39203 48.321 6.3336C48.2149 6.28731 45.6779 5.20254 41.168 5.36022V5.36022Z" fill="#AA5826"/>
<path d="M21.5406 14.4379C21.6778 14.3168 21.8127 14.1114 21.6758 13.8199C21.0489 12.4867 17.0227 12.8314 16.5657 12.8748C16.4097 12.8898 16.4824 13.2897 16.6422 13.2755C17.7535 13.1694 20.7285 13.0839 21.135 13.9477C21.1943 14.0738 21.1487 14.1381 21.0962 14.1842C20.607 14.6152 18.0997 14.6013 16.6339 14.4913C16.4747 14.4802 16.4171 14.8816 16.5737 14.8934C16.7528 14.9067 17.5304 14.9611 18.4289 14.9611C19.6346 14.9615 21.0574 14.8637 21.5406 14.4379V14.4379Z" fill="#AA5826"/>
<path d="M23.5442 2.0243C25.8809 2.0243 28.2983 1.49505 28.2983 0.609205C28.2983 0.497615 27.7278 0.497615 27.7278 0.609205C27.7278 1.08629 25.9388 1.61999 23.5442 1.61999C22.0498 1.61999 20.787 1.15705 20.787 0.609205C20.787 0.497615 20.2166 0.497615 20.2166 0.609205C20.2166 1.40287 21.6781 2.0243 23.5442 2.0243Z" fill="#AA5826"/>
<path d="M24.5964 4.61956C25.0588 4.61956 25.5309 4.59773 26.009 4.54921C28.7624 4.27044 30.3837 3.50568 31.8139 2.83109C33.0388 2.25332 34.0965 1.7544 35.6544 1.61835C37.988 1.41397 39.8056 1.91431 41.9124 2.49288C42.5157 2.65844 43.1395 2.82967 43.7987 2.99018C45.7714 3.47071 48.0705 3.47313 48.1709 3.47313C48.3283 3.47293 48.3278 3.06882 48.1703 3.06882C48.17 3.06882 48.17 3.06882 48.1697 3.06882C48.1344 3.06882 45.859 3.06458 43.9844 2.60811C43.3352 2.45022 42.7168 2.28041 42.1186 2.11606C40.0306 1.54275 38.0579 1.00157 35.5848 1.21727C33.8928 1.36485 32.7296 1.9137 31.4979 2.4947C30.0509 3.17738 28.5542 3.88331 25.9285 4.14914C21.1196 4.63654 16.8253 2.22138 16.7828 2.19692C16.6596 2.12698 16.3019 2.44153 16.4245 2.51168C16.5894 2.60609 20.1678 4.61956 24.5964 4.61956V4.61956Z" fill="#AA5826"/>
<path d="M27.9982 13.0458C27.6157 11.2022 17.7212 11.3813 16.5942 11.4076C16.4367 11.4114 16.4553 11.8165 16.613 11.8117C20.6723 11.7157 27.2009 11.9829 27.434 13.1047C27.4893 13.3723 26.6664 13.5824 25.7131 13.8258C24.6129 14.1068 23.2438 14.4563 22.1496 15.1317C20.1549 16.363 16.9433 16.094 16.9119 16.0913C16.7593 16.0782 17.2271 16.5256 17.7463 16.5256C18.924 16.5256 21.0046 16.3749 22.5247 15.4365C23.5378 14.8109 24.8511 14.4757 25.9065 14.2062C27.1439 13.8903 28.1217 13.6406 27.9982 13.0458V13.0458Z" fill="#AA5826"/>
<path d="M23.782 3.20341C25.5214 3.20341 26.5916 2.78353 27.9468 2.25206C28.262 2.12834 28.5932 1.99856 28.9523 1.86675C30.7647 1.20186 32.6388 0.806851 32.6576 0.80301C32.8085 0.771473 32.6482 0.383738 32.4964 0.415275C32.418 0.431649 30.5531 0.824438 28.6899 1.50773C28.3259 1.64135 27.9902 1.77295 27.6704 1.89849C26.3874 2.40166 25.3739 2.7993 23.782 2.7993C19.8987 2.7993 18.6319 0.627336 18.58 0.534749C18.5218 0.431245 17.9916 0.57983 18.0495 0.683334C18.0634 0.708603 19.5013 3.20341 23.782 3.20341V3.20341Z" fill="#AA5826"/>
<path d="M16.7711 8.89282C17.286 8.628 18.7952 7.96493 19.5908 8.07652C20.0765 8.14485 20.3766 8.33245 20.7243 8.54956C21.1818 8.83541 21.7001 9.15906 22.6959 9.2005C23.7199 9.24336 24.1224 9.10327 24.6281 8.92598C24.9639 8.80812 25.3447 8.6747 26.0367 8.55502C27.7267 8.2625 30.0192 8.27038 35.2942 10.2885C37.686 11.2037 40.4009 11.3688 42.7961 11.5144C43.5135 11.5578 44.1909 11.5991 44.8039 11.6585C46.6859 11.8407 47.9972 12.4615 48.0103 12.4677C48.0594 12.4912 48.115 12.5025 48.1703 12.5025C48.2616 12.5025 48.4613 12.1961 48.3309 12.1334C48.2736 12.1057 46.9022 11.4535 44.8812 11.2578C44.2537 11.1972 43.5691 11.1556 42.8446 11.1115C40.5047 10.9692 37.8526 10.8078 35.5649 9.93251C30.1205 7.84929 27.7031 7.85091 25.9012 8.16183C25.1481 8.29222 24.7194 8.44242 24.3748 8.56331C23.9119 8.72584 23.6075 8.83278 22.729 8.7968C21.9295 8.76344 21.527 8.51216 21.1014 8.24592C20.7263 8.01162 20.3381 7.76924 19.7014 7.67968C18.5202 7.51371 16.6453 8.45718 16.4357 8.56533C16.3085 8.63143 16.6433 8.95852 16.7711 8.89282V8.89282Z" fill="#AA5826"/>
<path d="M36.0597 4.14655C35.4022 4.13362 34.6289 4.19709 33.992 4.31414C33.3625 4.42998 32.7917 4.60808 32.3844 4.81589C31.7352 5.14743 31.7272 5.44015 31.7805 5.5851C31.8339 5.73004 32.0415 5.98314 32.8362 6.04904C32.9626 6.05956 33.0966 6.06461 33.237 6.06461C33.6497 6.06461 34.1149 6.01973 34.5847 5.93341C35.2339 5.81394 35.9533 5.61218 36.5084 5.39365C37.2623 5.09709 37.5818 4.82459 37.4854 4.56097C37.3892 4.29817 36.9229 4.16252 36.0597 4.14655V4.14655ZM34.4415 5.54204C33.8788 5.64554 33.3319 5.68294 32.9024 5.64736C32.5164 5.61542 32.3501 5.53173 32.3325 5.48321C32.3145 5.43489 32.4026 5.3045 32.7178 5.14379C33.069 4.96448 33.5724 4.80882 34.1352 4.70531C34.743 4.59352 35.3686 4.55046 35.876 4.55046C36.4077 4.55046 36.8093 4.59797 36.9234 4.66326C36.8062 4.8545 35.6778 5.31461 34.4415 5.54204V5.54204Z" fill="#AA5826"/>
<path d="M48.1893 4.61853C48.3465 4.61105 48.308 4.20876 48.1514 4.21503C45.2322 4.35209 42.9577 3.86328 40.9504 3.43228C39.2875 3.07527 37.7175 2.73848 36.0328 2.79973C32.9137 2.91375 30.7205 3.62877 29.3274 4.98585C29.2347 5.07621 29.2626 5.20256 29.3904 5.26826C29.4409 5.29434 29.4997 5.30687 29.5578 5.30687C29.6463 5.30687 29.733 5.27796 29.7889 5.22358C31.0919 3.95404 33.0857 3.3122 36.0625 3.20324C37.6456 3.14481 39.1708 3.47251 40.7853 3.819C42.8387 4.26031 45.1643 4.76024 48.1893 4.61853V4.61853Z" fill="#AA5826"/>
<path d="M48.0698 14.568C47.9843 14.5907 39.488 16.8002 34.5933 13.0391C29.2133 8.90585 17.0725 10.2231 16.5588 10.2813C16.4031 10.2989 16.4924 10.699 16.6484 10.6806C16.7719 10.667 28.9991 9.33745 34.1737 13.3135C36.5518 15.1405 39.7145 15.6348 42.4417 15.6348C45.6299 15.6348 48.2233 14.959 48.2712 14.9463C48.4187 14.9071 48.2179 14.5284 48.0698 14.568V14.568Z" fill="#AA5826"/>
<path d="M29.9147 14.9286C26.0551 14.9286 23.0626 16.62 22.9371 16.692C22.8144 16.7623 23.4066 16.9439 23.5977 16.8491C24.438 16.4324 26.9388 15.3329 29.9147 15.3329C33.0798 15.3329 37.8998 16.5644 39.2727 16.9336C39.5066 16.9964 40.0077 16.7031 39.862 16.6615C39.6132 16.5909 33.7293 14.9286 29.9147 14.9286V14.9286Z" fill="#AA5826"/>
<path d="M37.1959 12.0683C37.0715 12.1876 37.0427 12.3366 37.1143 12.488C37.3879 13.0658 39.1815 13.7191 40.3712 13.9688C40.932 14.0864 41.7666 14.1554 42.6104 14.1554C44.0332 14.1554 45.4822 13.9589 45.6876 13.4674C45.8108 13.1725 45.276 12.9839 45.1 12.9218C43.8212 12.4706 37.7881 11.4999 37.1959 12.0683V12.0683ZM40.5332 13.5809C39.2682 13.3156 37.816 12.6991 37.6551 12.3592C37.6466 12.341 37.6449 12.3297 37.6463 12.3222C38.4504 12.0697 44.4616 12.9394 45.1108 13.3935C44.7699 13.7266 42.0573 13.9009 40.5332 13.5809V13.5809Z" fill="#AA5826"/>
<rect x="67.4584" y="83.9708" width="15.5288" height="66.1466" transform="rotate(90 67.4584 83.9708)" fill="#FFE4BB" stroke="#AA5826"/>
<path d="M58.2798 90.2376C63.1821 90.0757 67.2224 90.7477 67.2625 90.7546C67.5561 90.8041 68.0958 90.4432 67.7998 90.3931C67.6237 90.3632 63.4217 89.6607 58.1624 89.8354C51.7002 90.0492 45.6167 91.2442 45.6167 92.0142C45.6167 92.6045 48.477 92.6045 52.4358 92.6045C54.0843 92.6045 55.7891 92.6045 57.4286 92.6453C62.1829 92.7634 67.3039 93.2888 67.3554 93.294C67.4141 93.3001 67.4728 93.3029 67.5309 93.3029C67.7873 93.3029 68.0227 92.9403 67.7064 92.9075C67.4926 92.8855 62.4082 92.3637 57.516 92.2422C55.8322 92.2004 54.028 92.2002 52.4358 92.2002C50.4196 92.2002 47.0435 92.2002 46.8147 92.0142C46.8147 91.6091 51.7769 90.4529 58.2798 90.2376V90.2376Z" fill="#AA5826"/>
<path d="M52.8254 88.4174C49.0247 88.4806 46.0716 88.8581 42.9442 89.2573C39.3974 89.7103 35.7171 90.1846 30.5956 90.169C26.1611 90.1607 22.7833 89.5791 19.5169 89.0165C17.2754 88.6304 15.1579 88.2659 12.8379 88.1111C7.59417 87.7612 1.29977 88.5316 1.03381 88.5643C0.723525 88.6029 1.13744 88.9822 1.44773 88.9438C1.50943 88.9361 7.69061 88.1796 12.6049 88.5077C14.7619 88.6517 16.807 89.0038 18.9724 89.3768C22.2052 89.9335 25.87 90.5647 30.589 90.5736C30.6447 90.5736 30.6992 90.5738 30.7531 90.5738C36.0232 90.5738 39.7568 90.0969 43.3689 89.6355C46.4047 89.2478 49.2727 88.8815 52.8853 88.8213C61.9514 88.6698 67.1663 89.7241 67.2179 89.7348C67.4988 89.793 68.1284 89.4492 67.8468 89.3907C67.624 89.3444 62.2964 88.2597 52.8254 88.4174V88.4174Z" fill="#AA5826"/>
<path d="M11.608 97.495C11.8962 97.374 12.1795 97.1686 11.892 96.8771C10.5753 95.5438 2.12031 95.8885 1.1607 95.932C0.833041 95.9469 0.985788 96.3468 1.32123 96.3326C3.65498 96.2265 9.90265 96.141 10.7562 97.0048C10.8808 97.131 10.785 97.1952 10.6748 97.2413C9.64748 97.6723 4.38218 97.6584 1.30386 97.5484C0.969615 97.5373 0.848615 97.9388 1.17747 97.9505C1.55365 97.9638 3.18655 98.0182 5.07343 98.0182C7.60545 98.0186 10.5933 97.9208 11.608 97.495V97.495Z" fill="#AA5826"/>
<path d="M15.8161 85.0815C20.7232 85.0815 25.7998 84.5523 25.7998 83.6665C25.7998 83.5549 24.6017 83.5549 24.6017 83.6665C24.6017 84.1435 20.8448 84.6772 15.8161 84.6772C12.6778 84.6772 10.026 84.2143 10.026 83.6665C10.026 83.5549 8.828 83.5549 8.828 83.6665C8.828 84.4601 11.8973 85.0815 15.8161 85.0815Z" fill="#AA5826"/>
<path d="M18.0257 87.6769C18.9967 87.6769 19.9881 87.6551 20.992 87.6066C26.7742 87.3278 30.179 86.5631 33.1825 85.8885C35.7546 85.3107 37.9757 84.8118 41.2475 84.6757C46.148 84.4713 49.9649 84.9717 54.3892 85.5503C55.6561 85.7158 56.9662 85.887 58.3505 86.0476C62.4932 86.5281 67.3212 86.5305 67.5321 86.5305C67.8628 86.5303 67.8616 86.1262 67.5309 86.1262C67.5303 86.1262 67.5303 86.1262 67.5297 86.1262C67.4554 86.1262 62.6771 86.122 58.7404 85.6655C57.3771 85.5076 56.0784 85.3378 54.8223 85.1734C50.4375 84.6001 46.2948 84.0589 41.1014 84.2746C37.548 84.4222 35.1053 84.9711 32.5188 85.5521C29.48 86.2348 26.337 86.9407 20.8231 87.2065C10.7244 87.6939 1.70626 85.2788 1.61701 85.2543C1.35824 85.1843 0.607077 85.4989 0.864652 85.5691C1.21088 85.6635 8.72546 87.6769 18.0257 87.6769V87.6769Z" fill="#AA5826"/>
<path d="M25.1691 96.1036C24.3658 94.2599 3.58734 94.439 1.22065 94.4653C0.889997 94.4692 0.928933 94.8743 1.26019 94.8694C9.7847 94.7734 23.4949 95.0406 23.9842 96.1624C24.1005 96.4301 22.3723 96.6401 20.3704 96.8835C18.06 97.1645 15.1848 97.514 12.887 98.1894C8.6981 99.4208 1.95384 99.1517 1.88795 99.1491C1.56748 99.1359 2.54986 99.5833 3.64005 99.5833C6.11337 99.5833 10.4825 99.4327 13.6747 98.4943C15.8024 97.8686 18.5602 97.5334 20.7765 97.264C23.375 96.948 25.4285 96.6983 25.1691 96.1036V96.1036Z" fill="#AA5826"/>
<path d="M16.3158 86.2608C19.9685 86.2608 22.216 85.8409 25.0619 85.3094C25.7238 85.1857 26.4193 85.0559 27.1734 84.9241C30.9795 84.2592 34.915 83.8642 34.9546 83.8604C35.2714 83.8288 34.9348 83.4411 34.6161 83.4726C34.4514 83.489 30.5351 83.8818 26.6223 84.5651C25.858 84.6987 25.153 84.8303 24.4815 84.9559C21.7871 85.459 19.6588 85.8567 16.3158 85.8567C8.16084 85.8567 5.50063 83.6847 5.39161 83.5921C5.26941 83.4886 4.15585 83.6372 4.27745 83.7407C4.3068 83.766 7.32641 86.2608 16.3158 86.2608V86.2608Z" fill="#AA5826"/>
<path d="M1.59245 91.9501C2.67366 91.6852 5.84302 91.0222 7.51366 91.1338C8.53378 91.2021 9.16394 91.3897 9.89413 91.6068C10.8549 91.8927 11.9433 92.2163 14.0345 92.2578C16.1849 92.3006 17.0301 92.1605 18.0922 91.9832C18.7972 91.8654 19.5969 91.7319 21.0501 91.6123C24.5992 91.3198 29.4135 91.3276 40.491 93.3458C45.5137 94.2609 51.2151 94.4261 56.2449 94.5716C57.7515 94.6151 59.1741 94.6563 60.4614 94.7158C64.4136 94.8979 67.1673 95.5187 67.1949 95.525C67.2979 95.5485 67.4147 95.5598 67.5309 95.5598C67.7226 95.5598 68.1419 95.2533 67.8681 95.1906C67.7477 95.1629 64.8677 94.5108 60.6237 94.3151C59.3059 94.2545 57.8683 94.2128 56.3468 94.1687C51.4331 94.0264 45.8635 93.8651 41.0594 92.9898C29.6261 90.9065 24.5495 90.9082 20.7656 91.2191C19.1842 91.3495 18.2839 91.4997 17.5603 91.6206C16.5881 91.7831 15.9489 91.89 14.104 91.8541C12.425 91.8207 11.5797 91.5694 10.686 91.3032C9.89832 91.0689 9.08307 90.8265 7.74608 90.7369C5.26558 90.571 1.32828 91.5144 0.888012 91.6226C0.620853 91.6887 1.32409 92.0158 1.59245 91.9501V91.9501Z" fill="#AA5826"/>
<path d="M42.0983 87.2037C40.7176 87.1907 39.0937 87.2542 37.7561 87.3713C36.4341 87.4871 35.2355 87.6652 34.3801 87.873C33.0167 88.2046 33 88.4973 33.112 88.6422C33.224 88.7872 33.6601 89.0403 35.3289 89.1062C35.5943 89.1167 35.8758 89.1217 36.1705 89.1217C37.0373 89.1217 38.0143 89.0769 39.0009 88.9905C40.3642 88.8711 41.8749 88.6693 43.0406 88.4508C44.6238 88.1542 45.2947 87.8817 45.0922 87.6181C44.8903 87.3553 43.9109 87.2197 42.0983 87.2037V87.2037ZM38.7002 88.5992C37.5183 88.7027 36.37 88.7401 35.4679 88.7045C34.6574 88.6725 34.3082 88.5889 34.2711 88.5403C34.2333 88.492 34.4184 88.3616 35.0803 88.2009C35.8177 88.0216 36.875 87.8659 38.0568 87.7624C39.3333 87.6507 40.6469 87.6076 41.7126 87.6076C42.8291 87.6076 43.6725 87.6551 43.9121 87.7204C43.666 87.9116 41.2963 88.3717 38.7002 88.5992V88.5992Z" fill="#AA5826"/>
<path d="M67.5707 87.6755C67.9007 87.6681 67.8198 87.2658 67.491 87.272C61.3607 87.4091 56.5842 86.9203 52.369 86.4893C48.8767 86.1323 45.5798 85.7955 42.042 85.8567C35.4919 85.9708 30.8861 86.6858 27.9605 88.0429C27.7658 88.1332 27.8245 88.2596 28.0929 88.3253C28.1989 88.3513 28.3223 88.3639 28.4445 88.3639C28.6302 88.3639 28.8123 88.335 28.9297 88.2806C31.666 87.0111 35.8531 86.3692 42.1043 86.2602C45.4288 86.2018 48.6317 86.5295 52.0221 86.876C56.3344 87.3173 61.2182 87.8172 67.5707 87.6755V87.6755Z" fill="#AA5826"/>
<path d="M67.3197 97.6254C67.14 97.6481 49.2978 99.8576 39.0188 96.0965C27.7209 91.9632 2.22521 93.2805 1.14639 93.3387C0.819335 93.3563 1.00682 93.7563 1.33448 93.738C1.59385 93.7244 27.271 92.3948 38.1377 96.3708C43.1316 98.1979 49.7735 98.6922 55.5006 98.6922C62.1957 98.6922 67.6419 98.0164 67.7426 98.0036C68.0523 97.9644 67.6306 97.5858 67.3197 97.6254V97.6254Z" fill="#AA5826"/>
<path d="M29.1936 97.9862C21.0884 97.9862 14.8042 99.6776 14.5407 99.7496C14.2831 99.82 15.5266 100.002 15.928 99.9067C17.6927 99.49 22.9442 98.3905 29.1936 98.3905C35.8403 98.3905 45.9623 99.6221 48.8454 99.9912C49.3366 100.054 50.389 99.7607 50.0829 99.7191C49.5606 99.6485 37.2042 97.9862 29.1936 97.9862V97.9862Z" fill="#AA5826"/>
<path d="M44.4845 95.1257C44.2233 95.245 44.1628 95.394 44.3132 95.5454C44.8876 96.1231 48.6542 96.7765 51.1527 97.0262C52.3303 97.1438 54.083 97.2128 55.8549 97.2128C58.8428 97.2128 61.8857 97.0163 62.317 96.5248C62.5758 96.2299 61.4527 96.0413 61.0831 95.9792C58.3977 95.528 45.728 94.5572 44.4845 95.1257V95.1257ZM51.4929 96.6382C48.8363 96.373 45.7867 95.7564 45.4489 95.4166C45.4309 95.3984 45.4273 95.3871 45.4303 95.3796C47.1189 95.1271 59.7425 95.9968 61.1058 96.4508C60.39 96.784 54.6934 96.9582 51.4929 96.6382V96.6382Z" fill="#AA5826"/>
</svg>
