<svg width="68" height="100" viewBox="0 0 68 100" fill="none" xmlns="http://www.w3.org/2000/svg">
<rect x="0.179097" y="0.694505" width="14.9424" height="31.5932" transform="matrix(0.853877 0.520494 -0.495683 0.868515 16.5406 0.409353)" fill="#FFE4BB" stroke="#AA5826"/>
<path d="M19.4479 7.90916C20.4933 5.76066 22.0222 4.39674 22.0375 4.38329C22.1492 4.28456 21.98 3.87478 21.8673 3.97421C21.8001 4.03334 20.207 5.45003 19.0863 7.75547C17.7087 10.5878 17.2351 13.756 17.8731 14.1449C18.3622 14.4431 19.0504 13.2373 20.0029 11.5683C20.3996 10.8733 20.8098 10.1546 21.2381 9.48406C22.4798 7.53936 24.1473 5.64584 24.164 5.62678C24.1832 5.60509 24.1996 5.58177 24.2136 5.55728C24.2753 5.4492 24.0315 5.16678 23.9282 5.28357C23.8585 5.3626 22.2028 7.24255 20.9251 9.2436C20.4853 9.93233 20.051 10.6928 19.6679 11.3641C19.1828 12.2141 18.3705 13.6374 18.1614 13.6399C17.8257 13.4353 18.0617 10.7594 19.4479 7.90916V7.90916Z" fill="#AA5826"/>
<path d="M16.6277 9.28912C15.7657 10.9234 15.3679 12.359 14.9462 13.8791C14.4682 15.6032 13.9757 17.3942 12.7305 19.5455C11.6567 21.4108 10.362 22.5411 9.10996 23.634C8.25072 24.3839 7.43922 25.0925 6.75272 25.9924C5.2011 28.0263 4.32498 31.069 4.28812 31.1977C4.24546 31.348 4.65928 31.365 4.70212 31.2148C4.71059 31.1849 5.57103 28.197 7.02529 26.2909C7.66355 25.4543 8.44739 24.77 9.27744 24.0455C10.5166 22.9638 11.9213 21.7375 13.0641 19.7526C13.0775 19.7291 13.0908 19.7062 13.1037 19.6835C14.3718 17.4617 14.875 15.6469 15.3618 13.8911C15.7709 12.4154 16.1575 11.0213 16.9768 9.46787C19.0327 5.56934 21.161 3.90329 21.1822 3.88698C21.2981 3.79795 21.1646 3.35886 21.0485 3.44804C20.9565 3.5186 18.7758 5.21672 16.6277 9.28912V9.28912Z" fill="#AA5826"/>
<path d="M14.2326 31.2505C14.2016 31.0679 14.0995 30.8447 13.7888 30.8187C12.3674 30.7004 10.6186 34.439 10.4237 34.8655C10.3573 35.0112 10.7254 35.1487 10.7944 35.0002C11.2679 33.9627 12.7003 31.2856 13.6214 31.362C13.7559 31.3732 13.7861 31.4461 13.7978 31.5159C13.9077 32.1666 12.6293 34.3793 11.7975 35.6215C11.7079 35.7568 12.0115 36.0106 12.1003 35.8779C12.2019 35.7261 12.6398 35.0651 13.0938 34.2697C13.7034 33.2024 14.3412 31.8934 14.2326 31.2505V31.2505Z" fill="#AA5826"/>
<path d="M4.95912 23.2071C6.1398 21.1384 6.92274 18.7309 6.18874 18.2834C6.09628 18.2271 5.80803 18.7321 5.90049 18.7885C6.2958 19.0295 5.83405 20.8829 4.62412 23.0029C3.86904 24.3259 2.84742 25.21 2.39349 24.9333C2.30102 24.877 2.01277 25.382 2.10523 25.4384C2.76285 25.8392 4.01625 24.8592 4.95912 23.2071Z" fill="#AA5826"/>
<path d="M7.64092 23.5861C7.87454 23.1768 8.09498 22.7478 8.29633 22.3001C9.45659 19.7216 9.64214 17.8999 9.80583 16.293C9.94598 14.9169 10.067 13.7285 10.7415 12.2804C11.7512 10.1113 13.0842 8.75484 14.6281 7.18187C15.0701 6.73139 15.5272 6.26559 15.9932 5.76306C17.3882 4.25926 18.5518 2.22509 18.6026 2.1362C18.6819 1.9967 18.3468 1.7931 18.2673 1.93249C18.2671 1.93275 18.2671 1.93274 18.267 1.933C18.2491 1.96431 17.0959 3.97661 15.7705 5.40569C15.3116 5.9007 14.8585 6.36242 14.42 6.80897C12.89 8.36792 11.4448 9.84109 10.374 12.1395C9.64132 13.712 9.50834 15.0191 9.36741 16.4029C9.20192 18.0288 9.03061 19.7104 7.9242 22.1692C5.89824 26.6728 1.72727 29.2548 1.68553 29.2801C1.56531 29.3538 1.64521 29.8294 1.76531 29.7562C1.92684 29.658 5.40322 27.5069 7.64092 23.5861V23.5861Z" fill="#AA5826"/>
<path d="M16.3419 24.8305C14.621 24.238 9.77 33.0882 9.22234 34.0993C9.14596 34.2406 9.491 34.4288 9.56669 34.2867C11.5382 30.6444 15.0584 24.9995 16.1056 25.3598C16.3553 25.4459 16.1135 26.2806 15.8336 27.2475C15.5105 28.3634 15.1083 29.7521 15.1151 31.0619C15.1275 33.4498 13.2818 36.1571 13.2638 36.1836C13.1758 36.3121 13.7828 36.1239 14.0451 35.6643C14.6402 34.6216 15.5667 32.7035 15.5572 30.8838C15.5507 29.6708 15.9365 28.3389 16.2465 27.2684C16.6099 26.0134 16.8971 25.0216 16.3419 24.8305V24.8305Z" fill="#AA5826"/>
<path d="M6.05613 23.5921C6.93501 22.0522 7.12786 20.8926 7.37224 19.4244C7.42899 19.0829 7.48878 18.7241 7.56102 18.3396C7.92588 16.3992 8.54548 14.5406 8.55181 14.522C8.60192 14.3724 8.19966 14.3185 8.14911 14.4688C8.12304 14.5465 7.50621 16.396 7.13094 18.3906C7.05776 18.7803 6.99717 19.144 6.93962 19.4905C6.70826 20.8805 6.52566 21.9786 5.72129 23.388C3.75917 26.8259 1.31946 26.8504 1.21651 26.8496C1.10135 26.8489 0.956532 27.3934 1.07155 27.3944C1.09955 27.3948 3.89324 27.3818 6.05613 23.5921V23.5921Z" fill="#AA5826"/>
<path d="M7.22788 32.6725C7.2686 32.0829 7.48176 30.4119 7.97619 29.7639C8.27825 29.3684 8.58531 29.1974 8.9409 28.9993C9.40893 28.7386 9.93897 28.4432 10.4765 27.5826C11.0294 26.6976 11.1167 26.2705 11.2253 25.7333C11.2973 25.3765 11.3791 24.972 11.6296 24.2989C12.2412 22.6549 13.4061 20.6293 17.7435 16.9786C19.7103 15.3233 21.219 13.0032 22.5498 10.9562C22.9483 10.343 23.3247 9.76407 23.6837 9.2514C24.7856 7.6772 25.9625 6.82988 25.9743 6.82143C26.0186 6.78984 26.056 6.74631 26.084 6.69732C26.1301 6.61651 25.9771 6.28495 25.8593 6.3687C25.8074 6.40547 24.5741 7.29025 23.3908 8.9806C23.0235 9.50553 22.643 10.0906 22.2405 10.7097C20.9403 12.7094 19.4665 14.9759 17.5853 16.5591C13.1083 20.327 11.8882 22.468 11.2354 24.2203C10.9629 24.9528 10.8707 25.4082 10.7968 25.7743C10.6976 26.2663 10.6324 26.5897 10.1587 27.3494C9.72705 28.0404 9.31548 28.2698 8.87984 28.5121C8.49618 28.7258 8.09919 28.9471 7.7033 29.4655C6.96896 30.4274 6.80335 32.5638 6.78704 32.804C6.77753 32.9501 7.21775 32.8188 7.22788 32.6725V32.6725Z" fill="#AA5826"/>
<path d="M13.0411 13.1988C12.6982 13.7744 12.3601 14.491 12.1352 15.1141C11.9131 15.7299 11.7723 16.3252 11.7387 16.7907C11.6854 17.533 11.9239 17.6879 12.0709 17.7139C12.218 17.7398 12.5326 17.6838 12.9888 17.0136C13.0613 16.907 13.1332 16.7909 13.2042 16.6666C13.4127 16.3012 13.6106 15.8667 13.7764 15.4072C14.0055 14.772 14.2018 14.0333 14.3012 13.4315C14.4364 12.6142 14.372 12.1938 14.1049 12.146C13.8385 12.0984 13.4905 12.4427 13.0411 13.1988V13.1988ZM13.3798 15.3362C13.1812 15.8868 12.9359 16.3898 12.6894 16.7521C12.4679 17.0776 12.3145 17.1826 12.2654 17.1737C12.2163 17.1653 12.1528 17.0214 12.1789 16.6611C12.2077 16.2597 12.3331 15.7354 12.5317 15.1849C12.7462 14.5903 13.0266 14.0147 13.283 13.5655C13.5517 13.0947 13.7939 12.7632 13.9057 12.6951C14.0049 12.8955 13.816 14.1269 13.3798 15.3362V15.3362Z" fill="#AA5826"/>
<path d="M19.5611 2.69838C19.6343 2.55545 19.2815 2.38636 19.2076 2.52816C17.8462 5.18179 16.2919 6.94858 14.9206 8.50795C13.7845 9.79989 12.7122 11.0197 11.9117 12.5421C10.4302 15.3611 9.91446 17.664 10.335 19.5827C10.363 19.7104 10.4818 19.7495 10.6008 19.6696C10.648 19.638 10.688 19.5923 10.7174 19.5408C10.7621 19.4625 10.782 19.3712 10.7652 19.2942C10.3716 17.4994 10.8472 15.4101 12.261 12.7196C13.0125 11.2886 14.0547 10.1038 15.1575 8.84949C16.5608 7.25442 18.1501 5.44804 19.5611 2.69838V2.69838Z" fill="#AA5826"/>
<path d="M27.7449 7.82951C27.7204 7.9167 25.2583 16.5546 19.6687 18.9884C13.5256 21.6637 8.4826 33.0775 8.27127 33.5617C8.20715 33.7085 8.58375 33.8315 8.64734 33.6841C8.69852 33.5679 13.7749 22.0714 19.684 19.4984C22.3994 18.3159 24.407 15.7654 25.785 13.351C27.3959 10.5285 28.1463 7.89112 28.16 7.84226C28.202 7.69189 27.7868 7.67843 27.7449 7.82951V7.82951Z" fill="#AA5826"/>
<path d="M18.8702 24.0849C16.92 27.5019 16.8095 31.0055 16.8057 31.153C16.802 31.2971 17.2516 30.8645 17.2696 30.6474C17.349 29.693 17.7015 26.9238 19.2052 24.2891C20.8044 21.487 24.2602 17.8418 25.2598 16.8128C25.43 16.6375 25.4402 16.0456 25.3321 16.1536C25.1479 16.3382 20.7975 20.7078 18.8702 24.0849V24.0849Z" fill="#AA5826"/>
<path d="M20.1794 16.194C20.2154 16.3644 20.3243 16.4651 20.4859 16.4782C21.1029 16.5279 22.5505 15.27 23.3585 14.3428C23.7394 13.9057 24.2182 13.2016 24.6445 12.4546C25.3634 11.195 25.9328 9.81291 25.6293 9.38287C25.4472 9.12481 25.0207 9.50304 24.8803 9.6275C23.8604 10.5317 20.0076 15.3827 20.1794 16.194V16.194ZM23.119 14.0034C22.26 14.9894 21.0154 15.9636 20.6525 15.9344C20.6331 15.9328 20.6229 15.9286 20.6174 15.9235C20.8145 15.0841 24.5724 10.2015 25.2766 9.85612C25.3804 10.3262 24.1542 12.8157 23.119 14.0034V14.0034Z" fill="#AA5826"/>
<rect x="-0.691462" y="-0.0762978" width="15.1103" height="43.6229" transform="matrix(-0.770251 0.63774 -0.612674 -0.790336 65.9184 73.3663)" fill="#FFE4BB" stroke="#AA5826"/>
<path d="M58.1686 72.1848C60.2862 74.659 61.4268 77.1987 61.438 77.2241C61.5203 77.409 62.0109 77.4682 61.9281 77.2816C61.8788 77.1705 60.6953 74.5268 58.4228 71.8731C55.6312 68.612 52.2571 66.1595 51.679 66.6381C51.2359 67.0051 52.4004 68.5074 54.0123 70.5866C54.6835 71.4525 55.3776 72.3479 56.0145 73.2343C57.8616 75.8048 59.5522 78.8211 59.5692 78.8514C59.5886 78.886 59.6104 78.9186 59.634 78.9491C59.7384 79.0838 60.1065 78.982 60.0023 78.7955C59.9318 78.6695 58.2534 75.6747 56.3527 73.0297C55.6986 72.1193 54.9641 71.1716 54.3159 70.3353C53.4949 69.2763 52.1203 67.5032 52.1668 67.2674C52.4709 67.0156 55.3593 68.9032 58.1686 72.1848V72.1848Z" fill="#AA5826"/>
<path d="M57.3141 68.1885C55.7191 66.2316 54.2334 64.9152 52.6603 63.5207C50.8761 61.9395 49.0216 60.3013 46.948 57.6017C45.1487 55.2674 44.21 53.1318 43.3024 51.0665C42.6797 49.6492 42.0911 48.3104 41.2628 46.9957C39.3905 44.024 36.2493 41.1969 36.1164 41.0776C35.9611 40.9386 35.8449 41.3918 36.0001 41.5309C36.031 41.5585 39.1156 44.3348 40.8702 47.1198C41.6404 48.3422 42.2086 49.6352 42.8103 51.0044C43.7086 53.0484 44.7269 55.3656 46.6416 57.8496C46.6643 57.8789 46.6863 57.9076 46.7083 57.936C48.854 60.7039 50.7322 62.3685 52.5492 63.9789C54.0764 65.3323 55.5191 66.611 57.0353 68.471C60.8402 73.1386 62.1721 76.533 62.185 76.5667C62.2557 76.7504 62.7702 76.8673 62.6994 76.6832C62.6434 76.5373 61.2887 73.0649 57.3141 68.1885V68.1885Z" fill="#AA5826"/>
<path d="M33.7166 52.1832C33.9248 52.2593 34.1944 52.2804 34.2962 51.9482C34.761 50.428 31.0597 46.2014 30.6364 45.7244C30.4917 45.5616 30.2537 45.8904 30.4009 46.0578C31.4308 47.2176 34.0388 50.4459 33.7378 51.4311C33.6939 51.575 33.6066 51.5646 33.5271 51.5354C32.7853 51.2637 30.6519 48.4896 29.4811 46.8044C29.3534 46.6219 29.0027 46.8079 29.1278 46.9879C29.271 47.1938 29.895 48.0853 30.6632 49.0763C31.6939 50.4064 32.9838 51.9149 33.7166 52.1832V52.1832Z" fill="#AA5826"/>
<path d="M44.7498 46.6774C46.7478 49.2547 49.2121 51.5921 49.8771 51.0415C49.9609 50.9721 49.4731 50.3429 49.3894 50.4122C49.0312 50.7088 47.1008 49.0672 45.0534 46.4261C43.7756 44.7778 43.0434 43.0972 43.4547 42.7567C43.5385 42.6873 43.0507 42.0581 42.967 42.1275C42.3711 42.6208 43.1543 44.6192 44.7498 46.6774Z" fill="#AA5826"/>
<path d="M43.7007 49.4512C44.096 49.9612 44.5161 50.4683 44.9612 50.9655C47.5248 53.8292 49.4852 55.1421 51.2146 56.3002C52.6956 57.292 53.9745 58.1485 55.4088 59.7824C57.5575 62.2292 58.7359 64.5449 60.103 67.2283C60.4945 67.9966 60.8993 68.7911 61.3425 69.618C62.6685 72.0926 64.6324 74.6299 64.7183 74.7406C64.853 74.9141 65.1559 74.6623 65.0213 74.4887C65.0211 74.4883 65.0211 74.4883 65.0208 74.488C64.9906 74.449 63.0482 71.9367 61.7881 69.5853C61.3515 68.7711 60.9502 67.9835 60.5622 67.2216C59.2073 64.5622 57.9268 62.0499 55.6504 59.4563C54.0928 57.6817 52.6862 56.7399 51.1969 55.7425C49.4471 54.5708 47.6374 53.3589 45.1928 50.6281C40.7151 45.6269 38.8565 39.3892 38.8385 39.3271C38.7857 39.1477 38.2437 38.9487 38.2959 39.1276C38.366 39.3681 39.914 44.5665 43.7007 49.4512V49.4512Z" fill="#AA5826"/>
<path d="M40.2833 58.4404C41.3404 56.8725 32.7458 46.0704 31.7625 44.8437C31.625 44.6724 31.3367 44.9447 31.4752 45.1157C35.0181 49.5333 40.3996 56.9003 39.7567 57.8546C39.6031 58.082 38.7418 57.3049 37.744 56.4048C36.5923 55.366 35.1593 54.0731 33.7166 53.286C31.0867 51.8513 28.5427 48.1418 28.5178 48.1056C28.3972 47.9291 28.4613 48.7231 28.9052 49.2957C29.9123 50.5948 31.8043 52.796 33.8085 53.8893C35.1445 54.6179 36.519 55.858 37.6237 56.8546C38.9189 58.023 39.9424 58.9463 40.2833 58.4404V58.4404Z" fill="#AA5826"/>
<path d="M44.0683 47.6724C45.5555 49.5909 46.7858 50.5103 48.3436 51.6747C48.7059 51.9455 49.0865 52.2301 49.4925 52.5442C51.5414 54.13 53.4403 55.9515 53.4593 55.9699C53.612 56.1167 53.766 55.6989 53.6126 55.5511C53.5332 55.4748 51.6438 53.662 49.5377 52.0316C49.1262 51.7132 48.7403 51.4247 48.3727 51.1501C46.8979 50.0477 45.7328 49.1771 44.3717 47.4212C41.0513 43.138 41.5988 40.3907 41.6239 40.2759C41.6519 40.1474 41.0869 39.6549 41.0587 39.7831C41.0517 39.8142 40.4082 42.9509 44.0683 47.6724V47.6724Z" fill="#AA5826"/>
<path d="M33.8021 43.4753C34.4412 43.8786 36.2294 45.1311 36.8258 46.0779C37.1899 46.6561 37.3056 47.1037 37.4399 47.6222C37.6165 48.3045 37.8167 49.0774 38.637 50.2014C39.4804 51.3576 39.9297 51.7144 40.4952 52.162C40.8708 52.4591 41.2965 52.7961 41.9781 53.485C43.6427 55.1673 45.597 57.7007 48.5922 64.7733C49.9501 67.9803 52.1475 71.0774 54.0862 73.8097C54.6669 74.628 55.2152 75.4008 55.6947 76.1139C57.1672 78.3029 57.8223 80.1351 57.8288 80.1535C57.8531 80.2222 57.8922 80.2906 57.9395 80.3516C58.0176 80.4523 58.4184 80.482 58.3539 80.2993C58.3257 80.2188 57.6427 78.3008 56.0616 75.9501C55.5706 75.2202 55.0165 74.4393 54.4301 73.6128C52.5363 70.9435 50.3897 67.9179 49.0909 64.8506C45.9997 57.5507 43.9315 54.8853 42.1574 53.0911C41.4156 52.3416 40.9363 51.9621 40.5509 51.6572C40.0331 51.2476 39.6926 50.9784 38.9684 49.987C38.3098 49.0844 38.1543 48.4843 37.9903 47.8494C37.8455 47.29 37.6955 46.7112 37.2184 45.9533C36.333 44.5473 34.0216 43.0658 33.7612 42.9018C33.6028 42.8025 33.6435 43.3752 33.8021 43.4753V43.4753Z" fill="#AA5826"/>
<path d="M53.8577 61.8001C53.3052 61.0669 52.5964 60.2534 51.9639 59.6236C51.3387 59.0013 50.7169 58.4824 50.2126 58.1623C49.4087 57.6524 49.1821 57.8255 49.1189 57.9744C49.0556 58.1234 49.0432 58.5097 49.6732 59.4272C49.7733 59.5731 49.8842 59.7241 50.0042 59.8789C50.3571 60.3342 50.7886 60.8194 51.2551 61.2839C51.8998 61.9257 52.6664 62.5938 53.3051 63.0702C54.1723 63.7174 54.6501 63.9003 54.7655 63.6301C54.8807 63.3608 54.5837 62.7621 53.8577 61.8001V61.8001ZM51.4264 60.8827C50.8675 60.3263 50.3719 59.7464 50.0313 59.2505C49.7253 58.805 49.646 58.5695 49.6673 58.5199C49.6882 58.47 49.8614 58.4862 50.2516 58.7339C50.6864 59.0098 51.2338 59.4683 51.7927 60.0247C52.3963 60.6257 52.9635 61.2889 53.3974 61.8486C53.852 62.435 54.1597 62.9075 54.2083 63.0739C53.9645 63.0635 52.6542 62.1049 51.4264 60.8827V60.8827Z" fill="#AA5826"/>
<path d="M63.8745 75.4721C64.0145 75.6408 64.2836 75.3483 64.145 75.1795C61.5461 72.0449 59.9683 69.2323 58.5756 66.7505C57.4217 64.6943 56.3322 62.7534 54.8457 60.9333C52.0932 57.5639 49.6811 55.5892 47.4711 54.8962C47.324 54.8501 47.2531 54.9595 47.313 55.1413C47.3366 55.2132 47.3774 55.2858 47.4272 55.35C47.5028 55.4475 47.5986 55.5252 47.6873 55.553C49.7545 56.2011 51.9411 58.0012 54.5682 61.2168C55.9656 62.9266 57.0237 64.8126 58.144 66.8087C59.5685 69.3479 61.1816 72.2237 63.8745 75.4721V75.4721Z" fill="#AA5826"/>
<path d="M56.3023 81.5252C56.2121 81.4449 47.2888 73.4472 45.9272 65.7105C44.4302 57.2073 33.0605 44.6352 32.5776 44.1047C32.4312 43.9439 32.2072 44.291 32.3544 44.4517C32.4702 44.5795 43.923 57.2394 45.3625 65.4182C46.0241 69.1769 48.3573 72.9726 50.6892 75.9806C53.4152 79.4971 56.14 81.9375 56.1905 81.9824C56.3461 82.1207 56.4586 81.6638 56.3023 81.5252V81.5252Z" fill="#AA5826"/>
<path d="M40.5088 61.7243C37.2087 57.4672 33.3802 55.218 33.2189 55.1243C33.0612 55.0327 33.4312 55.7987 33.6658 55.9506C34.6971 56.6184 37.6608 58.6932 40.2053 61.9756C42.9115 65.4666 46.1082 71.5484 47.0049 73.2921C47.1577 73.5892 47.8065 73.9597 47.7131 73.773C47.5534 73.4548 43.7704 65.9316 40.5088 61.7243V61.7243Z" fill="#AA5826"/>
<path d="M48.8817 67.9778C48.6858 67.9148 48.5494 67.9756 48.4969 68.1487C48.297 68.8096 49.3401 71.194 50.17 72.6614C50.5611 73.3531 51.223 74.3165 51.9444 75.2472C53.161 76.8165 54.5474 78.2926 55.092 78.2136C55.4188 78.1662 55.1031 77.459 54.9992 77.2264C54.2446 75.5355 49.8148 68.2776 48.8817 67.9778V67.9778ZM50.5997 72.599C49.7172 71.0388 48.9384 69.0539 49.056 68.6652C49.0623 68.6444 49.0694 68.6355 49.0762 68.6324C49.9533 69.3624 54.4402 76.5332 54.6544 77.5315C54.1128 77.3626 51.6626 74.4789 50.5997 72.599V72.599Z" fill="#AA5826"/>
<rect x="0.025066" y="0.718182" width="15.1499" height="42.4455" transform="matrix(0.720046 0.693926 -0.669914 0.742438 56.2389 15.3677)" fill="#FFE4BB" stroke="#AA5826"/>
<path d="M56.3161 24.4372C58.3271 21.9725 60.5511 20.4872 60.5734 20.4726C60.7354 20.3652 60.7155 19.8613 60.552 19.9694C60.4546 20.0338 58.139 21.576 55.9822 24.2209C53.3317 27.4702 51.5354 31.2027 52.0772 31.7248C52.4924 32.125 53.7322 30.751 55.4482 28.8493C56.1627 28.0574 56.9017 27.2385 57.6411 26.4786C59.7849 24.2748 62.3742 22.171 62.4002 22.1498C62.4299 22.1257 62.4574 22.0995 62.4826 22.0716C62.5937 21.9484 62.4406 21.5894 62.2804 21.7191C62.1723 21.8069 59.6013 23.8956 57.3954 26.1633C56.6361 26.9438 55.8539 27.8103 55.1638 28.5752C54.2898 29.5437 52.8265 31.1655 52.5964 31.1493C52.3114 30.8746 53.6489 27.707 56.3161 24.4372V24.4372Z" fill="#AA5826"/>
<path d="M52.6715 25.823C51.0686 27.6917 50.0541 29.3662 48.9794 31.1393C47.7608 33.1502 46.4992 35.2397 44.2683 37.6894C42.3403 39.814 40.467 41.0423 38.6554 42.2299C37.4122 43.0449 36.2379 43.815 35.1234 44.8244C32.6043 47.1061 30.418 50.6522 30.3257 50.8021C30.2184 50.9774 30.6646 51.0357 30.7721 50.8606C30.7934 50.8257 32.9405 47.3435 35.3014 45.2053C36.3376 44.2667 37.4718 43.5231 38.6728 42.7358C40.4658 41.5602 42.4983 40.2277 44.55 37.9668C44.5742 37.9401 44.5979 37.914 44.6213 37.8881C46.9056 35.3565 48.1885 33.2396 49.4296 31.1917C50.4726 29.4705 51.4581 27.8444 52.9816 26.0681C56.8048 21.6104 59.8069 19.82 59.8368 19.8025C59.9995 19.707 60.0305 19.1715 59.8673 19.2671C59.7382 19.3428 56.6657 21.1665 52.6715 25.823V25.823Z" fill="#AA5826"/>
<path d="M41.1927 51.7784C41.2324 51.5579 41.2107 51.2826 40.881 51.223C39.3723 50.9516 35.95 55.2469 35.5646 55.7373C35.4331 55.9048 35.7806 56.1026 35.9161 55.9318C36.853 54.7388 39.5009 51.6796 40.4786 51.8552C40.6213 51.8809 40.625 51.9705 40.6097 52.0547C40.4676 52.8405 38.1755 55.3603 36.7639 56.7645C36.6112 56.9175 36.8412 57.2479 36.992 57.0978C37.1644 56.9262 37.9104 56.1786 38.7283 55.2722C39.8261 54.0562 41.0524 52.5545 41.1927 51.7784V51.7784Z" fill="#AA5826"/>
<path d="M34.2831 41.3398C36.4101 38.9826 38.2382 36.1851 37.615 35.5845C37.5365 35.5088 37.0172 36.0843 37.0957 36.16C37.4314 36.4834 36.1784 38.6501 33.9987 41.0657C32.6384 42.5732 31.1633 43.5332 30.7779 43.1618C30.6994 43.0861 30.1801 43.6616 30.2586 43.7373C30.817 44.2754 32.5846 43.2223 34.2831 41.3398Z" fill="#AA5826"/>
<path d="M37.0669 42.0387C37.4878 41.5723 37.9021 41.0812 38.3032 40.5661C40.6134 37.5994 41.5511 35.4453 42.3784 33.5451C43.0868 31.9178 43.6985 30.5126 45.021 28.8486C47.0013 26.356 49.0078 24.8617 51.3325 23.1286C51.9981 22.6323 52.6864 22.1191 53.3994 21.5629C55.5331 19.8986 57.6276 17.581 57.719 17.4797C57.8621 17.3207 57.5773 17.0473 57.434 17.2062C57.4337 17.2064 57.4337 17.2064 57.4335 17.2067C57.4013 17.2424 55.3271 19.5349 53.2996 21.1165C52.5976 21.6644 51.9152 22.1731 51.2551 22.6651C48.9512 24.3827 46.7748 26.0059 44.6754 28.6469C43.2391 30.4539 42.5664 31.9995 41.854 33.6359C41.0171 35.5585 40.1515 37.547 37.9485 40.376C33.9141 45.5576 28.306 48.2522 28.2501 48.2785C28.0888 48.3553 27.9845 48.9294 28.1455 48.8533C28.362 48.751 33.0357 46.5063 37.0669 42.0387V42.0387Z" fill="#AA5826"/>
<path d="M46.091 44.3201C44.4457 43.4559 35.5653 53.5588 34.5579 54.7135C34.4173 54.875 34.7192 55.131 34.8594 54.9685C38.4868 50.8085 44.6175 44.4036 45.6188 44.9291C45.8575 45.0548 45.2562 46.0273 44.5597 47.154C43.756 48.4544 42.7556 50.0726 42.2348 51.6343C41.2854 54.4814 38.1728 57.5388 38.1424 57.5687C37.9942 57.7137 38.7348 57.5451 39.2073 57.0214C40.2794 55.8333 42.0672 53.6323 42.7907 51.4626C43.2727 50.0163 44.2323 48.4643 45.0034 47.2169C45.9074 45.7544 46.6218 44.5987 46.091 44.3201V44.3201Z" fill="#AA5826"/>
<path d="M35.3292 41.8996C36.9125 40.1449 37.5912 38.7805 38.4509 37.0531C38.6507 36.6512 38.8609 36.2292 39.095 35.7775C40.277 33.4984 41.705 31.34 41.7194 31.3184C41.8346 31.1448 41.4159 31.0436 41.2999 31.2181C41.24 31.3083 39.8188 33.456 38.6036 35.7988C38.3663 36.2566 38.1533 36.6845 37.9505 37.0922C37.1367 38.7276 36.4939 40.0196 35.0449 41.6256C31.5101 45.543 28.829 45.3483 28.7166 45.3379C28.5908 45.3264 28.2126 45.9621 28.3382 45.9738C28.3687 45.9769 31.4327 46.2178 35.3292 41.8996V41.8996Z" fill="#AA5826"/>
<path d="M32.9496 52.8297C33.2319 52.1308 34.1392 50.1587 34.9418 49.4319C35.4321 48.9882 35.8372 48.8126 36.3065 48.6091C36.924 48.3413 37.6235 48.0379 38.5591 47.0615C39.5213 46.0575 39.7891 45.5565 40.1247 44.9261C40.3474 44.5076 40.6002 44.0329 41.1459 43.2537C42.4784 41.3505 44.5707 39.0432 50.7921 35.0901C53.6131 33.2978 56.2005 30.671 58.4831 28.3535C59.1667 27.6592 59.8124 27.0038 60.4122 26.4257C62.2534 24.6506 63.8838 23.7488 63.9001 23.7398C63.9613 23.7062 64.0199 23.6577 64.0702 23.6019C64.1533 23.5098 64.1195 23.1006 63.9567 23.1896C63.885 23.2287 62.1779 24.17 60.2006 26.0761C59.5868 26.668 58.9343 27.3304 58.2438 28.0314C56.0139 30.2953 53.4862 32.8614 50.7881 34.5757C44.3667 38.6555 42.1673 41.0953 40.7459 43.1238C40.1522 43.9719 39.8676 44.5062 39.639 44.9358C39.332 45.513 39.1302 45.8925 38.3052 46.7544C37.5539 47.5383 37.0108 47.774 36.4361 48.0228C35.9298 48.2423 35.4059 48.4696 34.7634 49.0512C33.5715 50.1302 32.5286 52.6613 32.4138 52.9461C32.3446 53.1192 32.8795 53.0032 32.9496 52.8297V52.8297Z" fill="#AA5826"/>
<path d="M47.1678 30.1536C46.5602 30.8081 45.901 31.6312 45.4036 32.3531C44.912 33.0667 44.5178 33.7633 44.2932 34.3151C43.9355 35.1948 44.1342 35.4013 44.2847 35.4458C44.4353 35.4903 44.8024 35.4524 45.5721 34.6954C45.6945 34.575 45.8201 34.4432 45.9478 34.3017C46.3235 33.8853 46.7154 33.3855 47.0823 32.8531C47.5892 32.1172 48.1021 31.2547 48.4536 30.5465C48.9312 29.5849 49.0303 29.0779 48.7571 28.9964C48.4847 28.9152 47.9647 29.2937 47.1678 30.1536V30.1536ZM46.6766 32.7322C46.2372 33.3701 45.7658 33.9471 45.3497 34.3563C44.9759 34.724 44.7657 34.835 44.7155 34.8199C44.6651 34.8053 44.6536 34.628 44.8274 34.201C45.0209 33.7252 45.3697 33.1118 45.8091 32.4739C46.2838 31.7849 46.8229 31.1247 47.2848 30.6128C47.7687 30.0764 48.1677 29.7035 48.3175 29.6326C48.3454 29.8806 47.6419 31.3309 46.6766 32.7322V32.7322Z" fill="#AA5826"/>
<path d="M58.5409 18.2375C58.6787 18.0738 58.3606 17.8399 58.2225 18.0021C55.6617 21.0399 53.2474 23.003 51.1171 24.7357C49.3522 26.1712 47.6862 27.5266 46.1959 29.2676C43.4369 32.4915 41.9436 35.1888 41.6302 37.5143C41.6094 37.6691 41.7238 37.7265 41.8863 37.6422C41.9506 37.6089 42.0129 37.5581 42.0659 37.4994C42.1464 37.4102 42.205 37.3031 42.2176 37.2099C42.5105 35.0347 43.8738 32.5881 46.5068 29.5113C47.9067 27.8746 49.5255 26.5582 51.2389 25.1645C53.4185 23.3922 55.8871 21.3851 58.5409 18.2375V18.2375Z" fill="#AA5826"/>
<path d="M65.4325 25.104C65.3706 25.2057 59.1914 35.2747 52.0898 37.6624C44.2848 40.2873 34.1604 53.4279 33.7338 53.9856C33.6044 54.1546 33.9671 54.3358 34.0962 54.166C34.1991 54.0322 44.3935 40.796 51.9009 38.2717C55.351 37.1115 58.5776 34.2561 61.0601 31.5049C63.9621 28.2887 65.8473 25.2143 65.8819 25.1573C65.9886 24.982 65.5394 24.9278 65.4325 25.104V25.104Z" fill="#AA5826"/>
<path d="M49.1597 43.6632C45.6464 47.5568 44.1125 51.7224 44.0489 51.8978C43.9868 52.0692 44.6535 51.5949 44.7608 51.3378C45.2325 50.2076 46.7353 46.9394 49.4441 43.9373C52.3251 40.7445 57.5789 36.7171 59.0883 35.5824C59.3454 35.3891 59.5953 34.6846 59.4333 34.8034C59.1572 35.0065 52.6318 39.8151 49.1597 43.6632V43.6632Z" fill="#AA5826"/>
<path d="M53.7762 34.3786C53.7469 34.5849 53.8255 34.715 53.9972 34.7454C54.6526 34.8612 56.7449 33.4948 58.0036 32.4639C58.5968 31.9779 59.405 31.1827 60.173 30.3315C61.4681 28.8962 62.6488 27.3013 62.49 26.7609C62.3947 26.4366 61.7752 26.8482 61.5713 26.9837C60.0899 27.9677 53.9153 33.3958 53.7762 34.3786V34.3786ZM57.8781 32.0374C56.54 33.1337 54.7844 34.1806 54.3989 34.1125C54.3783 34.1088 54.3687 34.1029 54.3648 34.0964C54.9191 33.114 61.0026 27.6396 61.913 27.2925C61.8371 27.8623 59.4905 30.7169 57.8781 32.0374V32.0374Z" fill="#AA5826"/>
<rect x="-0.68779" y="-0.106088" width="14.9911" height="31.4971" transform="matrix(-0.797262 0.603634 -0.578319 -0.815811 66.1129 26.7341)" fill="#FFE4BB" stroke="#AA5826"/>
<path d="M59.4505 26.6658C60.9482 28.5063 61.5576 30.4963 61.5635 30.5162C61.6072 30.6612 62.0383 30.6623 61.9944 30.516C61.9683 30.4289 61.3374 28.357 59.7298 26.3831C57.7551 23.9573 55.1251 22.2574 54.5276 22.7099C54.0695 23.0567 54.8701 24.186 55.9781 25.7491C56.4395 26.3999 56.9167 27.073 57.3438 27.7444C58.5829 29.6909 59.6085 32.0215 59.6189 32.0449C59.6306 32.0716 59.6448 32.0965 59.6611 32.1194C59.7328 32.2206 60.0802 32.1005 60.017 31.9564C59.9743 31.859 58.9561 29.545 57.6811 27.542C57.2423 26.8526 56.7375 26.1402 56.2919 25.5115C55.7275 24.7154 54.7826 23.3825 54.8629 23.1829C55.1773 22.9448 57.4633 24.2248 59.4505 26.6658V26.6658Z" fill="#AA5826"/>
<path d="M59.3364 23.4432C58.2235 21.9797 57.1041 21.0355 55.9189 20.0352C54.5747 18.9011 53.1766 17.7266 51.7552 15.6953C50.5204 13.9396 50.0263 12.2642 49.5487 10.644C49.2209 9.53213 48.9111 8.48192 48.3819 7.47495C47.1858 5.19897 44.8262 3.1664 44.7264 3.08063C44.6096 2.98081 44.4311 3.36706 44.5478 3.467C44.571 3.48685 46.8881 5.48291 48.0089 7.61598C48.501 8.55221 48.8001 9.56655 49.1167 10.6407C49.5896 12.2442 50.1255 14.062 51.4394 15.9304C51.455 15.9524 51.4701 15.974 51.4852 15.9953C52.9602 18.0761 54.3753 19.2701 55.7443 20.4252C56.8949 21.396 57.9819 22.3131 59.0397 23.7041C61.6947 27.1947 62.3363 29.8731 62.3424 29.8998C62.3758 30.0449 62.8189 30.0914 62.7854 29.9459C62.759 29.8308 62.1096 27.0899 59.3364 23.4432V23.4432Z" fill="#AA5826"/>
<path d="M40.7554 12.5031C40.9301 12.5457 41.1687 12.5369 41.3145 12.2521C41.9806 10.9489 39.3466 7.81311 39.0443 7.45976C38.941 7.33918 38.6734 7.63443 38.7783 7.75856C39.5138 8.61763 41.3289 11.0342 40.8975 11.8787C40.8344 12.002 40.7577 12.0019 40.6911 11.9855C40.0691 11.8331 38.6062 9.74604 37.83 8.46601C37.7451 8.32751 37.3996 8.51562 37.4826 8.65235C37.5775 8.80872 37.9924 9.48539 38.5205 10.2304C39.2289 11.2303 40.1411 12.3525 40.7554 12.5031V12.5031Z" fill="#AA5826"/>
<path d="M51.5663 6.87077C52.9397 8.80823 54.7713 10.5017 55.4587 9.98121C55.5453 9.91564 55.21 9.44263 55.1234 9.50819C54.7532 9.7885 53.2875 8.6187 51.88 6.63322C51.0017 5.39416 50.6187 4.07515 51.0438 3.75327C51.1304 3.6877 50.7951 3.21469 50.7085 3.28025C50.0926 3.74656 50.4694 5.32354 51.5663 6.87077Z" fill="#AA5826"/>
<path d="M50.1705 9.26804C50.4423 9.65142 50.7367 10.03 51.0554 10.3979C52.8901 12.5171 54.4365 13.4121 55.8006 14.2016C56.9689 14.8777 57.9777 15.4615 58.9991 16.6734C60.5293 18.4882 61.2093 20.2891 61.9987 22.3759C62.2248 22.9734 62.4586 23.5913 62.7215 24.2321C63.5081 26.1501 64.8575 28.0578 64.9165 28.1411C65.0092 28.2715 65.3225 28.0336 65.2299 27.903C65.2298 27.9028 65.2298 27.9028 65.2296 27.9026C65.2088 27.8732 63.8747 25.9841 63.1271 24.1616C62.868 23.5306 62.6363 22.918 62.4123 22.3255C61.6299 20.2574 60.8904 18.3038 59.2694 16.38C58.1603 15.0638 57.0507 14.4218 55.8759 13.7419C54.4956 12.9432 53.0681 12.117 51.3185 10.0961C48.1138 6.39523 47.4639 1.41561 47.4579 1.366C47.4397 1.22273 46.9854 1.11097 47.003 1.25388C47.0267 1.44605 47.5675 5.59603 50.1705 9.26804V9.26804Z" fill="#AA5826"/>
<path d="M45.6313 17.0395C46.8372 15.6391 40.8825 7.54035 40.1997 6.62135C40.1041 6.49306 39.8007 6.74645 39.8971 6.87439C42.3576 10.1837 45.9875 15.7539 45.254 16.6062C45.0788 16.8093 44.4322 16.2504 43.683 15.603C42.8183 14.8559 41.7423 13.926 40.575 13.4156C38.4471 12.4852 36.7682 9.66428 36.7518 9.63672C36.6723 9.50246 36.6001 10.1532 36.9052 10.5836C37.5975 11.5602 38.9373 13.1968 40.5589 13.9058C41.64 14.3782 42.672 15.2702 43.5014 15.9869C44.4739 16.8272 45.2424 17.4913 45.6313 17.0395V17.0395Z" fill="#AA5826"/>
<path d="M50.791 7.76058C51.8133 9.2028 52.7682 9.84348 53.9772 10.6549C54.2584 10.8435 54.5538 11.0418 54.8672 11.2622C56.4484 12.3743 57.8565 13.696 57.8705 13.7094C57.9837 13.816 58.1903 13.4553 58.0767 13.348C58.0179 13.2925 56.6169 11.977 54.9915 10.8336C54.6739 10.6104 54.3745 10.4093 54.0891 10.218C52.9445 9.44977 52.0402 8.84309 51.1046 7.52315C48.8221 4.30334 49.763 1.97689 49.8043 1.87945C49.8504 1.77039 49.4234 1.41802 49.3771 1.52685C49.3658 1.55328 48.2749 4.21132 50.791 7.76058V7.76058Z" fill="#AA5826"/>
<path d="M42.2551 5.29028C42.7632 5.56158 44.1648 6.42336 44.5458 7.14854C44.7783 7.59146 44.8091 7.95049 44.845 8.36635C44.8921 8.91366 44.9456 9.53355 45.4987 10.3835C46.0673 11.2578 46.4126 11.5092 46.8475 11.8243C47.1363 12.0335 47.4636 12.2708 47.9632 12.7743C49.1836 14.0037 50.5249 15.9091 52.0593 21.4686C52.755 23.9894 54.2226 26.3375 55.5174 28.409C55.9054 29.0293 56.2716 29.6153 56.5857 30.1584C57.5506 31.8259 57.8396 33.2779 57.8424 33.2925C57.853 33.3469 57.8769 33.3997 57.9095 33.4456C57.9631 33.5213 58.3183 33.5068 58.2903 33.3619C58.2781 33.2981 57.9781 31.7778 56.9421 29.9871C56.6203 29.4312 56.2502 28.8391 55.8586 28.2125C54.5937 26.1888 53.16 23.895 52.4947 21.4839C50.9112 15.7457 49.4891 13.7422 48.1887 12.4309C47.6449 11.8831 47.2764 11.6159 46.98 11.4012C46.5818 11.1129 46.3199 10.9234 45.8314 10.1738C45.3874 9.49126 45.3458 9.00991 45.3023 8.50061C45.2636 8.05195 45.2235 7.58765 44.9188 7.00715C44.3533 5.93026 42.5192 4.93002 42.312 4.81973C42.186 4.75309 42.129 5.22293 42.2551 5.29028V5.29028Z" fill="#AA5826"/>
<path d="M57.2755 18.4946C56.8991 17.9418 56.3953 17.338 55.9301 16.8786C55.4702 16.4247 54.9965 16.0561 54.5958 15.8405C53.957 15.497 53.7251 15.6623 53.644 15.7917C53.5629 15.9211 53.4885 16.242 53.9045 16.9396C53.9706 17.0506 54.0455 17.1647 54.1279 17.281C54.3705 17.6233 54.6788 17.9826 55.0219 18.3215C55.4962 18.7895 56.0756 19.2675 56.5715 19.5993C57.2447 20.0502 57.644 20.155 57.7919 19.9201C57.9393 19.686 57.7704 19.2196 57.2755 18.4946V18.4946ZM55.2415 17.9728C54.8304 17.567 54.4799 17.1356 54.2551 16.7585C54.053 16.4197 54.0202 16.2327 54.0475 16.1895C54.0744 16.1462 54.2274 16.1427 54.5374 16.3096C54.8829 16.4954 55.2996 16.8213 55.7107 17.2272C56.1547 17.6655 56.5558 18.1588 56.8541 18.5796C57.1666 19.0204 57.3658 19.3813 57.3822 19.5143C57.1649 19.5295 56.1446 18.8642 55.2415 17.9728V17.9728Z" fill="#AA5826"/>
<path d="M64.0388 28.8292C64.137 28.9552 64.4265 28.6869 64.3296 28.5607C62.5074 26.2208 61.5498 24.0477 60.7045 22.1302C60.0041 20.5416 59.3427 19.042 58.3049 17.6812C56.3831 15.162 54.5392 13.7636 52.6672 13.4058C52.5426 13.382 52.461 13.4794 52.4851 13.624C52.4946 13.6812 52.5194 13.7373 52.5536 13.7855C52.6055 13.8588 52.6789 13.9137 52.754 13.9281C54.505 14.2626 56.175 15.5387 58.0093 17.9428C58.9851 19.2211 59.6273 20.6783 60.3073 22.2205C61.1718 24.1824 62.1508 26.4044 64.0388 28.8292V28.8292Z" fill="#AA5826"/>
<path d="M56.2476 34.5759C56.1797 34.5183 49.4713 28.7719 49.5129 22.5036C49.5582 15.6144 41.4 6.32185 41.0529 5.93011C40.9477 5.81131 40.6897 6.12039 40.7957 6.23895C40.8788 6.3334 49.0973 15.6903 49.0534 22.3169C49.0333 25.3621 50.5088 28.2749 52.1117 30.5362C53.9856 33.1796 56.0344 34.9329 56.0725 34.9651C56.1896 35.0643 56.3654 34.6754 56.2476 34.5759V34.5759Z" fill="#AA5826"/>
<path d="M45.2968 19.7344C43.0282 16.5342 39.9567 15.0468 39.8271 14.985C39.7004 14.9246 39.9076 15.5223 40.0935 15.625C40.9108 16.077 43.2338 17.5044 44.983 19.9719C46.8433 22.5962 48.7207 27.3163 49.2412 28.6715C49.3299 28.9023 49.8521 29.1455 49.7987 29.0002C49.7073 28.7525 47.5388 22.8972 45.2968 19.7344V19.7344Z" fill="#AA5826"/>
<path d="M51.7957 24.0911C51.63 24.0581 51.4975 24.1217 51.4221 24.2701C51.1345 24.8363 51.6817 26.7074 52.1873 27.8405C52.4256 28.3746 52.8626 29.1072 53.3586 29.8067C54.1949 30.9864 55.199 32.0725 55.7011 31.954C56.0024 31.8829 55.8344 31.3286 55.7791 31.1462C55.3777 29.8209 52.5849 24.2481 51.7957 24.0911V24.0911ZM52.5835 27.7469C52.0458 26.5422 51.6707 24.9759 51.8399 24.6428C51.849 24.625 51.8567 24.617 51.8634 24.6138C52.5319 25.1321 55.3903 30.6272 55.4195 31.4323C54.9606 31.3454 53.231 29.1986 52.5835 27.7469V27.7469Z" fill="#AA5826"/>
<rect x="47.6125" y="0.910889" width="15.3333" height="30.8006" transform="rotate(90 47.6125 0.910889)" fill="#FFE4BB" stroke="#AA5826"/>
<path d="M43.5287 7.13809C45.8504 6.97711 47.7639 7.64516 47.7829 7.65199C47.9219 7.70123 48.1776 7.34249 48.0374 7.29264C47.954 7.2629 45.9639 6.5645 43.4731 6.73815C40.4127 6.95078 37.5315 8.13876 37.5315 8.90428C37.5315 9.49114 38.8861 9.49114 40.761 9.49114C41.5417 9.49114 42.3491 9.49114 43.1256 9.53173C45.3772 9.6491 47.8025 10.1714 47.8269 10.1767C47.8547 10.1827 47.8825 10.1855 47.91 10.1855C48.0315 10.1855 48.1429 9.82496 47.9932 9.7924C47.8919 9.77049 45.4839 9.25177 43.167 9.13098C42.3696 9.08938 41.5151 9.08918 40.761 9.08918C39.8061 9.08918 38.2072 9.08918 38.0989 8.90428C38.0989 8.50152 40.449 7.35213 43.5287 7.13809V7.13809Z" fill="#AA5826"/>
<path d="M40.946 5.3291C39.1459 5.39201 37.7474 5.76723 36.2662 6.16416C34.5865 6.61455 32.8435 7.08604 30.4179 7.07057C28.3178 7.06233 26.718 6.48412 25.1711 5.9248C24.1095 5.54093 23.1066 5.17857 22.0079 5.02462C19.5245 4.67673 16.5435 5.44265 16.4175 5.47521C16.2706 5.5136 16.4666 5.89063 16.6135 5.85245C16.6428 5.84481 19.5702 5.09275 21.8976 5.41894C22.9191 5.56203 23.8877 5.91214 24.9132 6.28294C26.4443 6.83643 28.1799 7.46388 30.4148 7.47273C30.4412 7.47273 30.467 7.47293 30.4925 7.47293C32.9884 7.47293 34.7567 6.99882 36.4673 6.54019C37.9051 6.15472 39.2634 5.79054 40.9743 5.73065C45.268 5.58012 47.7378 6.62822 47.7622 6.63887C47.8952 6.69675 48.1934 6.35489 48.0601 6.29681C47.9545 6.25078 45.4314 5.17234 40.946 5.3291V5.3291Z" fill="#AA5826"/>
<path d="M21.4256 14.3539C21.562 14.2335 21.6962 14.0293 21.56 13.7395C20.9365 12.4141 16.9322 12.7568 16.4777 12.8C16.3225 12.8148 16.3949 13.2124 16.5537 13.1983C17.659 13.0928 20.6179 13.0078 21.0221 13.8665C21.0812 13.992 21.0358 14.0559 20.9836 14.1017C20.497 14.5302 18.0034 14.5163 16.5455 14.407C16.3872 14.3959 16.3299 14.7951 16.4857 14.8067C16.6638 14.82 17.4372 14.874 18.3308 14.874C19.5299 14.8744 20.945 14.7772 21.4256 14.3539V14.3539Z" fill="#AA5826"/>
<path d="M23.4179 2.01275C25.7419 2.01275 28.1462 1.48659 28.1462 0.60591C28.1462 0.49497 27.5788 0.49497 27.5788 0.60591C27.5788 1.08022 25.7995 1.6108 23.4179 1.6108C21.9317 1.6108 20.6758 1.15056 20.6758 0.60591C20.6758 0.49497 20.1084 0.49497 20.1084 0.60591C20.1084 1.39495 21.562 2.01275 23.4179 2.01275Z" fill="#AA5826"/>
<path d="M24.4646 4.59285C24.9244 4.59285 25.3939 4.57114 25.8694 4.52291C28.6079 4.24576 30.2204 3.48546 31.6428 2.8148C32.861 2.24041 33.9129 1.7444 35.4624 1.60914C37.7833 1.40595 39.591 1.90337 41.6863 2.47857C42.2863 2.64317 42.9067 2.8134 43.5623 2.97297C45.5243 3.45069 47.8109 3.45311 47.9107 3.45311C48.0673 3.45291 48.0668 3.05115 47.9102 3.05115C47.9099 3.05115 47.9099 3.05115 47.9096 3.05115C47.8744 3.05115 45.6114 3.04693 43.747 2.59312C43.1013 2.43616 42.4863 2.26734 41.8914 2.10395C39.8148 1.53397 37.8528 0.995957 35.3932 1.2104C33.7103 1.35711 32.5534 1.90277 31.3285 2.48038C29.8893 3.15908 28.4008 3.86089 25.7894 4.12517C21.0067 4.60973 16.7357 2.20865 16.6934 2.18434C16.5709 2.1148 16.2151 2.42752 16.3371 2.49726C16.5011 2.59111 20.06 4.59285 24.4646 4.59285V4.59285Z" fill="#AA5826"/>
<path d="M27.848 12.9702C27.4676 11.1372 17.6269 11.3153 16.5061 11.3414C16.3495 11.3453 16.3679 11.748 16.5248 11.7432C20.562 11.6477 27.0551 11.9134 27.2869 13.0286C27.3419 13.2947 26.5235 13.5035 25.5754 13.7455C24.4812 14.0249 23.1195 14.3724 22.0312 15.0438C20.0474 16.268 16.8533 16.0005 16.8221 15.9979C16.6703 15.9848 17.1356 16.4296 17.6519 16.4296C18.8233 16.4296 20.8925 16.2799 22.4043 15.3469C23.4119 14.7249 24.7181 14.3917 25.7677 14.1238C26.9984 13.8096 27.9709 13.5614 27.848 12.9702V12.9702Z" fill="#AA5826"/>
<path d="M23.6544 3.18458C25.3844 3.18458 26.4488 2.76715 27.7966 2.23878C28.1101 2.11578 28.4395 1.98676 28.7966 1.85572C30.5992 1.1947 32.463 0.801994 32.4818 0.798175C32.6318 0.766823 32.4724 0.381348 32.3215 0.412701C32.2435 0.42898 30.3887 0.819479 28.5356 1.49878C28.1736 1.63163 27.8397 1.76246 27.5217 1.88727C26.2457 2.3875 25.2377 2.78283 23.6544 2.78283C19.7923 2.78283 18.5324 0.623526 18.4808 0.531478C18.4229 0.428578 17.8955 0.576296 17.9531 0.679197C17.967 0.704319 19.3971 3.18458 23.6544 3.18458V3.18458Z" fill="#AA5826"/>
<path d="M16.6821 8.84108C17.1942 8.5778 18.6952 7.91859 19.4864 8.02953C19.9695 8.09746 20.268 8.28397 20.6138 8.49982C21.0688 8.784 21.5843 9.10577 22.5747 9.14697C23.5931 9.18957 23.9934 9.0503 24.4964 8.87404C24.8303 8.75687 25.209 8.62423 25.8972 8.50525C27.5781 8.21443 29.8581 8.22227 35.1044 10.2286C37.4832 11.1385 40.1833 11.3026 42.5655 11.4474C43.279 11.4906 43.9527 11.5316 44.5624 11.5906C46.4342 11.7717 47.7383 12.3889 47.7513 12.3952C47.8001 12.4185 47.8555 12.4297 47.9105 12.4297C48.0013 12.4297 48.1999 12.125 48.0702 12.0627C48.0132 12.0352 46.6492 11.3869 44.6393 11.1923C44.0151 11.132 43.3343 11.0906 42.6137 11.0468C40.2866 10.9053 37.6488 10.7449 35.3736 9.87471C29.9588 7.80364 27.5546 7.80524 25.7625 8.11435C25.0135 8.24398 24.5872 8.3933 24.2445 8.51349C23.784 8.67507 23.4813 8.78139 22.6076 8.74562C21.8124 8.71245 21.4121 8.46264 20.9888 8.19795C20.6158 7.96502 20.2297 7.72405 19.5965 7.63501C18.4217 7.47001 16.557 8.40797 16.3485 8.5155C16.222 8.58122 16.555 8.9064 16.6821 8.84108V8.84108Z" fill="#AA5826"/>
<path d="M35.8653 4.12213C35.2114 4.10927 34.4423 4.17237 33.8088 4.28874C33.1827 4.4039 32.6151 4.58096 32.21 4.78757C31.5643 5.11717 31.5563 5.40818 31.6094 5.55229C31.6624 5.69639 31.869 5.94801 32.6593 6.01353C32.785 6.02398 32.9183 6.029 33.0579 6.029C33.4684 6.029 33.9311 5.98439 34.3983 5.89857C35.044 5.77979 35.7595 5.57922 36.3116 5.36196C37.0613 5.06713 37.3791 4.79621 37.2832 4.53413C37.1876 4.27286 36.7238 4.13801 35.8653 4.12213V4.12213ZM34.2559 5.50948C33.6962 5.61238 33.1524 5.64956 32.7251 5.61419C32.3413 5.58243 32.1759 5.49923 32.1583 5.45099C32.1405 5.40296 32.2281 5.27333 32.5416 5.11355C32.8908 4.93529 33.3915 4.78053 33.9512 4.67763C34.5558 4.56649 35.1779 4.52368 35.6826 4.52368C36.2114 4.52368 36.6108 4.57091 36.7243 4.63583C36.6077 4.82595 35.4854 5.28338 34.2559 5.50948V5.50948Z" fill="#AA5826"/>
<path d="M47.9289 4.59165C48.0852 4.58421 48.0469 4.18427 47.8912 4.1905C44.9879 4.32676 42.7258 3.8408 40.7294 3.41231C39.0755 3.05739 37.5141 2.72256 35.8386 2.78345C32.7364 2.89681 30.5551 3.60766 29.1696 4.95682C29.0774 5.04666 29.1052 5.17227 29.2323 5.23759C29.2825 5.26352 29.3409 5.27598 29.3988 5.27598C29.4868 5.27598 29.573 5.24724 29.6286 5.19317C30.9245 3.93104 32.9075 3.29293 35.8681 3.18461C37.4426 3.12652 38.9595 3.45231 40.5652 3.79678C42.6075 4.23552 44.9204 4.73253 47.9289 4.59165V4.59165Z" fill="#AA5826"/>
<path d="M47.8103 14.4833C47.7252 14.5058 39.2752 16.7025 34.4071 12.9633C29.0564 8.85409 16.9817 10.1637 16.4707 10.2215C16.3158 10.239 16.4046 10.6368 16.5598 10.6185C16.6826 10.605 28.8433 9.28318 33.9898 13.236C36.3549 15.0524 39.5005 15.5438 42.2128 15.5438C45.3836 15.5438 47.9629 14.872 48.0106 14.8593C48.1573 14.8203 47.9576 14.4439 47.8103 14.4833V14.4833Z" fill="#AA5826"/>
<path d="M29.754 14.8417C25.9154 14.8417 22.9392 16.5233 22.8143 16.5948C22.6923 16.6647 23.2813 16.8452 23.4714 16.751C24.3071 16.3367 26.7942 15.2436 29.754 15.2436C32.9018 15.2436 37.6956 16.468 39.061 16.835C39.2936 16.8975 39.7921 16.6059 39.6471 16.5645C39.3997 16.4943 33.5478 14.8417 29.754 14.8417V14.8417Z" fill="#AA5826"/>
<path d="M36.9954 11.9981C36.8717 12.1167 36.8431 12.2648 36.9143 12.4153C37.1863 12.9897 38.9702 13.6393 40.1535 13.8875C40.7112 14.0045 41.5413 14.073 42.3804 14.073C43.7955 14.073 45.2366 13.8776 45.4409 13.3891C45.5634 13.0958 45.0315 12.9083 44.8565 12.8466C43.5847 12.398 37.5844 11.4329 36.9954 11.9981V11.9981ZM40.3146 13.5018C39.0564 13.2381 37.6122 12.6251 37.4522 12.2873C37.4436 12.2692 37.4419 12.258 37.4434 12.2505C38.2431 11.9995 44.2216 12.8641 44.8673 13.3155C44.5283 13.6467 41.8304 13.82 40.3146 13.5018V13.5018Z" fill="#AA5826"/>
<rect x="0.179097" y="-0.694505" width="14.9424" height="31.5932" transform="matrix(0.853877 -0.520494 -0.495683 -0.868515 15.8501 98.3843)" fill="#FFE4BB" stroke="#AA5826"/>
<path d="M19.446 92.0908C20.4913 94.2393 22.0202 95.6033 22.0356 95.6167C22.1472 95.7154 21.9781 96.1252 21.8653 96.0258C21.7982 95.9667 20.2051 94.55 19.0844 92.2445C17.7068 89.4122 17.2331 86.244 17.8712 85.8551C18.3603 85.5569 19.0485 86.7627 20.001 88.4317C20.3976 89.1267 20.8078 89.8454 21.2361 90.5159C22.4779 92.4606 24.1453 94.3542 24.1621 94.3732C24.1812 94.3949 24.1977 94.4182 24.2117 94.4427C24.2734 94.5508 24.0295 94.8332 23.9263 94.7164C23.8566 94.6374 22.2009 92.7575 20.9232 90.7564C20.4833 90.0677 20.0491 89.3072 19.666 88.6359C19.1809 87.7859 18.3686 86.3626 18.1594 86.3601C17.8237 86.5647 18.0597 89.2406 19.446 92.0908V92.0908Z" fill="#AA5826"/>
<path d="M16.6258 90.7109C15.7637 89.0766 15.3659 87.641 14.9443 86.1209C14.4663 84.3968 13.9737 82.6058 12.7285 80.4545C11.6547 78.5892 10.3601 77.4589 9.10801 76.366C8.24876 75.6161 7.43727 74.9075 6.75077 74.0076C5.19914 71.9737 4.32302 68.931 4.28617 68.8023C4.2435 68.652 4.65733 68.635 4.70016 68.7852C4.70864 68.8151 5.56908 71.803 7.02334 73.7091C7.6616 74.5457 8.44543 75.23 9.27549 75.9545C10.5146 77.0362 11.9193 78.2625 13.0621 80.2474C13.0755 80.2709 13.0888 80.2938 13.1018 80.3165C14.3698 82.5383 14.873 84.3531 15.3598 86.1089C15.769 87.5846 16.1556 88.9787 16.9749 90.5321C19.0307 94.4307 21.159 96.0967 21.1803 96.113C21.2961 96.2021 21.1627 96.6411 21.0465 96.552C20.9546 96.4814 18.7739 94.7833 16.6258 90.7109V90.7109Z" fill="#AA5826"/>
<path d="M14.2306 68.7495C14.1996 68.9321 14.0976 69.1553 13.7869 69.1813C12.3654 69.2996 10.6167 65.561 10.4218 65.1345C10.3554 64.9888 10.7234 64.8513 10.7924 64.9998C11.266 66.0373 12.6984 68.7144 13.6195 68.638C13.754 68.6268 13.7842 68.5539 13.7959 68.4841C13.9058 67.8334 12.6274 65.6207 11.7956 64.3785C11.706 64.2432 12.0095 63.9894 12.0983 64.1221C12.1999 64.2739 12.6379 64.9349 13.0919 65.7303C13.7014 66.7976 14.3392 68.1066 14.2306 68.7495V68.7495Z" fill="#AA5826"/>
<path d="M4.95717 76.7929C6.13785 78.8616 6.92079 81.2691 6.18679 81.7166C6.09433 81.7729 5.80608 81.2679 5.89854 81.2115C6.29385 80.9705 5.8321 79.1171 4.62216 76.9971C3.86709 75.6741 2.84547 74.79 2.39153 75.0667C2.29907 75.123 2.01082 74.618 2.10328 74.5616C2.7609 74.1608 4.0143 75.1408 4.95717 76.7929Z" fill="#AA5826"/>
<path d="M7.63896 76.4139C7.87259 76.8232 8.09303 77.2522 8.29438 77.6999C9.45464 80.2784 9.64018 82.1001 9.80387 83.707C9.94403 85.0831 10.065 86.2715 10.7395 87.7196C11.7493 89.8887 13.0822 91.2452 14.6261 92.8181C15.0681 93.2686 15.5252 93.7344 15.9913 94.2369C17.3862 95.7407 18.5499 97.7749 18.6006 97.8638C18.68 98.0033 18.3449 98.2069 18.2653 98.0675C18.2652 98.0673 18.2652 98.0673 18.265 98.067C18.2471 98.0357 17.0939 96.0234 15.7685 94.5943C15.3097 94.0993 14.8565 93.6376 14.4181 93.191C12.8881 91.6321 11.4429 90.1589 10.372 87.8605C9.63936 86.288 9.50639 84.9809 9.36546 83.5971C9.19997 81.9712 9.02866 80.2896 7.92225 77.8308C5.89629 73.3272 1.72532 70.7452 1.68358 70.7199C1.56336 70.6462 1.64326 70.1706 1.76336 70.2438C1.92489 70.342 5.40127 72.4931 7.63896 76.4139V76.4139Z" fill="#AA5826"/>
<path d="M16.34 75.1696C14.6191 75.7621 9.76805 66.9119 9.22038 65.9009C9.14401 65.7595 9.48905 65.5713 9.56473 65.7134C11.5362 69.3557 15.0564 75.0006 16.1036 74.6404C16.3534 74.5542 16.1116 73.7195 15.8316 72.7526C15.5085 71.6367 15.1063 70.248 15.1131 68.9382C15.1255 66.5503 13.2798 63.843 13.2618 63.8165C13.1738 63.6881 13.7809 63.8763 14.0432 64.3359C14.6383 65.3786 15.5647 67.2966 15.5552 69.1163C15.5487 70.3293 15.9346 71.6612 16.2446 72.7317C16.608 73.9868 16.8952 74.9785 16.34 75.1696V75.1696Z" fill="#AA5826"/>
<path d="M6.05418 76.4079C6.93306 77.9478 7.12591 79.1074 7.37029 80.5756C7.42703 80.9171 7.48683 81.2759 7.55907 81.6604C7.92393 83.6008 8.54353 85.4594 8.54986 85.478C8.59997 85.6276 8.1977 85.6815 8.14716 85.5312C8.12109 85.4535 7.50426 83.604 7.12899 81.6094C7.0558 81.2197 6.99521 80.856 6.93767 80.5095C6.7063 79.1195 6.5237 78.0214 5.71934 76.612C3.75721 73.1741 1.3175 73.1496 1.21456 73.1504C1.09939 73.1511 0.954579 72.6066 1.0696 72.6056C1.0976 72.6052 3.89129 72.6182 6.05418 76.4079V76.4079Z" fill="#AA5826"/>
<path d="M7.22593 67.3275C7.26665 67.9171 7.47981 69.5881 7.97423 70.2361C8.2763 70.6316 8.58336 70.8026 8.93895 71.0007C9.40697 71.2614 9.93702 71.5568 10.4745 72.4174C11.0274 73.3024 11.1147 73.7295 11.2233 74.2667C11.2953 74.6235 11.3772 75.028 11.6277 75.7011C12.2392 77.3451 13.4041 79.3707 17.7416 83.0214C19.7084 84.6767 21.217 86.9968 22.5478 89.0438C22.9463 89.657 23.3228 90.2359 23.6818 90.7486C24.7836 92.3228 25.9606 93.1701 25.9724 93.1786C26.0166 93.2102 26.0541 93.2537 26.0821 93.3027C26.1282 93.3835 25.9751 93.7151 25.8573 93.6313C25.8054 93.5945 24.5721 92.7097 23.3888 91.0194C23.0215 90.4945 22.6411 89.9094 22.2385 89.2903C20.9383 87.2906 19.4646 85.0241 17.5834 83.4409C13.1064 79.673 11.8862 77.532 11.2334 75.7797C10.961 75.0472 10.8688 74.5918 10.7949 74.2257C10.6956 73.7337 10.6304 73.4103 10.1567 72.6506C9.72509 71.9596 9.31353 71.7302 8.87789 71.4879C8.49423 71.2742 8.09724 71.0529 7.70135 70.5345C6.967 69.5726 6.8014 67.4362 6.78508 67.196C6.77558 67.0499 7.2158 67.1812 7.22593 67.3275V67.3275Z" fill="#AA5826"/>
<path d="M13.0392 86.8012C12.6963 86.2256 12.3581 85.509 12.1333 84.8859C11.9112 84.2701 11.7704 83.6748 11.7367 83.2093C11.6834 82.467 11.9219 82.3121 12.069 82.2861C12.216 82.2602 12.5307 82.3162 12.9868 82.9864C13.0594 83.093 13.1313 83.2091 13.2022 83.3334C13.4107 83.6988 13.6086 84.1333 13.7745 84.5928C14.0035 85.228 14.1998 85.9667 14.2992 86.5685C14.4344 87.3858 14.3701 87.8062 14.1029 87.854C13.8366 87.9016 13.4886 87.5573 13.0392 86.8012V86.8012ZM13.3778 84.6638C13.1792 84.1132 12.9339 83.6102 12.6874 83.2479C12.4659 82.9224 12.3126 82.8174 12.2634 82.8263C12.2143 82.8347 12.1508 82.9786 12.1769 83.3389C12.2058 83.7403 12.3312 84.2646 12.5298 84.8151C12.7443 85.4097 13.0247 85.9853 13.2811 86.4345C13.5497 86.9053 13.792 87.2368 13.9037 87.3049C14.003 87.1045 13.814 85.8731 13.3778 84.6638V84.6638Z" fill="#AA5826"/>
<path d="M19.5591 97.3016C19.6323 97.4445 19.2796 97.6136 19.2056 97.4718C17.8442 94.8182 16.2899 93.0514 14.9186 91.4921C13.7825 90.2001 12.7102 88.9803 11.9098 87.4579C10.4282 84.6389 9.9125 82.336 10.333 80.4173C10.3611 80.2896 10.4799 80.2505 10.5989 80.3304C10.646 80.362 10.6861 80.4077 10.7155 80.4592C10.7602 80.5375 10.78 80.6288 10.7632 80.7058C10.3697 82.5006 10.8453 84.5899 12.2591 87.2804C13.0106 88.7114 14.0527 89.8962 15.1556 91.1505C16.5588 92.7456 18.1481 94.552 19.5591 97.3016V97.3016Z" fill="#AA5826"/>
<path d="M27.7429 92.1704C27.7184 92.0832 25.2563 83.4453 19.6667 81.0115C13.5236 78.3362 8.48064 66.9224 8.26931 66.4382C8.20519 66.2914 8.58179 66.1684 8.64539 66.3158C8.69657 66.432 13.773 77.9285 19.682 80.5015C22.3975 81.684 24.4051 84.2344 25.7831 86.6489C27.394 89.4714 28.1444 92.1088 28.1581 92.1576C28.2001 92.308 27.7849 92.3214 27.7429 92.1704V92.1704Z" fill="#AA5826"/>
<path d="M18.8682 75.9151C16.918 72.4981 16.8075 68.9945 16.8037 68.847C16.8 68.7029 17.2497 69.1355 17.2677 69.3526C17.347 70.307 17.6995 73.0762 19.2032 75.7109C20.8024 78.513 24.2583 82.1582 25.2578 83.1872C25.4281 83.3625 25.4383 83.9544 25.3301 83.8464C25.146 83.6618 20.7956 79.2922 18.8682 75.9151V75.9151Z" fill="#AA5826"/>
<path d="M20.1775 83.8061C20.2135 83.6357 20.3224 83.535 20.484 83.5219C21.1009 83.4722 22.5486 84.7302 23.3566 85.6574C23.7374 86.0944 24.2162 86.7985 24.6426 87.5455C25.3615 88.8051 25.9308 90.1872 25.6274 90.6173C25.4453 90.8753 25.0187 90.4971 24.8784 90.3726C23.8584 89.4684 20.0057 84.6174 20.1775 83.8061V83.8061ZM23.117 85.9967C22.258 85.0107 21.0134 84.0365 20.6506 84.0657C20.6312 84.0673 20.6209 84.0715 20.6154 84.0766C20.8125 84.916 24.5704 89.7986 25.2747 90.144C25.3785 89.674 24.1522 87.1844 23.117 85.9967V85.9967Z" fill="#AA5826"/>
<rect x="-0.68779" y="0.106088" width="14.9911" height="31.4971" transform="matrix(-0.797262 -0.603634 -0.578319 0.815811 66.2332 73.0928)" fill="#FFE4BB" stroke="#AA5826"/>
<path d="M59.4485 73.3342C60.9463 71.4937 61.5557 69.5037 61.5616 69.4838C61.6053 69.3388 62.0364 69.3377 61.9925 69.484C61.9664 69.5711 61.3354 71.643 59.7278 73.6169C57.7532 76.0427 55.1232 77.7426 54.5256 77.2901C54.0676 76.9433 54.8681 75.814 55.9762 74.2509C56.4376 73.6001 56.9147 72.927 57.3419 72.2556C58.581 70.3091 59.6066 67.9785 59.6169 67.9551C59.6286 67.9284 59.6429 67.9035 59.6591 67.8806C59.7309 67.7794 60.0782 67.8995 60.0151 68.0436C59.9723 68.141 58.9542 70.455 57.6792 72.458C57.2404 73.1474 56.7355 73.8598 56.2899 74.4885C55.7256 75.2846 54.7807 76.6175 54.8609 76.8171C55.1753 77.0552 57.4614 75.7752 59.4485 73.3342V73.3342Z" fill="#AA5826"/>
<path d="M59.334 76.5567C58.2211 78.0202 57.1017 78.9644 55.9165 79.9646C54.5722 81.0988 53.1741 82.2733 51.7527 84.3046C50.518 86.0603 50.0239 87.7357 49.5462 89.3559C49.2185 90.4678 48.9087 91.518 48.3795 92.5249C47.1834 94.8009 44.8238 96.8335 44.7239 96.9192C44.6071 97.0191 44.4287 96.6328 44.5453 96.5329C44.5686 96.513 46.8856 94.517 48.0065 92.3839C48.4985 91.4477 48.7976 90.4333 49.1143 89.3592C49.5871 87.7557 50.1231 85.9379 51.437 84.0695C51.4526 84.0475 51.4677 84.0258 51.4828 84.0046C52.9578 81.9238 54.3729 80.7298 55.7418 79.5747C56.8924 78.6039 57.9794 77.6867 59.0373 76.2958C61.6923 72.8052 62.3338 70.1267 62.3399 70.1001C62.3734 69.955 62.8164 69.9085 62.783 70.0539C62.7565 70.1691 62.1072 72.91 59.334 76.5567V76.5567Z" fill="#AA5826"/>
<path d="M40.7535 87.4969C40.9281 87.4543 41.1668 87.4631 41.3125 87.7479C41.9786 89.0511 39.3447 92.1869 39.0423 92.5402C38.939 92.6608 38.6715 92.3656 38.7763 92.2414C39.5119 91.3824 41.3269 88.9658 40.8955 88.1213C40.8325 87.998 40.7558 87.9981 40.6892 88.0145C40.0672 88.1669 38.6043 90.254 37.828 91.534C37.7431 91.6725 37.3977 91.4844 37.4806 91.3476C37.5756 91.1913 37.9904 90.5146 38.5185 89.7696C39.2269 88.7697 40.1391 87.6475 40.7535 87.4969V87.4969Z" fill="#AA5826"/>
<path d="M51.5641 93.1295C52.9375 91.192 54.7691 89.4986 55.4565 90.019C55.5431 90.0846 55.2078 90.5576 55.1212 90.4921C54.751 90.2117 53.2853 91.3815 51.8778 93.367C50.9995 94.6061 50.6165 95.9251 51.0416 96.247C51.1282 96.3125 50.7929 96.7856 50.7063 96.72C50.0904 96.2537 50.4672 94.6767 51.5641 93.1295Z" fill="#AA5826"/>
<path d="M50.1683 90.732C50.4401 90.3486 50.7345 89.97 51.0532 89.6021C52.8879 87.4829 54.4343 86.5879 55.7984 85.7984C56.9667 85.1223 57.9755 84.5385 58.9969 83.3266C60.5271 81.5118 61.2071 79.7109 61.9965 77.6241C62.2226 77.0266 62.4564 76.4087 62.7193 75.7679C63.5059 73.8499 64.8553 71.9422 64.9143 71.8589C65.007 71.7285 65.3203 71.9664 65.2278 72.097C65.2276 72.0972 65.2276 72.0972 65.2274 72.0974C65.2066 72.1268 63.8725 74.0159 63.1249 75.8384C62.8658 76.4694 62.6341 77.082 62.4101 77.6745C61.6277 79.7426 60.8882 81.6962 59.2672 83.62C58.1581 84.9362 57.0485 85.5782 55.8737 86.2581C54.4934 87.0568 53.0659 87.883 51.3163 89.9039C48.1116 93.6048 47.4617 98.5844 47.4557 98.634C47.4375 98.7773 46.9832 98.889 47.0008 98.7461C47.0245 98.554 47.5653 94.404 50.1683 90.732V90.732Z" fill="#AA5826"/>
<path d="M45.6291 82.9607C46.835 84.3611 40.8803 92.4598 40.1975 93.3788C40.1019 93.5071 39.7985 93.2537 39.8949 93.1257C42.3554 89.8164 45.9853 84.2462 45.2518 83.3939C45.0766 83.1908 44.43 83.7497 43.6808 84.3971C42.8161 85.1442 41.7401 86.0741 40.5728 86.5845C38.4449 87.5149 36.766 90.3358 36.7496 90.3634C36.6701 90.4977 36.5979 89.8469 36.903 89.4165C37.5953 88.44 38.9351 86.8034 40.5567 86.0944C41.6378 85.6219 42.6698 84.73 43.4992 84.0132C44.4717 83.1729 45.2402 82.5088 45.6291 82.9607V82.9607Z" fill="#AA5826"/>
<path d="M50.7888 92.2394C51.8111 90.7972 52.766 90.1565 53.975 89.3451C54.2562 89.1565 54.5516 88.9582 54.865 88.7378C56.4462 87.6257 57.8543 86.304 57.8683 86.2906C57.9815 86.184 58.1881 86.5447 58.0745 86.652C58.0157 86.7075 56.6147 88.023 54.9893 89.1664C54.6717 89.3896 54.3723 89.5907 54.0869 89.782C52.9423 90.5502 52.0381 91.1569 51.1024 92.4769C48.8199 95.6967 49.7608 98.0231 49.8021 98.1205C49.8482 98.2296 49.4212 98.582 49.3749 98.4732C49.3636 98.4467 48.2727 95.7887 50.7888 92.2394V92.2394Z" fill="#AA5826"/>
<path d="M42.2531 94.7098C42.7612 94.4385 44.1629 93.5768 44.5439 92.8516C44.7764 92.4087 44.8072 92.0496 44.8431 91.6338C44.8902 91.0865 44.9436 90.4666 45.4968 89.6166C46.0654 88.7423 46.4107 88.4909 46.8455 88.1758C47.1343 87.9667 47.4617 87.7293 47.9613 87.2259C49.1816 85.9964 50.523 84.091 52.0574 78.5315C52.753 76.0107 54.2206 73.6626 55.5155 71.5911C55.9034 70.9708 56.2696 70.3848 56.5838 69.8417C57.5486 68.1742 57.8376 66.7222 57.8404 66.7076C57.8511 66.6532 57.875 66.6004 57.9075 66.5545C57.9612 66.4788 58.3164 66.4934 58.2884 66.6383C58.2762 66.7021 57.9761 68.2224 56.9401 70.013C56.6184 70.5689 56.2483 71.161 55.8566 71.7876C54.5918 73.8113 53.1581 76.1052 52.4927 78.5162C50.9093 84.2544 49.4871 86.2579 48.1868 87.5692C47.643 88.117 47.2744 88.3842 46.9781 88.5989C46.5798 88.8872 46.318 89.0768 45.8295 89.8263C45.3854 90.5089 45.3439 90.9902 45.3003 91.4995C45.2617 91.9482 45.2216 92.4125 44.9169 92.993C44.3514 94.0699 42.5172 95.0701 42.3101 95.1804C42.184 95.247 42.127 94.7772 42.2531 94.7098V94.7098Z" fill="#AA5826"/>
<path d="M57.2735 81.5054C56.8971 82.0582 56.3934 82.662 55.9282 83.1214C55.4682 83.5753 54.9946 83.9439 54.5939 84.1595C53.955 84.503 53.7232 84.3377 53.642 84.2083C53.5609 84.0789 53.4866 83.758 53.9025 83.0604C53.9686 82.9494 54.0435 82.8353 54.126 82.719C54.3686 82.3767 54.6769 82.0174 55.02 81.6785C55.4943 81.2105 56.0737 80.7325 56.5695 80.4007C57.2428 79.9498 57.642 79.845 57.7899 80.0799C57.9373 80.314 57.7685 80.7804 57.2735 81.5054V81.5054ZM55.2395 82.0272C54.8284 82.433 54.478 82.8644 54.2531 83.2415C54.0511 83.5803 54.0183 83.7673 54.0455 83.8105C54.0724 83.8538 54.2254 83.8573 54.5354 83.6904C54.8809 83.5046 55.2977 83.1787 55.7088 82.7728C56.1528 82.3345 56.5539 81.8412 56.8521 81.4204C57.1647 80.9796 57.3638 80.6187 57.3802 80.4857C57.1629 80.4705 56.1426 81.1358 55.2395 82.0272V82.0272Z" fill="#AA5826"/>
<path d="M64.0366 71.1709C64.1348 71.045 64.4243 71.3132 64.3274 71.4394C62.5052 73.7793 61.5477 75.9524 60.7023 77.8699C60.0019 79.4585 59.3405 80.9581 58.3028 82.319C56.3809 84.8382 54.537 86.2366 52.665 86.5943C52.5404 86.6181 52.4588 86.5207 52.4829 86.3761C52.4924 86.3189 52.5172 86.2629 52.5514 86.2146C52.6033 86.1413 52.6767 86.0864 52.7518 86.072C54.5028 85.7375 56.1728 84.4614 58.0071 82.0573C58.9829 80.779 59.6251 79.3219 60.3051 77.7796C61.1696 75.8177 62.1486 73.5958 64.0366 71.1709V71.1709Z" fill="#AA5826"/>
<path d="M56.2452 65.4238C56.1773 65.4815 49.4688 71.2279 49.5105 77.4962C49.5557 84.3854 41.3975 93.6779 41.0504 94.0696C40.9452 94.1884 40.6873 93.8794 40.7932 93.7608C40.8763 93.6664 49.0949 84.3094 49.051 77.6829C49.0309 74.6376 50.5063 71.7248 52.1093 69.4636C53.9832 66.8202 56.032 65.0669 56.07 65.0346C56.1871 64.9354 56.3629 65.3244 56.2452 65.4238V65.4238Z" fill="#AA5826"/>
<path d="M45.2943 80.2656C43.0258 83.4658 39.9543 84.9532 39.8247 85.015C39.698 85.0754 39.9052 84.4777 40.0911 84.375C40.9083 83.923 43.2314 82.4956 44.9806 80.0281C46.8409 77.4038 48.7183 72.6837 49.2388 71.3285C49.3275 71.0977 49.8497 70.8545 49.7963 70.9998C49.7049 71.2475 47.5364 77.1028 45.2943 80.2656V80.2656Z" fill="#AA5826"/>
<path d="M51.7935 75.9087C51.6278 75.9418 51.4953 75.8781 51.4199 75.7298C51.1323 75.1635 51.6795 73.2925 52.1851 72.1593C52.4234 71.6252 52.8605 70.8927 53.3564 70.1931C54.1927 69.0134 55.1968 67.9274 55.6989 68.0459C56.0002 68.117 55.8322 68.6713 55.7769 68.8537C55.3755 70.179 52.5827 75.7517 51.7935 75.9087V75.9087ZM52.5813 72.2529C52.0436 73.4577 51.6685 75.024 51.8377 75.357C51.8468 75.3748 51.8545 75.3829 51.8612 75.3861C52.5297 74.8677 55.3881 69.3726 55.4173 68.5676C54.9584 68.6545 53.2288 70.8013 52.5813 72.2529V72.2529Z" fill="#AA5826"/>
<rect x="-0.5" y="-0.5" width="15.3333" height="30.8006" transform="matrix(0 -1 -1 0 47.1106 98.589)" fill="#FFE4BB" stroke="#AA5826"/>
<path d="M43.5268 92.8622C45.8485 93.0231 47.762 92.3551 47.781 92.3483C47.92 92.299 48.1756 92.6578 48.0355 92.7076C47.9521 92.7373 45.962 93.4357 43.4712 93.2621C40.4107 93.0495 37.5295 91.8615 37.5295 91.096C37.5295 90.5091 38.8842 90.5091 40.7591 90.5091C41.5398 90.5091 42.3472 90.5091 43.1236 90.4685C45.3753 90.3511 47.8006 89.8288 47.825 89.8236C47.8528 89.8175 47.8806 89.8147 47.9081 89.8147C48.0295 89.8147 48.141 90.1753 47.9912 90.2078C47.8899 90.2298 45.482 90.7485 43.1651 90.8693C42.3676 90.9109 41.5131 90.9111 40.7591 90.9111C39.8042 90.9111 38.2053 90.9111 38.0969 91.096C38.0969 91.4987 40.447 92.6481 43.5268 92.8622V92.8622Z" fill="#AA5826"/>
<path d="M40.944 94.6711C39.144 94.6082 37.7454 94.233 36.2643 93.8361C34.5845 93.3857 32.8415 92.9142 30.416 92.9297C28.3158 92.9379 26.7161 93.5161 25.1691 94.0754C24.1075 94.4593 23.1047 94.8217 22.006 94.9756C19.5225 95.3235 16.5415 94.5576 16.4156 94.525C16.2686 94.4866 16.4646 94.1096 16.6116 94.1478C16.6408 94.1554 19.5682 94.9075 21.8956 94.5813C22.9172 94.4382 23.8857 94.0881 24.9112 93.7173C26.4423 93.1638 28.1779 92.5364 30.4128 92.5275C30.4392 92.5275 30.465 92.5273 30.4906 92.5273C32.9865 92.5273 34.7547 93.0014 36.4654 93.4601C37.9031 93.8455 39.2614 94.2097 40.9724 94.2696C45.266 94.4201 47.7358 93.372 47.7602 93.3614C47.8933 93.3035 48.1915 93.6454 48.0581 93.7034C47.9526 93.7495 45.4294 94.8279 40.944 94.6711V94.6711Z" fill="#AA5826"/>
<path d="M21.4234 85.6461C21.5598 85.7665 21.694 85.9707 21.5578 86.2605C20.9343 87.5859 16.93 87.2432 16.4755 87.2C16.3203 87.1852 16.3927 86.7876 16.5515 86.8017C17.6568 86.9072 20.6157 86.9922 21.02 86.1335C21.079 86.008 21.0336 85.9441 20.9814 85.8983C20.4948 85.4698 18.0012 85.4837 16.5433 85.593C16.385 85.6041 16.3277 85.2049 16.4835 85.1933C16.6616 85.18 17.435 85.126 18.3286 85.126C19.5277 85.1256 20.9428 85.2228 21.4234 85.6461V85.6461Z" fill="#AA5826"/>
<path d="M23.4162 97.9871C25.7402 97.9871 28.1445 98.5133 28.1445 99.394C28.1445 99.5049 27.5771 99.5049 27.5771 99.394C27.5771 98.9197 25.7978 98.3891 23.4162 98.3891C21.93 98.3891 20.6741 98.8493 20.6741 99.394C20.6741 99.5049 20.1067 99.5049 20.1067 99.394C20.1067 98.6049 21.5603 97.9871 23.4162 97.9871Z" fill="#AA5826"/>
<path d="M24.4626 95.4072C24.9225 95.4072 25.392 95.4289 25.8675 95.4771C28.6059 95.7542 30.2184 96.5145 31.6408 97.1852C32.859 97.7596 33.9109 98.2556 35.4605 98.3909C37.7813 98.594 39.589 98.0966 41.6843 97.5214C42.2843 97.3568 42.9048 97.1866 43.5604 97.027C45.5224 96.5493 47.8089 96.5469 47.9088 96.5469C48.0654 96.5471 48.0648 96.9488 47.9082 96.9488C47.9079 96.9488 47.9079 96.9488 47.9077 96.9488C47.8725 96.9488 45.6095 96.9531 43.7451 97.4069C43.0994 97.5638 42.4843 97.7327 41.8894 97.8961C39.8128 98.466 37.8508 99.004 35.3912 98.7896C33.7084 98.6429 32.5515 98.0972 31.3265 97.5196C29.8873 96.8409 28.3988 96.1391 25.7875 95.8748C21.0047 95.3903 16.7337 97.7913 16.6915 97.8157C16.5689 97.8852 16.2132 97.5725 16.3352 97.5027C16.4991 97.4089 20.058 95.4072 24.4626 95.4072V95.4072Z" fill="#AA5826"/>
<path d="M27.8458 87.03C27.4654 88.8629 17.6247 88.6848 16.5039 88.6587C16.3473 88.6549 16.3657 88.2521 16.5226 88.2569C20.5598 88.3524 27.0529 88.0867 27.2847 86.9715C27.3397 86.7054 26.5213 86.4966 25.5732 86.2546C24.479 85.9752 23.1173 85.6277 22.029 84.9563C20.0452 83.7321 16.8511 83.9996 16.8199 84.0022C16.6681 84.0153 17.1334 83.5705 17.6497 83.5705C18.8211 83.5705 20.8903 83.7203 22.4021 84.6532C23.4097 85.2752 24.7159 85.6085 25.7655 85.8764C26.9962 86.1905 27.9687 86.4387 27.8458 87.03V87.03Z" fill="#AA5826"/>
<path d="M23.6525 96.8153C25.3824 96.8153 26.4468 97.2327 27.7947 97.7611C28.1081 97.8841 28.4375 98.0131 28.7947 98.1442C30.5972 98.8052 32.4611 99.1979 32.4798 99.2017C32.6299 99.2331 32.4704 99.6185 32.3195 99.5872C32.2415 99.5709 30.3867 99.1804 28.5337 98.5011C28.1717 98.3682 27.8378 98.2374 27.5198 98.1126C26.2437 97.6124 25.2358 97.2171 23.6525 97.2171C19.7903 97.2171 18.5305 99.3764 18.4788 99.4684C18.421 99.5713 17.8936 99.4236 17.9512 99.3207C17.9651 99.2956 19.3951 96.8153 23.6525 96.8153V96.8153Z" fill="#AA5826"/>
<path d="M16.6799 91.1593C17.192 91.4226 18.693 92.0818 19.4842 91.9708C19.9673 91.9029 20.2658 91.7164 20.6116 91.5005C21.0666 91.2164 21.5821 90.8946 22.5725 90.8534C23.5909 90.8108 23.9912 90.9501 24.4942 91.1263C24.8281 91.2435 25.2068 91.3761 25.895 91.4951C27.5759 91.7859 29.8559 91.7781 35.1022 89.7717C37.481 88.8619 40.1811 88.6977 42.5633 88.553C43.2768 88.5098 43.9505 88.4688 44.5602 88.4097C46.432 88.2286 47.7361 87.6114 47.7492 87.6052C47.7979 87.5819 47.8533 87.5706 47.9083 87.5706C47.9991 87.5706 48.1977 87.8753 48.068 87.9376C48.011 87.9652 46.647 88.6135 44.6371 88.8081C44.0129 88.8683 43.3321 88.9097 42.6115 88.9536C40.2844 89.095 37.6466 89.2554 35.3714 90.1257C29.9566 92.1967 27.5524 92.1951 25.7603 91.886C25.0113 91.7564 24.585 91.6071 24.2423 91.4869C23.7818 91.3253 23.4791 91.219 22.6054 91.2548C21.8102 91.2879 21.4099 91.5377 20.9866 91.8024C20.6136 92.0353 20.2275 92.2763 19.5943 92.3654C18.4195 92.5304 16.5548 91.5924 16.3463 91.4849C16.2198 91.4192 16.5528 91.094 16.6799 91.1593V91.1593Z" fill="#AA5826"/>
<path d="M35.8634 95.8776C35.2094 95.8905 34.4404 95.8274 33.8069 95.711C33.1808 95.5959 32.6131 95.4188 32.208 95.2122C31.5623 94.8826 31.5544 94.5916 31.6074 94.4475C31.6605 94.3034 31.867 94.0517 32.6574 93.9862C32.783 93.9758 32.9164 93.9708 33.056 93.9708C33.4665 93.9708 33.9292 94.0154 34.3964 94.1012C35.0421 94.22 35.7575 94.4205 36.3096 94.6378C37.0594 94.9326 37.3771 95.2035 37.2812 95.4656C37.1856 95.7269 36.7218 95.8617 35.8634 95.8776V95.8776ZM34.254 94.4903C33.6943 94.3874 33.1504 94.3502 32.7232 94.3856C32.3394 94.4173 32.174 94.5005 32.1564 94.5488C32.1385 94.5968 32.2262 94.7264 32.5396 94.8862C32.8889 95.0645 33.3896 95.2192 33.9493 95.3221C34.5538 95.4333 35.176 95.4761 35.6807 95.4761C36.2095 95.4761 36.6089 95.4288 36.7224 95.3639C36.6058 95.1738 35.4835 94.7164 34.254 94.4903V94.4903Z" fill="#AA5826"/>
<path d="M47.9272 95.4087C48.0835 95.4162 48.0452 95.8161 47.8895 95.8099C44.9862 95.6736 42.724 96.1596 40.7277 96.5881C39.0738 96.943 37.5124 97.2778 35.8369 97.2169C32.7347 97.1036 30.5534 96.3927 29.1679 95.0435C29.0757 94.9537 29.1035 94.8281 29.2306 94.7628C29.2808 94.7369 29.3392 94.7244 29.3971 94.7244C29.4851 94.7244 29.5713 94.7531 29.6269 94.8072C30.9228 96.0693 32.9058 96.7074 35.8664 96.8158C37.4409 96.8738 38.9578 96.5481 40.5635 96.2036C42.6058 95.7649 44.9187 95.2678 47.9272 95.4087V95.4087Z" fill="#AA5826"/>
<path d="M47.8084 85.517C47.7233 85.4945 39.2732 83.2978 34.4051 87.037C29.0544 91.1462 16.9797 89.8366 16.4688 89.7787C16.3139 89.7612 16.4027 89.3635 16.5579 89.3818C16.6807 89.3952 28.8414 90.7171 33.9878 86.7642C36.3529 84.9478 39.4985 84.4564 42.2109 84.4564C45.3817 84.4564 47.961 85.1283 48.0086 85.1409C48.1553 85.1799 47.9556 85.5564 47.8084 85.517V85.517Z" fill="#AA5826"/>
<path d="M29.7518 85.1583C25.9132 85.1583 22.937 83.4767 22.8121 83.4052C22.6901 83.3353 23.2791 83.1548 23.4692 83.249C24.3049 83.6633 26.792 84.7564 29.7518 84.7564C32.8996 84.7564 37.6934 83.532 39.0588 83.165C39.2914 83.1025 39.7899 83.3941 39.6449 83.4355C39.3975 83.5057 33.5456 85.1583 29.7518 85.1583V85.1583Z" fill="#AA5826"/>
<path d="M36.9935 88.0018C36.8698 87.8832 36.8411 87.7351 36.9123 87.5846C37.1844 87.0102 38.9682 86.3606 40.1515 86.1124C40.7092 85.9954 41.5393 85.9269 42.3785 85.9269C43.7935 85.9269 45.2347 86.1222 45.4389 86.6108C45.5615 86.904 45.0296 87.0916 44.8545 87.1533C43.5827 87.6018 37.5824 88.5669 36.9935 88.0018V88.0018ZM40.3126 86.4981C39.0545 86.7617 37.6102 87.3747 37.4502 87.7126C37.4417 87.7307 37.44 87.7419 37.4414 87.7494C38.2411 88.0004 44.2196 87.1358 44.8653 86.6844C44.5263 86.3532 41.8284 86.1799 40.3126 86.4981V86.4981Z" fill="#AA5826"/>
</svg>
