<svg width="61" height="100" viewBox="0 0 61 100" fill="none" xmlns="http://www.w3.org/2000/svg">
<rect x="0.14768" y="0.702541" width="15.0608" height="59.9956" transform="matrix(0.828958 0.559331 -0.533597 0.845752 33.0644 0.0258857)" fill="#FFE4BB" stroke="#AA5826"/>
<path d="M33.4566 11.1357C35.7016 7.28087 38.2045 4.54421 38.2295 4.51714C38.4119 4.31872 38.3811 3.70677 38.1971 3.9067C38.0875 4.02564 35.4814 6.86986 33.0736 11.006C30.1147 16.0876 28.1342 21.4148 28.7582 21.8359C29.2366 22.1586 30.623 19.9612 32.5419 16.9197C33.341 15.6532 34.1673 14.3434 34.9951 13.1062C37.3953 9.51809 40.3032 5.87108 40.3325 5.83437C40.3658 5.79259 40.3966 5.74904 40.4247 5.7044C40.549 5.50743 40.3692 5.12826 40.1894 5.35335C40.0679 5.50559 37.1806 9.12652 34.7108 12.8186C33.8607 14.0893 32.986 15.4754 32.2143 16.6986C31.237 18.2476 29.6005 20.8414 29.3389 20.9155C29.0106 20.6939 30.479 16.2494 33.4566 11.1357V11.1357Z" fill="#AA5826"/>
<path d="M29.3378 14.3314C27.5468 17.286 26.4212 19.7612 25.2289 22.3822C23.8768 25.3548 22.4772 28.4416 19.9821 32.3679C17.8259 35.7703 15.7173 38.0473 13.6782 40.2492C12.2788 41.7602 10.957 43.1877 9.70699 44.8854C6.88169 48.7227 4.45501 53.9798 4.35264 54.202C4.23353 54.4615 4.74149 54.3509 4.86076 54.0915C4.88444 54.0399 7.26755 48.8774 9.91546 45.2813C11.0777 43.7028 12.3543 42.3242 13.7062 40.8645C15.7243 38.6852 18.0121 36.2148 20.3067 32.5941C20.3337 32.5513 20.3603 32.5096 20.3865 32.4682C22.941 28.4193 24.3643 25.29 25.7412 22.2628C26.8985 19.7184 27.9919 17.3147 29.6941 14.5062C33.9659 7.45824 37.348 4.02814 37.3817 3.99443C37.565 3.81042 37.5915 3.13872 37.4077 3.32307C37.2622 3.46896 33.8007 6.96888 29.3378 14.3314V14.3314Z" fill="#AA5826"/>
<path d="M16.7157 50.9609C16.7572 50.6734 16.7281 50.3434 16.3525 50.4049C14.6339 50.6874 10.815 57.3717 10.385 58.1327C10.2383 58.3926 10.6364 58.4939 10.7875 58.2284C11.8327 56.3775 14.7918 51.5308 15.9056 51.3473C16.0682 51.3205 16.0738 51.4293 16.0577 51.5392C15.9091 52.5641 13.3456 56.6017 11.7643 58.9066C11.5933 59.1573 11.86 59.4698 12.0289 59.2235C12.2221 58.9418 13.0576 57.717 13.9722 56.2674C15.1999 54.3223 16.5689 51.9733 16.7157 50.9609V50.9609Z" fill="#AA5826"/>
<path d="M8.69555 40.9406C11.0741 37.1706 13.1059 32.981 12.3881 32.4966C12.2976 32.4356 11.7169 33.356 11.8074 33.417C12.194 33.6779 10.8054 36.8561 8.36791 40.7196C6.84676 43.1306 5.18623 44.9148 4.74227 44.6152C4.65184 44.5542 4.07114 45.4746 4.16157 45.5356C4.80474 45.9696 6.79608 43.9513 8.69555 40.9406Z" fill="#AA5826"/>
<path d="M11.8701 40.6618C12.3407 39.9158 12.8035 39.1422 13.2509 38.3444C15.8277 33.7496 16.8583 30.7156 17.7675 28.0393C18.546 25.7473 19.2183 23.768 20.694 21.18C22.9037 17.3033 25.1593 14.6444 27.7726 11.5617C28.5209 10.6789 29.2947 9.76608 30.0957 8.79031C32.4932 5.87027 34.8354 2.16235 34.9376 2.00036C35.0977 1.74621 34.7696 1.52617 34.6094 1.7802C34.6091 1.78066 34.6091 1.78066 34.6088 1.78112C34.5728 1.83819 32.2532 5.50693 29.9751 8.2818C29.1863 9.2429 28.4193 10.1478 27.6772 11.023C25.0872 14.0782 22.6406 16.9651 20.2981 21.073C18.6953 23.8836 17.9561 26.0604 17.1731 28.3653C16.2534 31.0732 15.302 33.8739 12.8448 38.2554C8.34474 46.2805 2.01634 51.8883 1.95325 51.9435C1.77114 52.1041 1.66195 52.8532 1.84364 52.6937C2.08797 52.4793 7.36208 47.807 11.8701 40.6618V40.6618Z" fill="#AA5826"/>
<path d="M22.1606 39.7814C20.2772 39.3904 10.3507 55.452 9.22479 57.2846C9.06763 57.5407 9.4148 57.7324 9.57143 57.4752C13.6256 50.8735 20.4877 40.4865 21.634 40.7238C21.9072 40.7809 21.2397 42.2235 20.4666 43.8945C19.5745 45.8232 18.464 48.2233 17.8976 50.358C16.865 54.2495 13.3779 59.2838 13.3438 59.333C13.1778 59.572 14.0165 59.0619 14.545 58.2243C15.7438 56.3241 17.7396 52.885 18.5264 49.9195C19.0507 47.9427 20.1159 45.6407 20.9718 43.7906C21.9753 41.6214 22.7683 39.9073 22.1606 39.7814V39.7814Z" fill="#AA5826"/>
<path d="M9.89329 41.2014C11.6638 38.3951 12.413 36.4388 13.3617 33.9618C13.5823 33.3856 13.8142 32.7803 14.073 32.1289C15.3791 28.8412 16.9666 25.6016 16.9826 25.5692C17.1106 25.3085 16.6333 25.3551 16.5043 25.6172C16.4378 25.7527 14.8578 28.9763 13.5149 32.3559C13.2527 33.0162 13.0176 33.6299 12.7939 34.2144C11.8956 36.5595 11.1863 38.4121 9.56581 40.9805C5.61298 47.2457 2.56344 48.1019 2.43556 48.135C2.29245 48.1723 1.8731 49.109 2.01592 49.0722C2.05062 49.0635 5.536 48.1077 9.89329 41.2014V41.2014Z" fill="#AA5826"/>
<path d="M7.36727 55.6242C7.67674 54.6487 8.67565 51.8512 9.57587 50.6287C10.1257 49.8823 10.5832 49.5008 11.1131 49.0585C11.8104 48.4766 12.6003 47.8174 13.6475 46.2335C14.7246 44.6048 15.0207 43.8788 15.3918 42.966C15.6381 42.3599 15.9176 41.6725 16.525 40.4906C18.0082 37.604 20.3482 33.9096 27.3531 26.5025C30.5293 23.1441 33.4267 18.8542 35.9827 15.0694C36.7481 13.9358 37.4711 12.8653 38.1433 11.9088C40.2066 8.972 42.0444 7.1959 42.0629 7.17815C42.1318 7.11182 42.1976 7.02827 42.2539 6.93899C42.3468 6.79173 42.3017 6.30201 42.1183 6.47805C42.0374 6.55541 40.113 8.41149 37.8972 11.565C37.2093 12.5443 36.4787 13.6261 35.7055 14.7709C33.2085 18.4681 30.3781 22.6589 27.3401 25.8711C20.11 33.516 17.6506 37.4171 16.0684 40.4942C15.4076 41.7805 15.0929 42.5543 14.8401 43.1763C14.5006 44.0121 14.2774 44.5616 13.354 45.9594C12.5131 47.2311 11.8998 47.743 11.2508 48.2841C10.6792 48.7612 10.0876 49.255 9.36694 50.2332C8.0301 52.0481 6.88619 55.5889 6.76043 55.9863C6.6845 56.2277 7.29043 55.8663 7.36727 55.6242V55.6242Z" fill="#AA5826"/>
<path d="M23.1548 21.9089C22.475 22.9626 21.7393 24.2449 21.1858 25.3366C20.6389 26.4156 20.2022 27.4338 19.956 28.2046C19.5639 29.4333 19.7929 29.6063 19.9647 29.5995C20.1364 29.5927 20.5529 29.396 21.4153 28.1499C21.5524 27.9518 21.693 27.7383 21.8358 27.5119C22.2559 26.8459 22.6931 26.0708 23.1014 25.2657C23.6654 24.1529 24.2342 22.882 24.6221 21.8669C25.1492 20.4884 25.2535 19.824 24.9418 19.8354C24.631 19.8468 24.0463 20.5251 23.1548 21.9089V21.9089ZM22.6385 25.2827C22.1495 26.2473 21.6232 27.1499 21.1571 27.8235C20.7384 28.4287 20.5013 28.6513 20.444 28.6533C20.3865 28.6558 20.3706 28.4423 20.5612 27.8459C20.7733 27.1814 21.1596 26.284 21.6486 25.3194C22.1767 24.2776 22.7786 23.2448 23.2951 22.4261C23.8363 21.5683 24.2836 20.9463 24.4527 20.7979C24.4883 21.0916 23.7126 23.1638 22.6385 25.2827V25.2827Z" fill="#AA5826"/>
<path d="M35.884 2.59714C36.038 2.33948 35.6728 2.18164 35.5184 2.43772C32.6581 7.2224 29.9467 10.6248 27.5542 13.6276C25.5722 16.1154 23.7012 18.4642 22.036 21.2157C18.9534 26.3104 17.3003 30.2398 16.982 33.2295C16.9609 33.4285 17.0917 33.4525 17.275 33.2822C17.3476 33.215 17.4175 33.1271 17.4768 33.0332C17.5668 32.8905 17.6316 32.7348 17.6445 32.6149C17.942 29.8185 19.4514 26.2507 22.3932 21.3884C23.9573 18.8024 25.7753 16.5208 27.6995 14.1055C30.1474 11.0338 32.9197 7.5551 35.884 2.59714V2.59714Z" fill="#AA5826"/>
<path d="M43.8254 8.23071C43.7566 8.38115 36.8988 23.297 28.8685 29.1376C20.0427 35.5575 8.75199 55.8655 8.27625 56.7261C8.13197 56.987 8.54705 57.0617 8.69097 56.7999C8.80571 56.5933 20.1744 36.1391 28.6637 29.9645C32.565 27.1268 36.1849 22.2943 38.9609 17.8943C42.2062 12.7506 44.2984 8.1969 44.3369 8.11262C44.4552 7.85325 43.9439 7.9702 43.8254 8.23071V8.23071Z" fill="#AA5826"/>
<path d="M25.6372 37.7186C21.7085 43.9457 20.0331 49.6986 19.9637 49.9404C19.8959 50.1768 20.6457 49.3206 20.7634 48.9605C21.2812 47.3769 22.9357 42.741 25.9649 37.9397C29.1866 32.8333 35.0909 25.7301 36.7875 23.717C37.0766 23.374 37.349 22.405 37.1669 22.6174C36.8565 22.9802 29.5201 31.5643 25.6372 37.7186V37.7186Z" fill="#AA5826"/>
<path d="M30.7312 24.4074C30.7013 24.6733 30.7927 24.8012 30.9883 24.7685C31.7349 24.6431 34.0901 22.1066 35.5035 20.3236C36.1697 19.4832 37.0751 18.1743 37.934 16.813C39.3822 14.5175 40.698 12.0722 40.5088 11.4721C40.3952 11.1121 39.6979 11.8718 39.4685 12.1218C37.8012 13.9382 30.8733 23.1412 30.7312 24.4074V24.4074ZM35.3541 19.8501C33.8514 21.7461 31.8736 23.7518 31.4344 23.8256C31.411 23.8294 31.4001 23.826 31.3955 23.8196C32.0094 22.3842 38.833 13.1614 39.8617 12.3622C39.7847 13.0943 37.1647 17.5662 35.3541 19.8501V19.8501Z" fill="#AA5826"/>
<rect x="33.5383" y="38.0001" width="15.1163" height="61.4999" fill="#FFE4BB" stroke="#AA5826"/>
<path d="M39.6362 46.509C39.4783 41.946 40.1335 38.1853 40.1402 38.1479C40.1885 37.8747 39.8367 37.3723 39.7878 37.6478C39.7586 37.8117 39.0737 41.723 39.244 46.6183C39.4525 52.6332 40.6176 58.2958 41.3684 58.2958C41.944 58.2958 41.944 55.6334 41.944 51.9485C41.944 50.4142 41.944 48.8273 41.9838 47.3013C42.0989 42.876 42.6112 38.1094 42.6163 38.0615C42.6222 38.0068 42.625 37.9522 42.625 37.8981C42.625 37.6595 42.2714 37.4404 42.2394 37.7348C42.218 37.9338 41.7092 42.6663 41.5908 47.2199C41.55 48.7872 41.5498 50.4666 41.5498 51.9485C41.5498 53.8253 41.5498 56.9677 41.3684 57.1807C40.9734 57.1807 39.8461 52.5619 39.6362 46.509V46.509Z" fill="#AA5826"/>
<path d="M37.8614 51.5888C37.9231 55.1265 38.2911 57.8753 38.6804 60.7863C39.1221 64.0876 39.5846 67.5132 39.5694 72.2803C39.5613 76.4079 38.9942 79.552 38.4457 82.5923C38.0692 84.6787 37.7138 86.6497 37.5628 88.8091C37.2216 93.6899 37.9728 99.5487 38.0047 99.7963C38.0424 100.085 38.4121 99.6998 38.3747 99.411C38.3672 99.3536 37.6296 93.6002 37.9495 89.026C38.0899 87.0182 38.4332 85.1147 38.7969 83.0991C39.3397 80.09 39.9551 76.6789 39.9638 72.2864C39.9638 72.2346 39.964 72.1838 39.964 72.1337C39.964 67.2283 39.499 63.753 39.0492 60.391C38.6711 57.5653 38.314 54.8957 38.2552 51.533C38.1076 43.0944 39.1355 38.2403 39.146 38.1924C39.2028 37.9309 38.8675 37.3449 38.8105 37.6069C38.7654 37.8144 37.7077 42.7733 37.8614 51.5888V51.5888Z" fill="#AA5826"/>
<path d="M46.7129 89.9511C46.5948 89.683 46.3946 89.4192 46.1103 89.6869C44.8104 90.9124 45.1465 98.7823 45.1888 99.6755C45.2034 99.9805 45.5933 99.8383 45.5795 99.5261C45.476 97.3538 45.3927 91.5385 46.2349 90.744C46.3579 90.628 46.4206 90.7172 46.4655 90.8198C46.8858 91.776 46.8722 96.677 46.7649 99.5422C46.7541 99.8534 47.1456 99.966 47.157 99.6599C47.17 99.3097 47.223 97.7898 47.223 96.0335C47.2234 93.6767 47.128 90.8956 46.7129 89.9511V89.9511Z" fill="#AA5826"/>
<path d="M34.6091 86.0337C34.6091 81.4662 34.093 76.7409 33.2293 76.7409C33.1205 76.7409 33.1205 77.8561 33.2293 77.8561C33.6945 77.8561 34.2149 81.3531 34.2149 86.0337C34.2149 88.9548 33.7635 91.4231 33.2293 91.4231C33.1205 91.4231 33.1205 92.5382 33.2293 92.5382C34.0032 92.5382 34.6091 89.6813 34.6091 86.0337Z" fill="#AA5826"/>
<path d="M37.1393 83.9772C37.1393 83.0734 37.118 82.1507 37.0707 81.2162C36.7989 75.8341 36.0532 72.6649 35.3954 69.8694C34.8321 67.4752 34.3456 65.4078 34.213 62.3624C34.0137 57.801 34.5015 54.2483 35.0657 50.1302C35.2271 48.9509 35.3941 47.7315 35.5506 46.443C36.0191 42.587 36.0215 38.0931 36.0215 37.8968C36.0213 37.589 35.6272 37.5901 35.6272 37.8979C35.6272 37.8985 35.6272 37.8985 35.6272 37.899C35.6272 37.9682 35.6231 42.4158 35.178 46.0801C35.0241 47.3491 34.8585 48.5579 34.6983 49.727C34.1392 53.8084 33.6116 57.6644 33.8219 62.4984C33.9658 65.8059 34.5009 68.0796 35.0674 70.4871C35.7331 73.3156 36.4214 76.2411 36.6806 81.3734C37.1558 90.7733 34.8009 99.1673 34.7771 99.2504C34.7089 99.4912 35.0156 100.19 35.084 99.9507C35.176 99.6284 37.1393 92.6338 37.1393 83.9772V83.9772Z" fill="#AA5826"/>
<path d="M45.3556 77.3282C43.558 78.0759 43.7326 97.4164 43.7582 99.6193C43.762 99.9271 44.157 99.8908 44.1523 99.5825C44.0586 91.6479 44.3192 78.8866 45.413 78.431C45.6739 78.3229 45.8787 79.9314 46.1161 81.7948C46.39 83.9453 46.7309 86.6216 47.3894 88.7603C48.59 92.6593 48.3276 98.9369 48.3251 98.9982C48.3123 99.2965 48.7485 98.3821 48.7485 97.3673C48.7485 95.0652 48.6016 90.9984 47.6866 88.0272C47.0766 86.0467 46.7498 83.4797 46.487 81.4168C46.1789 78.9981 45.9355 77.0868 45.3556 77.3282V77.3282Z" fill="#AA5826"/>
<path d="M35.7587 85.5687C35.7587 82.1688 35.3493 80.0768 34.8311 77.4279C34.7104 76.8118 34.5839 76.1644 34.4554 75.4625C33.8071 71.9198 33.4219 68.2566 33.4182 68.2198C33.3874 67.9249 33.0094 68.2382 33.0401 68.5348C33.0561 68.6882 33.4391 72.3335 34.1053 75.9754C34.2356 76.6869 34.3639 77.3431 34.4863 77.9681C34.9769 80.476 35.3646 82.457 35.3646 85.5687C35.3646 93.1593 33.2469 95.6354 33.1566 95.7369C33.0557 95.8507 33.2006 96.8872 33.3015 96.774C33.3261 96.7467 35.7587 93.936 35.7587 85.5687V85.5687Z" fill="#AA5826"/>
<path d="M41.3059 99.2737C41.0477 98.2673 40.4012 95.3172 40.51 93.7622C40.5766 92.8127 40.7595 92.2261 40.9712 91.5465C41.2499 90.6521 41.5655 89.6391 41.6059 87.6926C41.6477 85.691 41.5111 84.9043 41.3382 83.9157C41.2233 83.2595 41.0932 82.5152 40.9765 81.1625C40.6913 77.859 40.699 73.3779 42.6668 63.067C43.5591 58.3919 43.7201 53.0851 43.862 48.4033C43.9044 47.001 43.9446 45.6768 44.0026 44.4786C44.1802 40.7999 44.7855 38.2368 44.7916 38.2111C44.8145 38.1152 44.8255 38.0065 44.8255 37.8983C44.8255 37.7199 44.5267 37.3296 44.4656 37.5844C44.4386 37.6965 43.8027 40.3772 43.6119 44.3275C43.5528 45.5542 43.5122 46.8923 43.4692 48.3085C43.3304 52.8821 43.1731 58.0663 42.3196 62.5379C40.2884 73.18 40.29 77.9053 40.5932 81.4274C40.7203 82.8993 40.8667 83.7373 40.9846 84.4109C41.1431 85.3158 41.2474 85.9107 41.2123 87.628C41.1798 89.1908 40.9347 89.9775 40.6752 90.8094C40.4467 91.5426 40.2104 92.3014 40.123 93.5459C39.9612 95.8547 40.8811 99.5195 40.9866 99.9293C41.051 100.178 41.37 99.5234 41.3059 99.2737V99.2737Z" fill="#AA5826"/>
<path d="M36.6781 61.5705C36.6655 62.8557 36.7274 64.3672 36.8415 65.6123C36.9545 66.8428 37.1281 67.9585 37.3308 68.7547C37.654 70.0237 37.9394 70.0393 38.0808 69.935C38.2221 69.8307 38.4689 69.4248 38.5331 67.8715C38.5434 67.6245 38.5483 67.3624 38.5483 67.0881C38.5483 66.2813 38.5046 65.372 38.4204 64.4537C38.3039 63.1847 38.1072 61.7785 37.8941 60.6935C37.6049 59.2199 37.3392 58.5954 37.0822 58.7839C36.826 58.9718 36.6937 59.8834 36.6781 61.5705V61.5705ZM38.0388 64.7336C38.1397 65.8336 38.1762 66.9025 38.1415 67.7421C38.1103 68.4965 38.0287 68.8216 37.9814 68.8561C37.9343 68.8913 37.8072 68.719 37.6505 68.1029C37.4756 67.4165 37.3239 66.4324 37.2229 65.3324C37.1139 64.1442 37.072 62.9215 37.072 61.9296C37.072 60.8903 37.1183 60.1053 37.1819 59.8823C37.3684 60.1114 37.817 62.3171 38.0388 64.7336V64.7336Z" fill="#AA5826"/>
<path d="M37.1384 37.8612C37.1311 37.554 36.7388 37.6292 36.745 37.9353C36.8786 43.6414 36.402 48.0873 35.9817 52.0109C35.6336 55.2614 35.3053 58.3302 35.365 61.6231C35.4762 67.72 36.1733 72.0071 37.4965 74.7302C37.5846 74.9114 37.7078 74.8568 37.7719 74.607C37.7973 74.5083 37.8095 74.3934 37.8095 74.2797C37.8095 74.1068 37.7814 73.9373 37.7283 73.8281C36.4905 71.2811 35.8647 67.3838 35.7584 61.5652C35.7014 58.4707 36.021 55.4895 36.3588 52.3337C36.7891 48.3198 37.2766 43.7741 37.1384 37.8612V37.8612Z" fill="#AA5826"/>
<path d="M46.8401 38.0949C46.8621 38.2622 49.0166 54.8696 45.3493 64.4373C41.3192 74.9533 42.6036 98.6846 42.6603 99.6888C42.6775 99.9932 43.0676 99.8187 43.0496 99.5137C43.0364 99.2723 41.74 75.3721 45.6168 65.2574C47.3983 60.6091 47.8802 54.4269 47.8802 49.0961C47.8802 42.8643 47.2213 37.795 47.2089 37.7013C47.1706 37.413 46.8014 37.8056 46.8401 38.0949V38.0949Z" fill="#AA5826"/>
<path d="M47.1912 73.5822C47.1912 81.1265 48.8404 86.9758 48.9106 87.2211C48.9792 87.4609 49.1562 86.3034 49.0637 85.9298C48.6575 84.2873 47.5854 79.3992 47.5854 73.5822C47.5854 67.3955 48.7862 57.974 49.1461 55.2904C49.2074 54.8332 48.9214 53.8536 48.8808 54.1385C48.812 54.6247 47.1912 66.126 47.1912 73.5822V73.5822Z" fill="#AA5826"/>
<path d="M44.4025 59.3494C44.5188 59.5925 44.6641 59.6488 44.8117 59.5088C45.375 58.9741 46.0121 55.4682 46.2555 53.1426C46.3702 52.0465 46.4375 50.4151 46.4375 48.7658C46.4375 45.9847 46.2459 43.1523 45.7667 42.7509C45.4791 42.51 45.2952 43.5554 45.2347 43.8995C44.7947 46.399 43.8482 58.1919 44.4025 59.3494V59.3494ZM45.8773 52.8259C45.6187 55.2987 45.0175 58.1372 44.6861 58.4517C44.6684 58.4684 44.6574 58.4718 44.6501 58.469C44.4039 56.8972 45.2518 45.1473 45.6945 43.8783C46.0194 44.5446 46.1893 49.8469 45.8773 52.8259V52.8259Z" fill="#AA5826"/>
<rect x="33.4514" y="0.500122" width="15.1163" height="61.4999" fill="#FFE4BB" stroke="#AA5826"/>
<path d="M39.5493 9.00903C39.3914 4.44598 40.0466 0.685261 40.0533 0.647905C40.1016 0.374702 39.7498 -0.127654 39.7009 0.147779C39.6717 0.311701 38.9867 4.22296 39.157 9.11831C39.3656 15.1332 40.5307 20.7958 41.2815 20.7958C41.8571 20.7958 41.8571 18.1334 41.8571 14.4485C41.8571 12.9142 41.8571 11.3273 41.8969 9.80131C42.012 5.37599 42.5243 0.609434 42.5294 0.561484C42.5353 0.506844 42.5381 0.452203 42.5381 0.39812C42.5381 0.159486 42.1845 -0.0596332 42.1525 0.234757C42.131 0.433805 41.6223 5.16635 41.5038 9.71991C41.463 11.2872 41.4628 12.9666 41.4628 14.4485C41.4628 16.3253 41.4628 19.4677 41.2815 19.6807C40.8865 19.6807 39.7592 15.0619 39.5493 9.00903V9.00903Z" fill="#AA5826"/>
<path d="M37.7745 14.0859C37.8362 17.6236 38.2042 20.3723 38.5935 23.2833C39.0352 26.5846 39.4976 30.0103 39.4825 34.7774C39.4744 38.905 38.9073 42.049 38.3587 45.0894C37.9823 47.1758 37.6269 49.1467 37.4759 51.3062C37.1347 56.187 37.8859 62.0458 37.9178 62.2934C37.9555 62.5822 38.3252 62.1969 38.2878 61.9081C38.2803 61.8507 37.5427 56.0972 37.8626 51.523C38.003 49.5153 38.3463 47.6118 38.71 45.5962C39.2528 42.5871 39.8682 39.1759 39.8769 34.7835C39.8769 34.7317 39.8771 34.6809 39.8771 34.6307C39.8771 29.7253 39.4121 26.2501 38.9623 22.888C38.5842 20.0623 38.2271 17.3927 38.1683 14.0301C38.0207 5.59149 39.0486 0.737403 39.0591 0.689453C39.1158 0.427958 38.7806 -0.158036 38.7236 0.104016C38.6785 0.311427 37.6208 5.27034 37.7745 14.0859V14.0859Z" fill="#AA5826"/>
<path d="M46.626 52.4508C46.5079 52.1826 46.3077 51.9189 46.0234 52.1865C44.7235 53.412 45.0596 61.2819 45.1019 62.1751C45.1165 62.4801 45.5064 62.3379 45.4926 62.0257C45.3891 59.8535 45.3057 54.0381 46.148 53.2436C46.271 53.1276 46.3337 53.2169 46.3786 53.3194C46.7989 54.2757 46.7853 59.1766 46.678 62.0419C46.6672 62.353 47.0586 62.4656 47.0701 62.1595C47.0831 61.8094 47.1361 60.2895 47.1361 58.5332C47.1365 56.1764 47.0411 53.3953 46.626 52.4508V52.4508Z" fill="#AA5826"/>
<path d="M34.5222 48.5341C34.5222 43.9666 34.0061 39.2413 33.1424 39.2413C33.0336 39.2413 33.0336 40.3564 33.1424 40.3564C33.6076 40.3564 34.1279 43.8534 34.1279 48.5341C34.1279 51.4552 33.6766 53.9235 33.1424 53.9235C33.0336 53.9235 33.0336 55.0386 33.1424 55.0386C33.9163 55.0386 34.5222 52.1817 34.5222 48.5341Z" fill="#AA5826"/>
<path d="M37.0524 46.4772C37.0524 45.5734 37.0311 44.6507 36.9838 43.7162C36.7119 38.3341 35.9663 35.1649 35.3085 32.3694C34.7452 29.9752 34.2587 27.9078 34.1261 24.8624C33.9268 20.301 34.4146 16.7483 34.9788 12.6302C35.1402 11.4509 35.3071 10.2315 35.4636 8.94304C35.9322 5.08697 35.9345 0.593066 35.9345 0.396805C35.9343 0.0890341 35.5403 0.0901486 35.5403 0.39792C35.5403 0.398478 35.5403 0.398477 35.5403 0.399034C35.5403 0.468172 35.5362 4.91581 35.0911 8.58007C34.9372 9.84907 34.7716 11.0579 34.6113 12.227C34.0523 16.3084 33.5247 20.1644 33.735 24.9984C33.8789 28.3059 34.414 30.5796 34.9805 32.9871C35.6462 35.8156 36.3345 38.7411 36.5937 43.8734C37.0689 53.2733 34.714 61.6673 34.6902 61.7504C34.622 61.9912 34.9287 62.6904 34.9971 62.4507C35.0891 62.1284 37.0524 55.1338 37.0524 46.4772V46.4772Z" fill="#AA5826"/>
<path d="M45.2687 39.8283C43.4711 40.576 43.6457 59.9165 43.6713 62.1194C43.6751 62.4272 44.0701 62.391 44.0653 62.0826C43.9717 54.148 44.2323 41.3867 45.3261 40.9312C45.587 40.823 45.7918 42.4315 46.0291 44.2949C46.3031 46.4454 46.6439 49.1217 47.3025 51.2605C48.5031 55.1595 48.2407 61.437 48.2382 61.4983C48.2254 61.7966 48.6616 60.8822 48.6616 59.8675C48.6616 57.5653 48.5147 53.4985 47.5997 50.5273C46.9897 48.5468 46.6629 45.9798 46.4001 43.9169C46.092 41.4982 45.8486 39.5869 45.2687 39.8283V39.8283Z" fill="#AA5826"/>
<path d="M35.6717 48.0689C35.6717 44.6689 35.2623 42.5769 34.7441 39.928C34.6235 39.3119 34.497 38.6646 34.3684 37.9626C33.7201 34.4199 33.335 30.7567 33.3313 30.7199C33.3005 30.425 32.9224 30.7383 32.9532 31.0349C32.9692 31.1883 33.3521 34.8336 34.0184 38.4755C34.1487 39.187 34.277 39.8432 34.3994 40.4683C34.89 42.9761 35.2777 44.9571 35.2777 48.0689C35.2777 55.6595 33.16 58.1356 33.0697 58.237C32.9688 58.3508 33.1136 59.3873 33.2146 59.2741C33.2392 59.2468 35.6717 56.4361 35.6717 48.0689V48.0689Z" fill="#AA5826"/>
<path d="M41.219 61.7738C40.9608 60.7674 40.3143 57.8174 40.4231 56.2623C40.4897 55.3128 40.6726 54.7263 40.8843 54.0466C41.163 53.1523 41.4786 52.1392 41.519 50.1928C41.5608 48.1911 41.4242 47.4044 41.2513 46.4159C41.1364 45.7596 41.0063 45.0153 40.8896 43.6627C40.6044 40.3591 40.6121 35.878 42.5798 25.5671C43.4722 20.892 43.6332 15.5852 43.7751 10.9034C43.8175 9.50114 43.8577 8.17694 43.9157 6.97875C44.0933 3.29999 44.6986 0.736896 44.7047 0.711248C44.7276 0.615348 44.7386 0.506627 44.7386 0.39846C44.7386 0.220042 44.4398 -0.17025 44.3787 0.0845539C44.3517 0.196623 43.7158 2.87736 43.525 6.82765C43.4659 8.05427 43.4252 9.39241 43.3823 10.8086C43.2435 15.3822 43.0862 20.5664 42.2327 25.038C40.2015 35.6801 40.2031 40.4054 40.5062 43.9275C40.6334 45.3994 40.7798 46.2375 40.8977 46.911C41.0562 47.8159 41.1604 48.4108 41.1254 50.1281C41.0928 51.6909 40.8478 52.4776 40.5882 53.3095C40.3598 54.0427 40.1235 54.8015 40.0361 56.046C39.8743 58.3548 40.7942 62.0197 40.8997 62.4295C40.9641 62.6781 41.2831 62.0236 41.219 61.7738V61.7738Z" fill="#AA5826"/>
<path d="M36.5912 24.0705C36.5786 25.3557 36.6405 26.8672 36.7546 28.1123C36.8676 29.3428 37.0412 30.4585 37.2438 31.2547C37.5671 32.5237 37.8525 32.5393 37.9939 32.435C38.1352 32.3307 38.382 31.9248 38.4462 30.3715C38.4565 30.1245 38.4614 29.8624 38.4614 29.5881C38.4614 28.7813 38.4176 27.872 38.3335 26.9537C38.217 25.6847 38.0203 24.2785 37.8072 23.1935C37.518 21.7199 37.2523 21.0954 36.9953 21.2839C36.739 21.4718 36.6068 22.3834 36.5912 24.0705V24.0705ZM37.9519 27.2336C38.0528 28.3336 38.0893 29.4025 38.0546 30.2421C38.0234 30.9965 37.9418 31.3216 37.8945 31.3561C37.8474 31.3913 37.7203 31.219 37.5636 30.6029C37.3887 29.9165 37.2369 28.9324 37.136 27.8324C37.027 26.6442 36.985 25.4215 36.985 24.4296C36.985 23.3903 37.0314 22.6053 37.095 22.3823C37.2815 22.6114 37.7301 24.8171 37.9519 27.2336V27.2336Z" fill="#AA5826"/>
<path d="M37.0515 0.361305C37.0442 0.0540915 36.6519 0.129363 36.658 0.435462C36.7917 6.1415 36.3151 10.5875 35.8948 14.511C35.5467 17.7615 35.2183 20.8303 35.2781 24.1233C35.3892 30.2201 36.0864 34.5072 37.4096 37.2303C37.4977 37.4115 37.6209 37.3569 37.685 37.1071C37.7104 37.0084 37.7226 36.8935 37.7226 36.7798C37.7226 36.607 37.6944 36.4375 37.6414 36.3282C36.4036 33.7813 35.7777 29.8839 35.6715 24.0653C35.6145 20.9708 35.9341 17.9896 36.2719 14.8338C36.7022 10.82 37.1896 6.27419 37.0515 0.361305V0.361305Z" fill="#AA5826"/>
<path d="M46.7532 0.59505C46.7752 0.762317 48.9296 17.3697 45.2624 26.9374C41.2323 37.4535 42.5167 61.1847 42.5734 62.1889C42.5906 62.4933 42.9807 62.3188 42.9627 62.0138C42.9495 61.7724 41.6531 37.8722 45.5299 27.7575C47.3114 23.1092 47.7933 16.927 47.7933 11.5962C47.7933 5.36439 47.1344 0.295088 47.1219 0.201419C47.0837 -0.0868379 46.7145 0.305679 46.7532 0.59505V0.59505Z" fill="#AA5826"/>
<path d="M47.1042 36.0823C47.1042 43.6266 48.7535 49.4759 48.8236 49.7213C48.8922 49.961 49.0692 48.8035 48.9768 48.43C48.5706 46.7874 47.4985 41.8993 47.4985 36.0823C47.4985 29.8957 48.6993 20.4741 49.0592 17.7906C49.1205 17.3334 48.8345 16.3537 48.7939 16.6386C48.7251 17.1248 47.1042 28.6261 47.1042 36.0823V36.0823Z" fill="#AA5826"/>
<path d="M44.3156 21.8494C44.4319 22.0925 44.5771 22.1488 44.7248 22.0088C45.2881 21.4741 45.9252 17.9682 46.1686 15.6426C46.2833 14.5465 46.3505 12.9151 46.3505 11.2658C46.3505 8.48472 46.159 5.65233 45.6798 5.25089C45.3922 5.01003 45.2083 6.05545 45.1478 6.39946C44.7078 8.89899 43.7613 20.6919 44.3156 21.8494V21.8494ZM45.7904 15.3259C45.5317 17.7987 44.9306 20.6372 44.5992 20.9517C44.5815 20.9684 44.5704 20.9718 44.5631 20.969C44.317 19.3972 45.1649 7.64727 45.6076 6.37827C45.9325 7.04455 46.1024 12.3469 45.7904 15.3259V15.3259Z" fill="#AA5826"/>
<rect x="59.9363" y="51.75" width="15.6666" height="59.436" transform="rotate(90 59.9363 51.75)" fill="#FFE4BB" stroke="#AA5826"/>
<path d="M51.7249 58.0731C56.1373 57.9099 59.7738 58.5874 59.81 58.5944C60.0741 58.6443 60.5599 58.2804 60.2936 58.2299C60.1351 58.1997 56.353 57.4914 51.6193 57.6675C45.803 57.8832 40.3274 59.0881 40.3274 59.8645C40.3274 60.4597 42.9018 60.4597 46.465 60.4597C47.9488 60.4597 49.4832 60.4597 50.9588 60.5009C55.238 60.6199 59.8472 61.1497 59.8935 61.155C59.9464 61.1611 59.9992 61.164 60.0515 61.164C60.2823 61.164 60.4941 60.7983 60.2095 60.7653C60.017 60.7431 55.4407 60.2169 51.0375 60.0944C49.522 60.0522 47.8981 60.052 46.465 60.052C44.6503 60.052 41.6116 60.052 41.4057 59.8645C41.4057 59.456 45.872 58.2902 51.7249 58.0731V58.0731Z" fill="#AA5826"/>
<path d="M46.8153 56.2378C43.3944 56.3016 40.7365 56.6822 37.9216 57.0848C34.7293 57.5416 31.4168 58.0198 26.8071 58.0041C22.8158 57.9957 19.7756 57.4093 16.8356 56.842C14.8181 56.4527 12.9122 56.0851 10.8241 55.929C6.10444 55.5761 0.439093 56.353 0.199713 56.386C-0.0795647 56.4249 0.292985 56.8073 0.572262 56.7686C0.627794 56.7609 6.19124 55.9981 10.6144 56.3289C12.5559 56.4741 14.3965 56.8291 16.3455 57.2052C19.2553 57.7666 22.5538 58.403 26.8012 58.412C26.8513 58.412 26.9004 58.4122 26.9489 58.4122C31.6923 58.4122 35.0528 57.9313 38.3038 57.4662C41.0362 57.0752 43.6177 56.7058 46.8692 56.6451C55.0292 56.4924 59.723 57.5554 59.7694 57.5662C60.0222 57.6249 60.5889 57.2782 60.3355 57.2193C60.1349 57.1726 55.3398 56.0788 46.8153 56.2378V56.2378Z" fill="#AA5826"/>
<path d="M9.71728 65.3917C9.97661 65.2696 10.2316 65.0625 9.97283 64.7686C8.78779 63.4242 1.17775 63.7718 0.314037 63.8156C0.0191247 63.8307 0.156607 64.2339 0.458528 64.2196C2.55904 64.1126 8.18233 64.0264 8.95061 64.8974C9.06275 65.0246 8.97649 65.0894 8.87729 65.1359C7.95265 65.5705 3.21356 65.5564 0.442893 65.4455C0.14205 65.4343 0.0331424 65.8392 0.329133 65.851C0.667717 65.8644 2.13743 65.9193 3.83574 65.9193C6.11471 65.9197 8.80396 65.821 9.71728 65.3917V65.3917Z" fill="#AA5826"/>
<path d="M13.5048 52.8744C17.9214 52.8744 22.4907 52.3408 22.4907 51.4475C22.4907 51.335 21.4124 51.335 21.4124 51.4475C21.4124 51.9286 18.0309 52.4668 13.5048 52.4668C10.6802 52.4668 8.29338 52 8.29338 51.4475C8.29338 51.335 7.21509 51.335 7.21509 51.4475C7.21509 52.2478 9.97767 52.8744 13.5048 52.8744Z" fill="#AA5826"/>
<path d="M15.4937 55.4913C16.3676 55.4913 17.2599 55.4693 18.1635 55.4204C23.3679 55.1393 26.4324 54.3682 29.1357 53.688C31.4508 53.1054 33.4499 52.6023 36.3948 52.4651C40.8055 52.259 44.2409 52.7635 48.2231 53.3469C49.3634 53.5139 50.5425 53.6865 51.7884 53.8484C55.5172 54.3329 59.8627 54.3354 60.0525 54.3354C60.3501 54.3352 60.349 53.9277 60.0514 53.9277C60.0508 53.9277 60.0508 53.9277 60.0503 53.9277C59.9835 53.9277 55.6827 53.9234 52.1394 53.4631C50.9123 53.3039 49.7435 53.1327 48.6129 52.967C44.6663 52.3889 40.9376 51.8432 36.2632 52.0607C33.065 52.2095 30.8664 52.7629 28.5383 53.3488C25.8032 54.0371 22.9743 54.749 18.0115 55.017C8.92205 55.5085 0.805209 53.0732 0.724876 53.0485C0.491965 52.978 -0.184124 53.2952 0.0477089 53.3659C0.359335 53.4611 7.12292 55.4913 15.4937 55.4913V55.4913Z" fill="#AA5826"/>
<path d="M21.9231 63.988C21.2001 62.129 2.49819 62.3096 0.368021 62.3361C0.0704125 62.3399 0.105457 62.7484 0.403605 62.7435C8.07619 62.6467 20.4162 62.9162 20.8566 64.0473C20.9612 64.3172 19.4058 64.529 17.604 64.7744C15.5245 65.0577 12.9366 65.4102 10.8684 66.0912C7.09818 67.3328 1.02794 67.0615 0.968629 67.0589C0.680186 67.0456 1.56439 67.4967 2.54563 67.4967C4.77176 67.4967 8.70429 67.3448 11.5774 66.3986C13.4924 65.7677 15.9747 65.4298 17.9695 65.158C20.3083 64.8394 22.1565 64.5877 21.9231 63.988V63.988Z" fill="#AA5826"/>
<path d="M13.9546 54.0632C17.2423 54.0632 19.2652 53.6398 21.8267 53.1039C22.4225 52.9792 23.0484 52.8483 23.7272 52.7154C27.1529 52.045 30.6951 51.6467 30.7307 51.6428C31.0159 51.611 30.7129 51.22 30.4261 51.2518C30.2778 51.2683 26.7529 51.6644 23.2312 52.3534C22.5432 52.4881 21.9086 52.6208 21.3043 52.7474C18.8792 53.2548 16.9636 53.6557 13.9546 53.6557C6.6147 53.6557 4.22036 51.4657 4.12223 51.3723C4.01225 51.2679 3.00998 51.4178 3.11942 51.5221C3.14584 51.5476 5.86367 54.0632 13.9546 54.0632V54.0632Z" fill="#AA5826"/>
<path d="M0.702744 59.8001C1.6759 59.533 4.52852 58.8644 6.0322 58.977C6.95036 59.0459 7.51754 59.235 8.17476 59.4539C9.03955 59.7422 10.0192 60.0685 11.9013 60.1103C13.8369 60.1535 14.5976 60.0123 15.5535 59.8335C16.1881 59.7147 16.9078 59.5801 18.2158 59.4595C21.4102 59.1645 25.7434 59.1724 35.7138 61.2074C40.2345 62.1302 45.3661 62.2967 49.8933 62.4435C51.2493 62.4873 52.5297 62.5289 53.6884 62.5888C57.2456 62.7725 59.7241 63.3985 59.7489 63.4048C59.8416 63.4284 59.9468 63.4399 60.0514 63.4399C60.2239 63.4399 60.6013 63.1308 60.3549 63.0677C60.2465 63.0397 57.6543 62.3821 53.8345 62.1848C52.6483 62.1237 51.3544 62.0817 49.985 62.0372C45.5624 61.8937 40.5494 61.7311 36.2254 60.8484C25.9348 58.7478 21.3655 58.7495 17.9597 59.063C16.5364 59.1945 15.726 59.3459 15.0747 59.4678C14.1997 59.6317 13.6244 59.7395 11.9639 59.7032C10.4527 59.6696 9.69192 59.4162 8.88751 59.1478C8.17854 58.9115 7.44476 58.6671 6.24139 58.5768C4.00878 58.4095 0.464981 59.3608 0.0687088 59.4698C-0.17175 59.5365 0.461207 59.8663 0.702744 59.8001V59.8001Z" fill="#AA5826"/>
<path d="M37.1605 55.0142C35.9178 55.0012 34.4561 55.0652 33.2522 55.1832C32.0623 55.3 30.9835 55.4796 30.2136 55.6892C28.9865 56.0235 28.9714 56.3186 29.0722 56.4648C29.1731 56.6109 29.5656 56.8661 31.0676 56.9326C31.3065 56.9432 31.5599 56.9483 31.8251 56.9483C32.6053 56.9483 33.4846 56.903 34.3726 56.816C35.5997 56.6955 36.9594 56.4921 38.0086 56.2717C39.4335 55.9727 40.0374 55.6979 39.8552 55.4321C39.6735 55.1671 38.792 55.0303 37.1605 55.0142V55.0142ZM34.1019 56.4214C33.0382 56.5257 32.0047 56.5634 31.1927 56.5276C30.4632 56.4954 30.1489 56.411 30.1155 56.362C30.0815 56.3133 30.2481 56.1818 30.8439 56.0198C31.5076 55.839 32.4592 55.682 33.5229 55.5777C34.6718 55.4649 35.8542 55.4215 36.8133 55.4215C37.8183 55.4215 38.5774 55.4694 38.793 55.5353C38.5714 55.7281 36.4386 56.192 34.1019 56.4214V56.4214Z" fill="#AA5826"/>
<path d="M60.0871 55.4901C60.3842 55.4825 60.3114 55.0769 60.0154 55.0832C54.4978 55.2214 50.1987 54.7285 46.4047 54.2939C43.2615 53.934 40.294 53.5944 37.1098 53.6561C31.2143 53.7711 27.0688 54.4921 24.4356 55.8605C24.2604 55.9516 24.3132 56.079 24.5547 56.1452C24.6502 56.1715 24.7612 56.1842 24.8712 56.1842C25.0384 56.1842 25.2023 56.155 25.3079 56.1002C27.7708 54.8201 31.5394 54.1729 37.1659 54.063C40.1582 54.0041 43.041 54.3345 46.0925 54.6839C49.9739 55.1289 54.3695 55.633 60.0871 55.4901V55.4901Z" fill="#AA5826"/>
<path d="M59.8613 65.5228C59.6996 65.5456 43.6406 67.7736 34.3888 63.9812C24.22 59.8134 1.27233 61.1416 0.301333 61.2004C0.00695944 61.2181 0.175712 61.6215 0.470625 61.6029C0.704075 61.5893 23.8151 60.2486 33.5957 64.2578C38.0906 66.1001 44.0686 66.5985 49.2234 66.5985C55.2495 66.5985 60.1514 65.917 60.2419 65.9042C60.5207 65.8647 60.1411 65.4829 59.8613 65.5228V65.5228Z" fill="#AA5826"/>
<path d="M25.5456 65.886C18.2504 65.886 12.5942 67.5915 12.357 67.6641C12.1252 67.735 13.2444 67.9181 13.6057 67.8225C15.194 67.4024 19.9207 66.2937 25.5456 66.2937C31.5279 66.2937 40.6384 67.5355 43.2333 67.9077C43.6754 67.9711 44.6227 67.6753 44.3472 67.6333C43.8771 67.5622 32.7556 65.886 25.5456 65.886V65.886Z" fill="#AA5826"/>
<path d="M39.3083 63.0025C39.0732 63.1228 39.0188 63.273 39.1541 63.4257C39.6711 64.0083 43.0613 64.6671 45.3101 64.9188C46.37 65.0375 47.9476 65.107 49.5424 65.107C52.2316 65.107 54.9705 64.9088 55.3587 64.4133C55.5916 64.1159 54.5807 63.9257 54.248 63.8631C51.831 63.4082 40.4276 62.4293 39.3083 63.0025V63.0025ZM45.6163 64.5277C43.2252 64.2602 40.4804 63.6385 40.1763 63.2958C40.1601 63.2775 40.1569 63.2661 40.1596 63.2585C41.6795 63.0039 53.0414 63.8809 54.2685 64.3387C53.6242 64.6746 48.4969 64.8503 45.6163 64.5277V64.5277Z" fill="#AA5826"/>
</svg>
