<svg width="67" height="100" viewBox="0 0 67 100" fill="none" xmlns="http://www.w3.org/2000/svg">
<rect x="0.176709" y="-0.684923" width="15.4877" height="32.1882" transform="matrix(0.861159 -0.508335 -0.50774 -0.86151 16.5404 98.815)" fill="#FFE4BB" stroke="#AA5826"/>
<path d="M20.2827 92.4267C21.373 94.5968 22.9677 95.9744 22.9837 95.988C23.1002 96.0877 22.9238 96.5016 22.8062 96.4012C22.7361 96.3414 21.0745 94.9105 19.9055 92.5819C18.4687 89.7212 17.9747 86.5211 18.6401 86.1283C19.1503 85.8271 19.8681 87.0451 20.8616 88.7308C21.2753 89.4328 21.7031 90.1587 22.1499 90.836C23.445 92.8002 25.1842 94.7127 25.2017 94.732C25.2217 94.7539 25.2389 94.7775 25.2534 94.8022C25.3178 94.9114 25.0634 95.1966 24.9558 95.0787C24.883 94.9988 23.1561 93.1 21.8234 91.0789C21.3647 90.3832 20.9117 89.6151 20.5122 88.9371C20.0062 88.0785 19.1589 86.641 18.9408 86.6384C18.5907 86.8451 18.8368 89.5479 20.2827 92.4267V92.4267Z" fill="#AA5826"/>
<path d="M17.3411 91.0329C16.442 89.3822 16.0271 87.9322 15.5873 86.3968C15.0887 84.6554 14.575 82.8463 13.2762 80.6735C12.1562 78.7894 10.8059 77.6478 9.49994 76.5439C8.60372 75.7865 7.75732 75.0707 7.04128 74.1619C5.4229 72.1075 4.50909 69.0343 4.47065 68.9043C4.42615 68.7525 4.85778 68.7353 4.90245 68.887C4.9113 68.9172 5.80875 71.9351 7.32558 73.8603C7.9913 74.7054 8.80886 75.3965 9.67463 76.1283C10.9671 77.2209 12.4322 78.4594 13.6242 80.4643C13.6382 80.488 13.652 80.5111 13.6655 80.5341C14.9881 82.7782 15.513 84.6113 16.0207 86.3847C16.4475 87.8751 16.8507 89.2833 17.7053 90.8523C19.8496 94.79 22.0694 96.4728 22.0916 96.4892C22.2124 96.5792 22.0733 97.0227 21.9521 96.9326C21.8562 96.8613 19.5817 95.1462 17.3411 91.0329V91.0329Z" fill="#AA5826"/>
<path d="M14.8427 68.8509C14.8103 69.0353 14.7039 69.2607 14.3798 69.287C12.8972 69.4065 11.0732 65.6304 10.87 65.1996C10.8007 65.0525 11.1846 64.9135 11.2565 65.0636C11.7505 66.1115 13.2445 68.8154 14.2052 68.7382C14.3455 68.7269 14.377 68.6533 14.3892 68.5829C14.5039 67.9256 13.1704 65.6907 12.3029 64.436C12.2094 64.2993 12.526 64.043 12.6186 64.177C12.7246 64.3304 13.1814 64.998 13.6549 65.8014C14.2907 66.8794 14.9559 68.2016 14.8427 68.8509V68.8509Z" fill="#AA5826"/>
<path d="M5.17046 76.9753C6.40194 79.0648 7.21856 81.4965 6.45299 81.9484C6.35655 82.0053 6.0559 81.4952 6.15233 81.4383C6.56465 81.1949 6.08303 79.3228 4.82104 77.1815C4.03348 75.8453 2.9679 74.9522 2.49444 75.2317C2.398 75.2886 2.09735 74.7785 2.19379 74.7216C2.8797 74.3167 4.18703 75.3066 5.17046 76.9753Z" fill="#AA5826"/>
<path d="M7.96764 76.5924C8.21132 77.0059 8.44124 77.4392 8.65126 77.8914C9.86143 80.4958 10.055 82.3357 10.2257 83.9588C10.3719 85.3488 10.4981 86.5491 11.2016 88.0117C12.2548 90.2026 13.6451 91.5727 15.2554 93.1614C15.7164 93.6164 16.1932 94.0869 16.6793 94.5945C18.1342 96.1134 19.348 98.168 19.4009 98.2578C19.4837 98.3987 19.1341 98.6043 19.0512 98.4635C19.051 98.4633 19.051 98.4633 19.0509 98.463C19.0322 98.4314 17.8294 96.3989 16.447 94.9554C15.9684 94.4555 15.4957 93.9891 15.0384 93.5381C13.4426 91.9635 11.9352 90.4755 10.8183 88.154C10.0541 86.5657 9.91541 85.2455 9.76841 83.8478C9.5958 82.2055 9.41713 80.5071 8.26312 78.0236C6.14999 73.4747 1.79957 70.8668 1.75603 70.8413C1.63064 70.7668 1.71398 70.2865 1.83924 70.3603C2.00772 70.4596 5.63367 72.6323 7.96764 76.5924V76.5924Z" fill="#AA5826"/>
<path d="M17.0429 75.3355C15.248 75.934 10.1883 66.9948 9.61703 65.9736C9.53737 65.8309 9.89726 65.6408 9.97619 65.7843C12.0325 69.4632 15.7041 75.1648 16.7964 74.8009C17.0569 74.7139 16.8047 73.8708 16.5127 72.8942C16.1757 71.7671 15.7562 70.3645 15.7633 69.0415C15.7762 66.6296 13.8511 63.8951 13.8323 63.8684C13.7406 63.7386 14.3737 63.9287 14.6473 64.3929C15.268 65.4461 16.2343 67.3834 16.2244 69.2214C16.2177 70.4466 16.6201 71.7919 16.9434 72.8731C17.3225 74.1408 17.622 75.1425 17.0429 75.3355V75.3355Z" fill="#AA5826"/>
<path d="M6.31461 76.5865C7.2313 78.1419 7.43245 79.3131 7.68734 80.796C7.74653 81.141 7.80889 81.5034 7.88424 81.8917C8.2648 83.8516 8.91106 85.7289 8.91766 85.7477C8.96993 85.8987 8.55035 85.9532 8.49764 85.8014C8.47045 85.7229 7.82707 83.8549 7.43566 81.8402C7.35933 81.4466 7.29613 81.0792 7.23611 80.7293C6.99479 79.3253 6.80433 78.2162 5.96536 76.7926C3.91882 73.3202 1.37414 73.2954 1.26676 73.2962C1.14665 73.297 0.995602 72.747 1.11557 72.746C1.14477 72.7456 4.05866 72.7587 6.31461 76.5865V76.5865Z" fill="#AA5826"/>
<path d="M7.53694 67.415C7.57941 68.0105 7.80174 69.6983 8.31744 70.3527C8.63249 70.7523 8.95277 70.9249 9.32365 71.1251C9.81182 71.3884 10.3647 71.6867 10.9253 72.556C11.502 73.4498 11.593 73.8812 11.7063 74.4239C11.7814 74.7842 11.8668 75.1928 12.128 75.8726C12.7659 77.5331 13.9809 79.5791 18.505 83.2665C20.5564 84.9384 22.13 87.2818 23.518 89.3494C23.9337 89.9687 24.3263 90.5534 24.7008 91.0712C25.85 92.6613 27.0776 93.5171 27.0899 93.5256C27.1361 93.5575 27.1752 93.6015 27.2043 93.651C27.2524 93.7326 27.0928 94.0675 26.9699 93.9829C26.9158 93.9458 25.6294 93.0521 24.3952 91.3448C24.0121 90.8146 23.6153 90.2236 23.1954 89.5983C21.8393 87.5786 20.3021 85.2892 18.34 83.6902C13.6704 79.8844 12.3977 77.7219 11.7168 75.9521C11.4327 75.2122 11.3365 74.7522 11.2594 74.3824C11.1559 73.8855 11.0879 73.5588 10.5938 72.7915C10.1436 72.0936 9.71435 71.8619 9.25997 71.6171C8.8598 71.4013 8.44573 71.1778 8.03281 70.6541C7.26687 69.6826 7.09414 67.5247 7.07712 67.2821C7.06721 67.1346 7.52637 67.2672 7.53694 67.415V67.415Z" fill="#AA5826"/>
<path d="M13.6001 87.0842C13.2424 86.5028 12.8898 85.779 12.6552 85.1497C12.4236 84.5277 12.2767 83.9264 12.2416 83.4562C12.186 82.7065 12.4348 82.55 12.5882 82.5238C12.7415 82.4975 13.0697 82.5541 13.5455 83.2311C13.6212 83.3387 13.6962 83.456 13.7701 83.5815C13.9877 83.9506 14.1941 84.3895 14.367 84.8536C14.6059 85.4951 14.8107 86.2413 14.9144 86.8492C15.0554 87.6746 14.9882 88.0993 14.7096 88.1476C14.4318 88.1957 14.0688 87.8478 13.6001 87.0842V87.0842ZM13.9533 84.9253C13.7462 84.3692 13.4903 83.8612 13.2332 83.4952C13.0022 83.1664 12.8422 83.0604 12.791 83.0693C12.7398 83.0779 12.6735 83.2232 12.7007 83.5871C12.7308 83.9925 12.8616 84.5221 13.0688 85.0782C13.2925 85.6787 13.585 86.2601 13.8524 86.7138C14.1326 87.1893 14.3853 87.5242 14.5019 87.5929C14.6054 87.3905 14.4083 86.1467 13.9533 84.9253V84.9253Z" fill="#AA5826"/>
<path d="M20.4006 97.6898C20.4769 97.8342 20.109 98.005 20.0319 97.8617C18.6119 95.1814 16.9907 93.3969 15.5604 91.8219C14.3755 90.517 13.257 89.2849 12.4221 87.7472C10.8768 84.8999 10.3389 82.5739 10.7775 80.6359C10.8068 80.5069 10.9307 80.4674 11.0548 80.5482C11.104 80.58 11.1458 80.6262 11.1764 80.6782C11.223 80.7573 11.2438 80.8496 11.2262 80.9273C10.8157 82.7401 11.3118 84.8504 12.7865 87.5679C13.5703 89.0133 14.6573 90.21 15.8076 91.4769C17.2712 93.088 18.9288 94.9125 20.4006 97.6898V97.6898Z" fill="#AA5826"/>
<path d="M28.9366 92.5071C28.911 92.4191 26.343 83.6944 20.5129 81.2362C14.1055 78.534 8.84557 67.0056 8.62514 66.5165C8.55827 66.3683 8.95107 66.244 9.0174 66.3929C9.07078 66.5103 14.3656 78.1222 20.5289 80.7211C23.3612 81.9155 25.4551 84.4915 26.8924 86.9302C28.5726 89.7811 29.3553 92.4449 29.3696 92.4943C29.4134 92.6461 28.9803 92.6597 28.9366 92.5071V92.5071Z" fill="#AA5826"/>
<path d="M19.6798 76.0886C17.6457 72.6373 17.5304 69.0985 17.5265 68.9496C17.5227 68.804 17.9916 69.2409 18.0104 69.4602C18.0932 70.4241 18.4609 73.2212 20.0292 75.8824C21.6972 78.7126 25.3018 82.3944 26.3443 83.4337C26.5219 83.6108 26.5325 84.2086 26.4197 84.0995C26.2277 83.9131 21.6901 79.4996 19.6798 76.0886V76.0886Z" fill="#AA5826"/>
<path d="M21.0455 84.0587C21.0831 83.8867 21.1966 83.7849 21.3652 83.7717C22.0087 83.7215 23.5186 84.9921 24.3614 85.9286C24.7586 86.37 25.2581 87.0812 25.7027 87.8357C26.4526 89.1079 27.0464 90.5039 26.7299 90.9383C26.54 91.1989 26.0951 90.8169 25.9487 90.6912C24.8848 89.7779 20.8663 84.8782 21.0455 84.0587V84.0587ZM24.1115 86.2714C23.2156 85.2755 21.9174 84.2915 21.539 84.321C21.5187 84.3226 21.508 84.3268 21.5023 84.3319C21.7079 85.1798 25.6275 90.1114 26.362 90.4603C26.4703 89.9855 25.1913 87.4709 24.1115 86.2714V86.2714Z" fill="#AA5826"/>
<rect x="1.75671" y="0.500244" width="15.5844" height="43.8132" fill="#FFE4BB" stroke="#AA5826"/>
<path d="M8.0461 6.45975C7.88363 3.18799 8.55785 0.491501 8.56475 0.464716C8.61445 0.268826 8.25238 -0.0913702 8.20208 0.106119C8.17206 0.223653 7.46721 3.02808 7.64246 6.53811C7.85706 10.8509 9.05602 14.911 9.82862 14.911C10.4209 14.911 10.4209 13.0021 10.4209 10.36C10.4209 9.25978 10.4209 8.12202 10.4619 7.02783C10.5803 3.85481 11.1075 0.437132 11.1128 0.402751C11.1189 0.363573 11.1217 0.324396 11.1217 0.285617C11.1217 0.114513 10.7578 -0.0425983 10.725 0.168483C10.7028 0.311203 10.1793 3.7045 10.0574 6.96947C10.0154 8.09324 10.0152 9.29736 10.0152 10.36C10.0152 11.7056 10.0152 13.9587 9.82862 14.1115C9.42214 14.1115 8.26212 10.7997 8.0461 6.45975V6.45975Z" fill="#AA5826"/>
<path d="M6.21971 10.0999C6.2832 12.6365 6.6619 14.6074 7.0625 16.6946C7.51705 19.0617 7.99291 21.5179 7.97729 24.936C7.96897 27.8955 7.38541 30.1499 6.82092 32.3298C6.4335 33.8258 6.06779 35.239 5.91242 36.7873C5.56131 40.287 6.33432 44.4878 6.36718 44.6653C6.40592 44.8724 6.78644 44.5962 6.7479 44.3891C6.74019 44.3479 5.98118 40.2226 6.31038 36.9429C6.4548 35.5033 6.80814 34.1384 7.18237 32.6932C7.74098 30.5357 8.37424 28.0898 8.38316 24.9404C8.38316 24.9032 8.38336 24.8668 8.38336 24.8309C8.38336 21.3136 7.90487 18.8218 7.442 16.4112C7.05296 14.3851 6.68543 12.471 6.62498 10.0599C6.47306 4.00934 7.53085 0.528896 7.5416 0.494516C7.60001 0.307021 7.25499 -0.113144 7.19637 0.0747501C7.14992 0.223467 6.0615 3.77907 6.21971 10.0999V10.0999Z" fill="#AA5826"/>
<path d="M15.3284 37.6082C15.2069 37.4159 15.0008 37.2268 14.7083 37.4187C13.3706 38.2974 13.7165 43.9402 13.7601 44.5807C13.7751 44.7994 14.1763 44.6974 14.1621 44.4735C14.0556 42.916 13.9698 38.7464 14.8365 38.1767C14.9631 38.0935 15.0276 38.1575 15.0739 38.231C15.5063 38.9167 15.4923 42.4307 15.382 44.4851C15.3708 44.7082 15.7736 44.789 15.7854 44.5695C15.7988 44.3184 15.8534 43.2286 15.8534 41.9693C15.8538 40.2795 15.7556 38.2854 15.3284 37.6082V37.6082Z" fill="#AA5826"/>
<path d="M2.87309 34.7997C2.87309 31.5248 2.34206 28.1367 1.45324 28.1367C1.34127 28.1367 1.34127 28.9362 1.45324 28.9362C1.93193 28.9362 2.46742 31.4436 2.46742 34.7997C2.46742 36.8941 2.00292 38.6639 1.45324 38.6639C1.34127 38.6639 1.34127 39.4635 1.45324 39.4635C2.24957 39.4635 2.87309 37.4151 2.87309 34.7997Z" fill="#AA5826"/>
<path d="M5.47674 33.3249C5.47674 32.6769 5.45484 32.0153 5.40616 31.3452C5.12645 27.4862 4.35912 25.2139 3.68226 23.2094C3.10255 21.4928 2.60195 20.0104 2.46544 17.8268C2.26038 14.5563 2.7624 12.0089 3.34291 9.05614C3.50903 8.21062 3.68084 7.33631 3.84189 6.41243C4.32403 3.64758 4.32646 0.425387 4.32646 0.284666C4.32626 0.0639893 3.92079 0.0647885 3.92079 0.285465C3.92079 0.285864 3.92079 0.285864 3.92079 0.286264C3.92079 0.335836 3.91653 3.52485 3.45853 6.15217C3.30011 7.06206 3.12973 7.92878 2.96483 8.76711C2.38958 11.6935 1.84659 14.4583 2.06302 17.9244C2.21109 20.2958 2.76179 21.9261 3.34474 23.6524C4.02971 25.6804 4.73802 27.778 5.00475 31.458C5.49378 38.1978 3.0705 44.2164 3.04596 44.276C2.97578 44.4487 3.29139 44.95 3.36178 44.7781C3.4565 44.547 5.47674 39.5318 5.47674 33.3249V33.3249Z" fill="#AA5826"/>
<path d="M13.9317 28.5576C12.0818 29.0937 12.2615 42.9612 12.2879 44.5407C12.2917 44.7614 12.6982 44.7354 12.6933 44.5143C12.597 38.8251 12.8651 29.675 13.9907 29.3484C14.2592 29.2708 14.47 30.4242 14.7142 31.7602C14.9961 33.3022 15.3468 35.2211 16.0245 36.7546C17.26 39.5503 16.99 44.0514 16.9874 44.0953C16.9742 44.3092 17.4231 43.6536 17.4231 42.926C17.4231 41.2753 17.272 38.3593 16.3304 36.2289C15.7026 34.8089 15.3663 32.9684 15.0959 31.4892C14.7789 29.755 14.5284 28.3845 13.9317 28.5576V28.5576Z" fill="#AA5826"/>
<path d="M4.05605 34.4662C4.05605 32.0284 3.63476 30.5284 3.10151 28.6291C2.97737 28.1874 2.84715 27.7232 2.7149 27.2199C2.04778 24.6797 1.65144 22.0532 1.64758 22.0268C1.61594 21.8153 1.2269 22.04 1.25854 22.2527C1.27497 22.3626 1.66908 24.9764 2.35467 27.5877C2.48874 28.0978 2.62079 28.5683 2.74675 29.0165C3.25161 30.8147 3.65058 32.2351 3.65058 34.4662C3.65058 39.9088 1.47132 41.6842 1.37842 41.7569C1.27457 41.8385 1.42365 42.5817 1.5275 42.5005C1.55286 42.4809 4.05605 40.4657 4.05605 34.4662V34.4662Z" fill="#AA5826"/>
<path d="M9.76428 44.2924C9.49856 43.5708 8.83326 41.4556 8.94523 40.3406C9.01379 39.6598 9.20202 39.2392 9.41986 38.7519C9.70667 38.1107 10.0314 37.3843 10.073 35.9886C10.116 34.5535 9.97543 33.9894 9.79754 33.2806C9.67929 32.81 9.54542 32.2763 9.42534 31.3065C9.13184 28.9378 9.13975 25.7248 11.1647 18.3318C12.0829 14.9796 12.2486 11.1746 12.3947 7.81766C12.4383 6.81222 12.4796 5.86275 12.5393 5.00364C12.722 2.36592 13.3449 0.528146 13.3512 0.509756C13.3748 0.440995 13.3861 0.363039 13.3861 0.285483C13.3861 0.157555 13.0786 -0.12229 13.0157 0.0604079C12.9879 0.140763 12.3336 2.06288 12.1373 4.8953C12.0764 5.7748 12.0346 6.73426 11.9904 7.74969C11.8476 11.0291 11.6857 14.7462 10.8075 17.9524C8.71724 25.5829 8.71886 28.971 9.03082 31.4964C9.16165 32.5518 9.31236 33.1526 9.43366 33.6356C9.59674 34.2844 9.70404 34.711 9.66793 35.9423C9.63446 37.0628 9.38234 37.6269 9.1152 38.2234C8.88012 38.7491 8.63692 39.2932 8.54706 40.1855C8.38053 41.841 9.32717 44.4687 9.43568 44.7625C9.50201 44.9408 9.8302 44.4715 9.76428 44.2924V44.2924Z" fill="#AA5826"/>
<path d="M5.00227 17.2591C4.98929 18.1806 5.05298 19.2644 5.17042 20.1571C5.28665 21.0394 5.46535 21.8394 5.67386 22.4102C6.00651 23.3201 6.30022 23.3313 6.44565 23.2566C6.59109 23.1818 6.84504 22.8908 6.91116 21.777C6.92171 21.5999 6.92678 21.412 6.92678 21.2153C6.92678 20.6368 6.88175 19.9848 6.79514 19.3264C6.67526 18.4165 6.47283 17.4083 6.25357 16.6303C5.95601 15.5737 5.68258 15.1259 5.41809 15.2611C5.1544 15.3958 5.0183 16.0494 5.00227 17.2591V17.2591ZM6.40245 19.5271C6.5063 20.3158 6.54382 21.0822 6.50813 21.6843C6.47608 22.2251 6.3921 22.4582 6.34342 22.483C6.29495 22.5082 6.16412 22.3847 6.00286 21.9429C5.82295 21.4508 5.66676 20.7452 5.56291 19.9564C5.45074 19.1045 5.40754 18.2278 5.40754 17.5166C5.40754 16.7714 5.45521 16.2085 5.52072 16.0486C5.7126 16.2129 6.17426 17.7944 6.40245 19.5271V19.5271Z" fill="#AA5826"/>
<path d="M5.47562 0.259182C5.46812 0.0389051 5.06447 0.0928761 5.07076 0.312353C5.20828 4.40366 4.71783 7.59147 4.28538 10.4047C3.92717 12.7354 3.58925 14.9357 3.65071 17.2968C3.76511 21.6684 4.48254 24.7422 5.84417 26.6948C5.93484 26.8247 6.06162 26.7855 6.12754 26.6064C6.1537 26.5356 6.16628 26.4533 6.16628 26.3717C6.16628 26.2478 6.13727 26.1263 6.08271 26.0479C4.8089 24.2217 4.1649 21.4273 4.05557 17.2552C3.99695 15.0365 4.32575 12.8989 4.67341 10.6362C5.1162 7.75817 5.61781 4.4988 5.47562 0.259182V0.259182Z" fill="#AA5826"/>
<path d="M15.4591 0.426681C15.4818 0.546614 17.6988 12.4543 13.9251 19.3145C9.7779 26.8547 11.0996 43.8703 11.158 44.5903C11.1756 44.8086 11.5771 44.6835 11.5586 44.4648C11.545 44.2917 10.211 27.1549 14.2003 19.9026C16.0336 16.5696 16.5295 12.1369 16.5295 8.31466C16.5295 3.84636 15.8514 0.211604 15.8386 0.144442C15.7993 -0.0622422 15.4194 0.219197 15.4591 0.426681V0.426681Z" fill="#AA5826"/>
<path d="M15.8204 25.8714C15.8204 31.2808 17.5176 35.4748 17.5898 35.6507C17.6604 35.8226 17.8425 34.9927 17.7474 34.7248C17.3293 33.5471 16.2261 30.0423 16.2261 25.8714C16.2261 21.4355 17.4618 14.6801 17.8322 12.756C17.8952 12.4282 17.6009 11.7257 17.5591 11.93C17.4884 12.2786 15.8204 20.5252 15.8204 25.8714V25.8714Z" fill="#AA5826"/>
<path d="M12.951 15.6664C13.0707 15.8407 13.2202 15.8811 13.3721 15.7807C13.9518 15.3974 14.6073 12.8836 14.8578 11.2161C14.9759 10.4301 15.0451 9.2604 15.0451 8.07786C15.0451 6.08378 14.8479 4.05292 14.3548 3.76508C14.0589 3.59238 13.8696 4.34196 13.8074 4.58862C13.3546 6.38081 12.3806 14.8365 12.951 15.6664V15.6664ZM14.4686 10.989C14.2025 12.762 13.5838 14.7973 13.2429 15.0228C13.2246 15.0348 13.2133 15.0372 13.2058 15.0352C12.9524 13.9082 13.825 5.48332 14.2806 4.57343C14.6148 5.05116 14.7897 8.85303 14.4686 10.989V10.989Z" fill="#AA5826"/>
<rect x="-0.653825" y="0.268761" width="15.4863" height="41.4375" transform="matrix(-0.922737 -0.385431 -0.384913 0.922953 65.3274 60.5191)" fill="#FFE4BB" stroke="#AA5826"/>
<path d="M57.8612 63.7788C59.2037 60.9818 59.5644 58.3652 59.5678 58.3391C59.5933 58.1487 60.0588 57.9735 60.0332 58.1655C60.0181 58.2798 59.6463 61.0026 58.2051 64.0029C56.4351 67.6896 53.8487 70.7761 53.1357 70.4783C52.5891 70.25 53.2849 68.5815 54.248 66.2723C54.649 65.3107 55.0637 64.3162 55.4247 63.3441C56.472 60.5252 57.2313 57.3348 57.239 57.3027C57.2476 57.2661 57.2593 57.2308 57.2734 57.1969C57.3358 57.0474 57.7289 57.0503 57.6823 57.2475C57.6506 57.3807 56.8969 60.5484 55.8193 63.449C55.4484 64.4474 55.0097 65.4999 54.6223 66.4286C54.1319 67.6048 53.3106 69.5741 53.4271 69.7795C53.8022 69.9362 56.0799 67.4888 57.8612 63.7788V63.7788Z" fill="#AA5826"/>
<path d="M58.2193 67.6642C57.2361 69.8568 56.1683 71.4334 55.0378 73.1033C53.7555 74.9969 52.421 76.9603 51.1895 79.9538C50.1184 82.5437 49.8352 84.739 49.5615 86.8619C49.3738 88.3188 49.1961 89.6949 48.7752 91.1081C47.8235 94.3022 45.5789 97.6759 45.4839 97.8183C45.3727 97.9844 45.1222 97.5963 45.2332 97.4301C45.2554 97.3971 47.4595 94.0841 48.3512 91.0906C48.7427 89.7767 48.9141 88.4476 49.0955 87.0402C49.3665 84.9391 49.6736 82.5573 50.8133 79.8012C50.8269 79.7687 50.84 79.7368 50.8531 79.7054C52.1351 76.6312 53.485 74.6378 54.7908 72.7092C55.8884 71.0884 56.9253 69.5571 57.8599 67.473C60.2056 62.2432 60.4981 58.7935 60.5007 58.7593C60.5151 58.5729 60.9867 58.3387 60.9723 58.5255C60.9609 58.6734 60.6693 62.2006 58.2193 67.6642V67.6642Z" fill="#AA5826"/>
<path d="M39.787 88.1956C39.9692 88.0744 40.2283 87.9885 40.4283 88.269C41.3425 89.5527 38.9665 94.3513 38.6928 94.8943C38.5992 95.0796 38.2661 94.8359 38.3608 94.6457C39.0268 93.3254 40.6259 89.7141 40.0337 88.8821C39.9472 88.7606 39.8643 88.7916 39.7949 88.8381C39.1459 89.2707 37.8779 92.3474 37.2309 94.1856C37.1598 94.3848 36.7587 94.3001 36.8278 94.1038C36.907 93.8792 37.2538 92.9057 37.7129 91.805C38.3284 90.3279 39.1459 88.6228 39.787 88.1956V88.1956Z" fill="#AA5826"/>
<path d="M52.305 90.5425C53.4987 87.6801 55.2238 84.9236 56.044 85.2662C56.1473 85.3093 55.8559 86.0082 55.7526 85.965C55.3108 85.7805 53.9027 87.7656 52.6794 90.6989C51.9159 92.5295 51.6995 94.2554 52.2067 94.4673C52.3101 94.5104 52.0186 95.2093 51.9153 95.1661C51.1804 94.8591 51.3517 92.8284 52.305 90.5425Z" fill="#AA5826"/>
<path d="M50.4394 88.2498C50.6756 87.6834 50.937 87.1136 51.2261 86.5467C52.8909 83.2817 54.4273 81.5914 55.7826 80.1003C56.9433 78.8234 57.9456 77.7208 58.8675 75.8649C60.2489 73.0854 60.7141 70.6654 61.2547 67.8609C61.4096 67.0578 61.5697 66.2274 61.7579 65.3579C62.3207 62.7555 63.493 59.9382 63.5443 59.8153C63.6249 59.6225 63.9988 59.7795 63.9184 59.9723C63.9182 59.9727 63.9182 59.9727 63.9181 59.973C63.9 60.0164 62.7415 62.8053 62.2065 65.2782C62.0211 66.1345 61.8624 66.9577 61.709 67.754C61.1732 70.5334 60.6664 73.1593 59.2033 76.1053C58.2022 78.1209 57.0998 79.3335 55.9326 80.6176C54.5612 82.1261 53.143 83.6865 51.5555 86.8C48.6474 92.5023 48.6899 98.6968 48.6909 98.7583C48.6927 98.9363 48.2187 99.2528 48.2164 99.0754C48.2132 98.837 48.1769 93.6748 50.4394 88.2498V88.2498Z" fill="#AA5826"/>
<path d="M44.3748 80.8237C45.8865 82.0054 40.6659 94.0565 40.0658 95.4269C39.9818 95.6183 39.6162 95.4389 39.7013 95.2476C41.8639 90.3122 44.9517 82.2115 44.0321 81.4921C43.8125 81.3208 43.1976 82.2476 42.4853 83.3212C41.663 84.5602 40.6399 86.1022 39.4556 87.1814C37.2964 89.1486 35.9049 93.1867 35.8913 93.2261C35.8255 93.4181 35.6502 92.6721 35.9154 92.0361C36.5171 90.5934 37.7194 88.103 39.3649 86.604C40.4618 85.6048 41.4431 84.1258 42.2318 82.9372C43.1565 81.5436 43.8872 80.4424 44.3748 80.8237V80.8237Z" fill="#AA5826"/>
<path d="M51.3348 89.7951C52.2234 87.6644 53.1589 86.5158 54.3433 85.0613C54.6189 84.723 54.9083 84.3675 55.2138 83.9786C56.7553 82.0156 58.0785 79.8727 58.0917 79.8512C58.198 79.6785 58.4751 80.0248 58.3684 80.1985C58.3131 80.2883 56.9967 82.4208 55.4122 84.4389C55.1025 84.8331 54.8091 85.1935 54.5295 85.5366C53.4082 86.9136 52.5222 88.0013 51.7089 89.9514C49.7251 94.7083 51.0891 97.1001 51.1483 97.1995C51.2144 97.3108 50.8059 97.9029 50.7397 97.7919C50.7234 97.7651 49.1479 95.0387 51.3348 89.7951V89.7951Z" fill="#AA5826"/>
<path d="M42.4848 96.1832C42.993 95.6549 44.378 94.0626 44.6811 93.045C44.866 92.4235 44.8456 91.9834 44.8222 91.4734C44.7912 90.8024 44.7563 90.0424 45.2266 88.8065C45.7101 87.5356 46.0454 87.0967 46.468 86.5458C46.7486 86.1801 47.0667 85.7652 47.531 84.9639C48.6653 83.0067 49.8291 80.1954 50.6553 72.9532C51.0298 69.6694 52.2638 66.2798 53.3526 63.2895C53.6789 62.3939 53.9868 61.5481 54.2449 60.7742C55.0377 58.3983 55.1328 56.552 55.1337 56.5335C55.137 56.4643 55.1549 56.3918 55.1832 56.324C55.2298 56.2122 55.6156 56.0861 55.6071 56.27C55.6034 56.351 55.5066 58.2832 54.6554 60.8345C54.391 61.6267 54.0798 62.4814 53.7505 63.3859C52.6869 66.3072 51.4814 69.6184 51.1232 72.7593C50.2708 80.2343 49.0343 83.1949 47.8259 85.2819C47.3204 86.1539 46.9623 86.621 46.6744 86.9963C46.2874 87.5006 46.0329 87.832 45.6174 88.9221C45.2398 89.9144 45.2668 90.5047 45.296 91.129C45.3213 91.6791 45.3474 92.2484 45.1051 93.0629C44.6553 94.574 42.8239 96.5058 42.6166 96.7208C42.4904 96.851 42.3587 96.3143 42.4848 96.1832V96.1832Z" fill="#AA5826"/>
<path d="M56.7336 74.3909C56.4097 75.2013 55.9558 76.124 55.522 76.859C55.0932 77.5853 54.6367 78.2156 54.2362 78.6342C53.5975 79.3012 53.3224 79.1978 53.2154 79.0764C53.1085 78.955 52.9802 78.6027 53.3252 77.6038C53.38 77.4449 53.4438 77.2787 53.5155 77.1068C53.7263 76.6012 54.0056 76.0487 54.3255 75.5066C54.7678 74.7575 55.3221 73.9543 55.808 73.3589C56.4678 72.5501 56.8833 72.2642 57.0781 72.4842C57.2724 72.7036 57.1597 73.3274 56.7336 74.3909V74.3909ZM54.6147 75.8334C54.2314 76.4827 53.9174 77.1381 53.7309 77.6781C53.5633 78.1632 53.5559 78.3992 53.5917 78.4397C53.6273 78.4804 53.7931 78.4228 54.1029 78.0989C54.4483 77.7381 54.8496 77.1816 55.233 76.5323C55.647 75.8309 56.0065 75.0813 56.2657 74.4597C56.5373 73.8084 56.6985 73.298 56.6964 73.133C56.4594 73.2026 55.4569 74.407 54.6147 75.8334V75.8334Z" fill="#AA5826"/>
<path d="M62.4932 59.3499C62.5804 59.1602 62.9332 59.363 62.8474 59.5524C61.2292 63.0753 60.5199 66.0506 59.8935 68.6761C59.3745 70.8512 58.8843 72.9047 57.967 74.9446C56.2679 78.7214 54.4854 81.1314 52.5171 82.3131C52.3861 82.3917 52.2834 82.3086 52.2878 82.1267C52.2895 82.0547 52.3079 81.9779 52.3376 81.9066C52.3828 81.7983 52.4539 81.7033 52.5328 81.6558C54.374 80.5507 55.9869 78.3565 57.6085 74.7522C58.4713 72.8356 58.9471 70.8405 59.451 68.7288C60.0915 66.0427 60.8166 63.0006 62.4932 59.3499V59.3499Z" fill="#AA5826"/>
<path d="M53.2193 55.6479C53.1546 55.744 46.7682 65.297 47.7502 72.7477C48.829 80.9366 41.4069 95.2992 41.0906 95.906C40.9947 96.0899 40.6699 95.8258 40.7667 95.6418C40.8423 95.4958 48.3199 81.0321 47.2818 73.1555C46.8049 69.5358 47.963 65.4704 49.3563 62.1296C50.985 58.2242 52.9356 55.3087 52.9719 55.255C53.0836 55.0895 53.3316 55.4819 53.2193 55.6479V55.6479Z" fill="#AA5826"/>
<path d="M43.6107 77.7481C41.6389 82.4761 38.544 85.4876 38.4132 85.6135C38.2854 85.7365 38.4199 84.9409 38.6053 84.7435C39.4204 83.8752 41.716 81.2372 43.2363 77.5918C44.8532 73.7147 46.1753 67.334 46.5349 65.5095C46.5961 65.1986 47.1238 64.6982 47.0879 64.8928C47.0261 65.2248 45.5594 73.0754 43.6107 77.7481V77.7481Z" fill="#AA5826"/>
<path d="M49.9787 69.935C49.8047 70.0412 49.652 70.0189 49.5484 69.8726C49.1532 69.3141 49.4645 66.8643 49.8411 65.3103C50.0186 64.5778 50.3812 63.5288 50.8122 62.4952C51.5391 60.7524 52.4613 59.0533 53.0213 58.9918C53.3573 58.955 53.2587 59.6831 53.2263 59.9227C52.9908 61.6636 50.8076 69.4295 49.9787 69.935V69.935ZM50.2831 65.2619C49.8824 66.9141 49.7114 68.9314 49.9439 69.2599C49.9564 69.2775 49.966 69.2839 49.9737 69.2851C50.6182 68.3977 52.8839 60.6978 52.7951 59.727C52.3125 60.0157 50.7654 63.2712 50.2831 65.2619V65.2619Z" fill="#AA5826"/>
<rect x="-0.5" y="-0.5" width="15.4974" height="32.1688" transform="matrix(0 -1 -1 0 49.181 99.0002)" fill="#FFE4BB" stroke="#AA5826"/>
<path d="M45.3999 93.2056C47.8215 93.3682 49.8173 92.6935 49.8372 92.6866C49.9821 92.6368 50.2487 92.9992 50.1026 93.0495C50.0156 93.0796 47.9399 93.785 45.3419 93.6096C42.1498 93.3948 39.1447 92.1949 39.1447 91.4217C39.1447 90.829 40.5576 90.829 42.5131 90.829C43.3274 90.829 44.1696 90.829 44.9794 90.788C47.328 90.6694 49.8576 90.1418 49.883 90.1365C49.912 90.1305 49.941 90.1276 49.9697 90.1276C50.0964 90.1276 50.2126 90.4918 50.0564 90.5247C49.9508 90.5468 47.4392 91.0707 45.0226 91.1927C44.1909 91.2347 43.2996 91.235 42.5131 91.235C41.5171 91.235 39.8495 91.235 39.7364 91.4217C39.7364 91.8285 42.1876 92.9894 45.3999 93.2056V93.2056Z" fill="#AA5826"/>
<path d="M42.706 95.033C40.8286 94.9695 39.3698 94.5905 37.8249 94.1896C36.0729 93.7347 34.2549 93.2584 31.725 93.2741C29.5345 93.2824 27.866 93.8664 26.2524 94.4313C25.1452 94.8191 24.0992 95.1851 22.9532 95.3406C20.3629 95.6919 17.2536 94.9183 17.1223 94.8854C16.969 94.8467 17.1735 94.4659 17.3267 94.5044C17.3572 94.5121 20.4106 95.2717 22.8381 94.9423C23.9036 94.7978 24.9138 94.4441 25.9835 94.0696C27.5804 93.5106 29.3907 92.8768 31.7218 92.8679C31.7493 92.8679 31.7762 92.8677 31.8028 92.8677C34.4061 92.8677 36.2505 93.3465 38.0347 93.8098C39.5343 94.1991 40.9511 94.5669 42.7356 94.6274C47.214 94.7795 49.7901 93.7209 49.8155 93.7101C49.9543 93.6516 50.2653 93.9969 50.1262 94.0556C50.0161 94.1021 47.3844 95.1914 42.706 95.033V95.033Z" fill="#AA5826"/>
<path d="M22.3456 85.9175C22.488 86.0391 22.6279 86.2453 22.4859 86.538C21.8355 87.8768 17.6589 87.5307 17.1849 87.487C17.0231 87.472 17.0985 87.0705 17.2642 87.0847C18.417 87.1913 21.5032 87.2771 21.9249 86.4097C21.9864 86.2831 21.9391 86.2185 21.8846 86.1722C21.3772 85.7395 18.7762 85.7535 17.2556 85.8639C17.0905 85.8751 17.0307 85.4719 17.1932 85.4601C17.379 85.4467 18.1856 85.3921 19.1177 85.3921C20.3685 85.3917 21.8444 85.49 22.3456 85.9175V85.9175Z" fill="#AA5826"/>
<path d="M24.424 98.3826C26.848 98.3826 29.3557 98.914 29.3557 99.8035C29.3557 99.9156 28.7639 99.9156 28.7639 99.8035C28.7639 99.3245 26.908 98.7886 24.424 98.7886C22.8738 98.7886 21.5638 99.2534 21.5638 99.8035C21.5638 99.9156 20.972 99.9156 20.972 99.8035C20.972 99.0066 22.4882 98.3826 24.424 98.3826Z" fill="#AA5826"/>
<path d="M25.5155 95.7768C25.9952 95.7768 26.4849 95.7987 26.9808 95.8474C29.8371 96.1273 31.519 96.8953 33.0026 97.5727C34.2732 98.1528 35.3703 98.6538 36.9865 98.7904C39.4073 98.9957 41.2927 98.4932 43.4782 97.9123C44.104 97.746 44.7511 97.5741 45.435 97.4129C47.4814 96.9304 49.8663 96.9279 49.9704 96.9279C50.1338 96.9281 50.1332 97.3339 49.9699 97.3339C49.9696 97.3339 49.9696 97.3339 49.9693 97.3339C49.9326 97.3339 47.5722 97.3382 45.6276 97.7966C44.9541 97.9551 44.3126 98.1256 43.6921 98.2907C41.5262 98.8663 39.4797 99.4098 36.9143 99.1932C35.1591 99.045 33.9524 98.4938 32.6747 97.9104C31.1736 97.2249 29.6211 96.5161 26.8974 96.2491C21.9088 95.7597 17.4541 98.1849 17.41 98.2095C17.2822 98.2797 16.9112 97.9638 17.0384 97.8934C17.2094 97.7986 20.9214 95.7768 25.5155 95.7768V95.7768Z" fill="#AA5826"/>
<path d="M29.0444 87.3152C28.6476 89.1665 18.3836 88.9867 17.2145 88.9603C17.0511 88.9564 17.0704 88.5496 17.234 88.5545C21.4449 88.6509 28.2174 88.3826 28.4591 87.2561C28.5165 86.9874 27.6629 86.7764 26.674 86.532C25.5327 86.2499 24.1124 85.8989 22.9773 85.2207C20.9081 83.9842 17.5767 84.2544 17.5441 84.2571C17.3858 84.2703 17.8711 83.821 18.4096 83.821C19.6314 83.821 21.7896 83.9723 23.3664 84.9146C24.4175 85.5428 25.7798 85.8794 26.8746 86.15C28.1582 86.4673 29.1725 86.718 29.0444 87.3152V87.3152Z" fill="#AA5826"/>
<path d="M24.6706 97.1987C26.4749 97.1987 27.5851 97.6203 28.9909 98.154C29.3179 98.2782 29.6614 98.4086 30.034 98.5409C31.9141 99.2086 33.8581 99.6052 33.8777 99.6091C34.0342 99.6407 33.8679 100.03 33.7105 99.9984C33.6291 99.982 31.6945 99.5876 29.7617 98.9014C29.3842 98.7672 29.0359 98.6351 28.7042 98.509C27.3733 98.0038 26.322 97.6045 24.6706 97.6045C20.6422 97.6045 19.3282 99.7855 19.2743 99.8784C19.2139 99.9824 18.6639 99.8332 18.7239 99.7292C18.7384 99.7039 20.23 97.1987 24.6706 97.1987V97.1987Z" fill="#AA5826"/>
<path d="M17.398 91.4857C17.9321 91.7516 19.4977 92.4175 20.3229 92.3054C20.8268 92.2368 21.1381 92.0484 21.4988 91.8304C21.9734 91.5434 22.5111 91.2184 23.5441 91.1768C24.6063 91.1337 25.0238 91.2744 25.5485 91.4524C25.8967 91.5708 26.2918 91.7048 27.0096 91.8249C28.7628 92.1187 31.1409 92.1107 36.6129 90.0842C39.094 89.1653 41.9103 88.9994 44.395 88.8533C45.1392 88.8096 45.8419 88.7682 46.4778 88.7085C48.4301 88.5256 49.7903 87.9022 49.804 87.8959C49.8549 87.8724 49.9125 87.861 49.97 87.861C50.0646 87.861 50.2718 88.1688 50.1365 88.2317C50.0771 88.2595 48.6544 88.9144 46.558 89.1109C45.907 89.1718 45.1969 89.2136 44.4453 89.2578C42.018 89.4008 39.2668 89.5627 36.8937 90.4417C31.2459 92.5336 28.7382 92.532 26.869 92.2198C26.0879 92.0888 25.6432 91.938 25.2857 91.8166C24.8055 91.6534 24.4897 91.546 23.5784 91.5821C22.749 91.6156 22.3315 91.868 21.89 92.1353C21.5009 92.3706 21.0982 92.614 20.4377 92.7039C19.2124 92.8706 17.2675 91.9232 17.05 91.8146C16.9181 91.7482 17.2654 91.4198 17.398 91.4857V91.4857Z" fill="#AA5826"/>
<path d="M37.4068 96.2516C36.7248 96.2646 35.9226 96.2009 35.2619 96.0833C34.6088 95.967 34.0167 95.7882 33.5942 95.5795C32.9207 95.2466 32.9125 94.9527 32.9678 94.8071C33.0231 94.6616 33.2385 94.4074 34.0629 94.3412C34.194 94.3307 34.3331 94.3256 34.4786 94.3256C34.9068 94.3256 35.3894 94.3707 35.8767 94.4574C36.5502 94.5773 37.2965 94.7799 37.8723 94.9994C38.6543 95.2971 38.9857 95.5708 38.8857 95.8355C38.786 96.0994 38.3022 96.2356 37.4068 96.2516V96.2516ZM35.7282 94.8504C35.1444 94.7464 34.5772 94.7089 34.1315 94.7446C33.7312 94.7767 33.5587 94.8607 33.5403 94.9094C33.5217 94.9579 33.6131 95.0889 33.9401 95.2503C34.3044 95.4303 34.8266 95.5866 35.4104 95.6906C36.041 95.8028 36.6899 95.846 37.2163 95.846C37.7678 95.846 38.1844 95.7983 38.3028 95.7328C38.1812 95.5407 37.0106 95.0787 35.7282 94.8504V94.8504Z" fill="#AA5826"/>
<path d="M49.9895 95.7778C50.1525 95.7853 50.1126 96.1893 49.9501 96.183C46.9219 96.0454 44.5624 96.5362 42.4802 96.969C40.7551 97.3275 39.1265 97.6657 37.379 97.6042C34.1433 97.4897 31.8682 96.7717 30.423 95.409C30.3269 95.3182 30.3559 95.1914 30.4884 95.1254C30.5408 95.0992 30.6018 95.0866 30.6621 95.0866C30.7539 95.0866 30.8438 95.1156 30.9018 95.1702C32.2535 96.4451 34.3218 97.0896 37.4097 97.199C39.052 97.2577 40.6341 96.9286 42.3089 96.5807C44.439 96.1375 46.8515 95.6355 49.9895 95.7778V95.7778Z" fill="#AA5826"/>
<path d="M49.8656 85.7867C49.7769 85.7639 40.9633 83.5452 35.8857 87.3219C30.3048 91.4724 17.7106 90.1497 17.1777 90.0912C17.0161 90.0735 17.1088 89.6718 17.2706 89.6903C17.3987 89.7039 30.0826 91.039 35.4505 87.0465C37.9174 85.2118 41.1982 84.7155 44.0273 84.7155C47.3345 84.7155 50.0248 85.3941 50.0745 85.4069C50.2275 85.4463 50.0192 85.8265 49.8656 85.7867V85.7867Z" fill="#AA5826"/>
<path d="M31.0324 85.4247C27.0286 85.4247 23.9244 83.7262 23.7942 83.654C23.6669 83.5833 24.2812 83.401 24.4795 83.4962C25.3512 83.9146 27.9453 85.0187 31.0324 85.0187C34.3156 85.0187 39.3157 83.782 40.7398 83.4114C40.9825 83.3482 41.5024 83.6428 41.3512 83.6846C41.0931 83.7554 34.9894 85.4247 31.0324 85.4247V85.4247Z" fill="#AA5826"/>
<path d="M38.5855 88.2967C38.4565 88.1769 38.4266 88.0273 38.5009 87.8753C38.7847 87.2951 40.6452 86.639 41.8794 86.3883C42.4612 86.2702 43.327 86.2009 44.2022 86.2009C45.6781 86.2009 47.1813 86.3983 47.3943 86.8917C47.5222 87.1879 46.9674 87.3773 46.7848 87.4396C45.4583 87.8927 39.1998 88.8675 38.5855 88.2967V88.2967ZM42.0475 86.7779C40.7352 87.0442 39.2288 87.6633 39.0619 88.0046C39.053 88.0228 39.0513 88.0342 39.0527 88.0417C39.8869 88.2953 46.1226 87.422 46.796 86.966C46.4424 86.6315 43.6285 86.4565 42.0475 86.7779V86.7779Z" fill="#AA5826"/>
<rect x="-0.5" y="-0.5" width="15.5975" height="54.9736" transform="matrix(0 -1 -1 0 55.8158 15.5978)" fill="#FFE4BB" stroke="#AA5826"/>
<path d="M48.7479 9.80317C52.8344 9.96577 56.2025 9.29101 56.2359 9.28411C56.4806 9.23437 56.9305 9.59672 56.6838 9.64707C56.537 9.67711 53.0342 10.3825 48.65 10.2071C43.2632 9.99236 38.1919 8.79245 38.1919 8.01924C38.1919 7.42649 40.5762 7.42649 43.8763 7.42649C45.2505 7.42649 46.6716 7.42649 48.0383 7.38549C52.0015 7.26694 56.2704 6.73935 56.3133 6.73407C56.3622 6.72798 56.4112 6.72514 56.4596 6.72514C56.6733 6.72514 56.8696 7.08932 56.6059 7.1222C56.4277 7.14433 52.1893 7.66826 48.1112 7.79026C46.7076 7.83228 45.2036 7.83249 43.8763 7.83249C42.1956 7.83249 39.3813 7.83249 39.1906 8.01924C39.1906 8.42605 43.3271 9.58698 48.7479 9.80317V9.80317Z" fill="#AA5826"/>
<path d="M44.2011 11.6308C41.0328 11.5673 38.5711 11.1883 35.9641 10.7874C33.0075 10.3324 29.9396 9.85621 25.6702 9.87184C21.9737 9.88016 19.1579 10.4642 16.435 11.0291C14.5665 11.4168 12.8013 11.7828 10.8674 11.9383C6.49623 12.2897 1.2492 11.5161 1.02749 11.4832C0.768838 11.4445 1.11388 11.0636 1.37254 11.1022C1.42397 11.1099 6.57662 11.8695 10.6732 11.5401C12.4713 11.3955 14.176 11.0419 15.9811 10.6674C18.676 10.1083 21.731 9.47458 25.6647 9.46565C25.7112 9.46565 25.7566 9.46544 25.8016 9.46544C30.1947 9.46544 33.3071 9.94431 36.3181 10.4075C38.8487 10.7969 41.2395 11.1647 44.251 11.2252C51.8085 11.3773 56.1557 10.3186 56.1987 10.3079C56.4329 10.2494 56.9577 10.5947 56.723 10.6534C56.5372 10.6999 52.0961 11.7891 44.2011 11.6308V11.6308Z" fill="#AA5826"/>
<path d="M9.84218 2.51526C10.0824 2.63685 10.3185 2.8431 10.0789 3.13582C8.98132 4.47457 1.93319 4.12846 1.13325 4.08482C0.860116 4.0698 0.987447 3.66827 1.26708 3.68248C3.21249 3.78906 8.42057 3.87492 9.13212 3.00752C9.23598 2.88085 9.15609 2.8163 9.06421 2.77002C8.20785 2.33723 3.81868 2.35124 1.25259 2.46167C0.973964 2.47283 0.873099 2.06968 1.14723 2.05791C1.46082 2.04451 2.82201 1.9899 4.39492 1.9899C6.50561 1.9895 8.9963 2.08775 9.84218 2.51526V2.51526Z" fill="#AA5826"/>
<path d="M13.3498 14.9802C17.4404 14.9802 21.6722 15.5117 21.6722 16.4012C21.6722 16.5132 20.6736 16.5132 20.6736 16.4012C20.6736 15.9221 17.5417 15.3862 13.3498 15.3862C10.7338 15.3862 8.52321 15.8511 8.52321 16.4012C8.52321 16.5132 7.52454 16.5132 7.52454 16.4012C7.52454 15.6042 10.0831 14.9802 13.3498 14.9802Z" fill="#AA5826"/>
<path d="M15.1918 12.3744C16.0013 12.3744 16.8277 12.3963 17.6645 12.445C22.4846 12.725 25.3229 13.4929 27.8265 14.1703C29.9707 14.7505 31.8222 15.2515 34.5496 15.3881C38.6347 15.5933 41.8164 15.0909 45.5045 14.5099C46.5606 14.3437 47.6527 14.1717 48.8067 14.0106C52.2601 13.528 56.2847 13.5256 56.4605 13.5256C56.7361 13.5258 56.7351 13.9316 56.4595 13.9316C56.459 13.9316 56.459 13.9316 56.4585 13.9316C56.3966 13.9316 52.4134 13.9358 49.1317 14.3942C47.9952 14.5528 46.9127 14.7233 45.8656 14.8883C42.2104 15.464 38.757 16.0074 34.4278 15.7908C31.4657 15.6426 29.4294 15.0915 27.2733 14.5081C24.7401 13.8226 22.1201 13.1137 17.5237 12.8468C9.10543 12.3574 1.58792 14.7825 1.51352 14.8071C1.2978 14.8773 0.671635 14.5615 0.886349 14.491C1.17497 14.3962 7.43914 12.3744 15.1918 12.3744V12.3744Z" fill="#AA5826"/>
<path d="M21.1466 3.9131C20.477 5.76442 3.15598 5.58457 1.1831 5.55818C0.907469 5.55432 0.939926 5.14752 1.21606 5.15239C8.32212 5.24881 19.7509 4.98045 20.1589 3.85403C20.2558 3.58526 18.8152 3.37435 17.1464 3.12994C15.2204 2.84778 12.8236 2.4968 10.9082 1.81859C7.41632 0.582141 1.79429 0.852328 1.73936 0.854967C1.47222 0.868162 2.29113 0.418931 3.19992 0.418931C5.26168 0.418931 8.90384 0.570163 11.5648 1.51247C13.3384 2.14074 15.6374 2.47731 17.4849 2.7479C19.6511 3.06519 21.3628 3.31589 21.1466 3.9131V3.9131Z" fill="#AA5826"/>
<path d="M13.7663 13.7962C16.8112 13.7962 18.6847 14.2179 21.0571 14.7515C21.6089 14.8758 22.1886 15.0061 22.8172 15.1384C25.99 15.8061 29.2707 16.2027 29.3036 16.2066C29.5678 16.2383 29.2871 16.6276 29.0215 16.5959C28.8842 16.5795 25.6195 16.1851 22.3579 15.499C21.7207 15.3648 21.133 15.2326 20.5732 15.1066C18.3272 14.6013 16.5531 14.202 13.7663 14.202C6.96831 14.202 4.75076 16.383 4.65988 16.476C4.55801 16.5799 3.62975 16.4307 3.73111 16.3268C3.75558 16.3014 6.27273 13.7962 13.7663 13.7962V13.7962Z" fill="#AA5826"/>
<path d="M1.49292 8.08338C2.39422 8.3493 5.03621 9.01513 6.42885 8.90308C7.27922 8.83446 7.80453 8.64608 8.41322 8.42807C9.21415 8.14103 10.1214 7.81603 11.8646 7.77442C13.6572 7.73138 14.3618 7.87206 15.2471 8.05009C15.8349 8.16843 16.5015 8.30241 17.7129 8.42259C20.6714 8.71632 24.6846 8.7084 33.9188 6.6819C38.1058 5.76293 42.8584 5.59709 47.0514 5.45093C48.3072 5.40728 49.4931 5.36587 50.5662 5.30619C53.8608 5.12329 56.1563 4.49989 56.1792 4.4936C56.2651 4.47005 56.3625 4.45868 56.4594 4.45868C56.6191 4.45868 56.9687 4.76643 56.7405 4.82936C56.6401 4.85717 54.2393 5.51203 50.7015 5.70853C49.603 5.76943 48.4046 5.81125 47.1363 5.8555C43.0402 5.99841 38.3974 6.1604 34.3927 7.03937C24.8619 9.13124 20.63 9.12962 17.4757 8.81741C16.1574 8.68648 15.4069 8.53565 14.8037 8.41426C13.9933 8.25105 13.4605 8.14367 11.9226 8.1798C10.5229 8.2133 9.81835 8.46562 9.07334 8.73297C8.41671 8.96824 7.73712 9.21163 6.6226 9.30156C4.55485 9.46822 1.27271 8.52084 0.905696 8.41223C0.682992 8.34585 1.26921 8.01741 1.49292 8.08338V8.08338Z" fill="#AA5826"/>
<path d="M35.2588 12.8495C34.1079 12.8625 32.7542 12.7988 31.6391 12.6812C30.5371 12.5649 29.5379 12.3861 28.8249 12.1774C27.6884 11.8445 27.6744 11.5506 27.7678 11.405C27.8612 11.2595 28.2247 11.0053 29.6158 10.9391C29.837 10.9286 30.0717 10.9235 30.3174 10.9235C31.0399 10.9235 31.8544 10.9686 32.6768 11.0553C33.8133 11.1752 35.0726 11.3778 36.0443 11.5973C37.364 11.895 37.9233 12.1687 37.7545 12.4334C37.5862 12.6973 36.7698 12.8335 35.2588 12.8495V12.8495ZM32.4261 11.4483C31.4409 11.3443 30.4837 11.3068 29.7317 11.3425C29.0561 11.3746 28.765 11.4586 28.734 11.5073C28.7026 11.5558 28.8568 11.6868 29.4086 11.8482C30.0233 12.0282 30.9046 12.1845 31.8898 12.2885C32.9539 12.4007 34.0489 12.4439 34.9373 12.4439C35.868 12.4439 36.5711 12.3962 36.7708 12.3307C36.5656 12.1386 34.5902 11.6766 32.4261 11.4483V11.4483Z" fill="#AA5826"/>
<path d="M56.4924 12.3756C56.7675 12.3831 56.7001 12.7871 56.426 12.7808C51.3158 12.6431 47.334 13.134 43.8202 13.5668C40.9091 13.9253 38.1607 14.2635 35.2117 14.2019C29.7514 14.0875 25.912 13.3695 23.4733 12.0067C23.311 11.916 23.3599 11.7891 23.5836 11.7232C23.672 11.697 23.7749 11.6844 23.8767 11.6844C24.0315 11.6844 24.1833 11.7134 24.2812 11.768C26.5621 13.0428 30.0525 13.6874 35.2636 13.7968C38.0349 13.8554 40.7049 13.5264 43.5311 13.1784C47.1258 12.7353 51.1969 12.2333 56.4924 12.3756V12.3756Z" fill="#AA5826"/>
<path d="M56.2836 2.38457C56.1338 2.36183 41.2606 0.14309 32.692 3.91983C23.274 8.07028 2.02072 6.74756 1.12141 6.6891C0.848773 6.67144 1.00506 6.26971 1.2782 6.28818C1.49441 6.30178 22.899 7.63689 31.9574 3.64436C36.1204 1.80969 41.657 1.31336 46.4312 1.31336C52.0123 1.31336 56.5522 1.99198 56.6361 2.00477C56.8943 2.04415 56.5428 2.42436 56.2836 2.38457V2.38457Z" fill="#AA5826"/>
<path d="M24.5015 2.02246C17.7449 2.02246 12.5064 0.323994 12.2867 0.251728C12.072 0.181085 13.1086 -0.00120516 13.4432 0.0939999C14.9142 0.512374 19.2919 1.61647 24.5015 1.61647C30.0421 1.61647 38.4799 0.379818 40.8832 0.00914779C41.2927 -0.0539839 42.17 0.240563 41.9148 0.28238C41.4794 0.353226 31.1791 2.02246 24.5015 2.02246V2.02246Z" fill="#AA5826"/>
<path d="M37.2479 4.89433C37.0302 4.77457 36.9798 4.62496 37.1051 4.47291C37.584 3.89275 40.7238 3.23667 42.8066 2.98597C43.7883 2.86783 45.2493 2.7986 46.7264 2.7986C49.217 2.7986 51.7537 2.99591 52.1132 3.4894C52.3289 3.78557 51.3927 3.97497 51.0846 4.03728C48.846 4.49037 38.2846 5.46516 37.2479 4.89433V4.89433ZM43.0902 3.37552C40.8756 3.64185 38.3335 4.26099 38.0519 4.60222C38.0369 4.62049 38.0339 4.63186 38.0364 4.63937C39.444 4.89291 49.967 4.01962 51.1035 3.5637C50.5068 3.22916 45.7581 3.05418 43.0902 3.37552V3.37552Z" fill="#AA5826"/>
<rect x="-0.246788" y="0.662868" width="15.4866" height="32.2198" transform="matrix(-0.909261 0.416227 0.415685 0.909509 51.9072 30.6482)" fill="#FFE4BB" stroke="#AA5826"/>
<path d="M48.4702 37.6667C47.6098 35.3932 46.1658 33.8558 46.1512 33.8406C46.0457 33.7292 46.2639 33.3357 46.3705 33.4479C46.4341 33.5146 47.9392 35.112 48.8614 37.5515C49.9952 40.5485 50.156 43.785 49.4534 44.1066C48.9148 44.3532 48.3266 43.0662 47.5124 41.2848C47.1734 40.5431 46.8228 39.776 46.4484 39.0553C45.3629 36.9653 43.8304 34.8805 43.815 34.8596C43.7974 34.8357 43.7827 34.8104 43.7708 34.7843C43.7181 34.6689 44.0006 34.4115 44.0955 34.5402C44.1596 34.6272 45.6813 36.6971 46.7982 38.8476C47.1827 39.5878 47.5539 40.3995 47.8814 41.1159C48.296 42.0232 48.9903 43.5423 49.2071 43.5676C49.5767 43.3984 49.6111 40.6826 48.4702 37.6667V37.6667Z" fill="#AA5826"/>
<path d="M51.2524 39.361C51.9763 41.0976 52.2393 42.584 52.5181 44.158C52.8342 45.9432 53.1583 47.7973 54.2258 50.0953C55.1453 52.0872 56.3706 53.3642 57.5557 54.599C58.369 55.4463 59.137 56.2468 59.7554 57.2261C61.1531 59.4394 61.7446 62.5935 61.7694 62.7268C61.798 62.8826 61.3669 62.8547 61.3381 62.6991C61.3324 62.6681 60.7515 59.5708 59.4415 57.4966C58.8665 56.5861 58.1246 55.813 57.339 54.9944C56.1662 53.7723 54.8366 52.3869 53.858 50.2672C53.8466 50.2422 53.8352 50.2177 53.8241 50.1935C52.7403 47.8221 52.4076 45.9429 52.0857 44.1249C51.8151 42.597 51.5595 41.1535 50.8716 39.5027C49.1453 35.3601 47.1108 33.4539 47.0905 33.4352C46.9796 33.3331 47.1639 32.9062 47.2751 33.0084C47.3631 33.0894 49.4486 35.0335 51.2524 39.361V39.361Z" fill="#AA5826"/>
<path d="M51.4459 61.6988C51.4972 61.5186 51.6263 61.3053 51.9514 61.3129C53.4387 61.3485 54.863 65.2969 55.0207 65.7469C55.0744 65.9005 54.6782 65.9988 54.6221 65.842C54.239 64.7475 53.0321 61.9006 52.0684 61.8773C51.9277 61.8739 51.8887 61.9439 51.8694 62.0128C51.6874 62.655 52.7829 65.0184 53.5163 66.3576C53.5952 66.5034 53.2538 66.7255 53.1754 66.5824C53.0859 66.4187 52.7005 65.7067 52.3124 64.8577C51.7913 63.7185 51.2662 62.3332 51.4459 61.6988V61.6988Z" fill="#AA5826"/>
<path d="M61.9074 54.6202C60.8982 52.4122 60.3371 49.9068 61.1454 49.5368C61.2472 49.4902 61.4936 50.0293 61.3917 50.0759C60.9564 50.2751 61.2421 52.1886 62.2763 54.4513C62.9217 55.8634 63.8894 56.8633 64.3893 56.6344C64.4911 56.5878 64.7375 57.1269 64.6357 57.1735C63.9115 57.505 62.7133 56.3835 61.9074 54.6202Z" fill="#AA5826"/>
<path d="M59.0848 54.7104C58.8851 54.2734 58.7012 53.8182 58.539 53.3462C57.6042 50.628 57.6018 48.7765 57.5997 47.1433C57.5979 45.7446 57.5963 44.5368 57.0476 43.0078C56.2263 40.7174 54.9848 39.2089 53.547 37.4597C53.1354 36.9588 52.7098 36.4409 52.2786 35.885C50.9882 34.2216 49.9931 32.0502 49.9497 31.9553C49.8819 31.8065 50.2509 31.6382 50.3189 31.787C50.319 31.7873 50.319 31.7873 50.3191 31.7875C50.3344 31.821 51.3209 33.9693 52.547 35.55C52.9715 36.0975 53.3935 36.6109 53.8018 37.1075C55.2266 38.841 56.5724 40.4791 57.4436 42.906C58.0397 44.5665 58.0413 45.8949 58.0431 47.3015C58.0451 48.954 58.0474 50.6631 58.9388 53.2551C60.5709 58.0028 64.6292 61.0519 64.6699 61.0818C64.7869 61.169 64.6544 61.6384 64.5374 61.5518C64.38 61.4355 60.9975 58.8951 59.0848 54.7104V54.7104Z" fill="#AA5826"/>
<path d="M49.9272 55.0151C51.7747 54.6065 55.8844 64.0309 56.3471 65.1068C56.4116 65.2572 56.034 65.4089 55.9703 65.2578C54.3048 61.382 51.2414 55.3245 50.1172 55.5728C49.8491 55.6323 50.0129 56.4977 50.2025 57.5001C50.4212 58.6571 50.6936 60.0968 50.5499 61.4129C50.2878 63.812 51.9203 66.7343 51.9363 66.7629C52.0142 66.9016 51.4039 66.6464 51.1797 66.1558C50.6711 65.0429 49.91 63.0141 50.1097 61.1858C50.2431 59.967 49.9817 58.5861 49.7718 57.4763C49.5257 56.1751 49.3312 55.1468 49.9272 55.0151V55.0151Z" fill="#AA5826"/>
<path d="M60.7288 54.888C59.9776 53.2444 59.8985 52.0577 59.7981 50.5552C59.7749 50.2057 59.7503 49.8385 59.7155 49.4441C59.5394 47.4538 59.0905 45.518 59.0859 45.4986C59.0495 45.3428 59.4725 45.3323 59.5093 45.4889C59.5282 45.5699 59.9752 47.4961 60.1564 49.5421C60.1917 49.9419 60.2166 50.3141 60.2401 50.6687C60.3351 52.0912 60.41 53.2149 61.0975 54.7192C62.7746 58.3887 65.3035 58.6785 65.4104 58.6888C65.5299 58.7006 65.6234 59.2637 65.5039 59.2522C65.4748 59.2496 62.5775 58.9329 60.7288 54.888V54.888Z" fill="#AA5826"/>
<path d="M58.5657 63.8903C58.585 63.2932 58.5382 61.5902 58.0928 60.885C57.8207 60.4546 57.5199 60.2494 57.1716 60.0115C56.7132 59.6986 56.1941 59.344 55.7262 58.4204C55.2448 57.4706 55.1989 57.0318 55.1422 56.4799C55.1048 56.1134 55.062 55.6979 54.8724 54.994C54.4094 53.2748 53.4121 51.1119 49.2926 46.9703C47.4246 45.0925 46.1014 42.5961 44.9342 40.3936C44.5847 39.7339 44.2545 39.111 43.9355 38.5566C42.9566 36.8542 41.8238 35.8745 41.8124 35.8647C41.7698 35.8282 41.7355 35.7803 41.7116 35.728C41.6721 35.6418 41.8656 35.3251 41.979 35.4221C42.0291 35.4647 43.2164 36.4882 44.2678 38.3162C44.5941 38.8838 44.9278 39.5133 45.2809 40.1795C46.4212 42.331 47.7138 44.7698 49.5005 46.5658C53.7526 50.8403 54.7952 53.1253 55.2897 54.9578C55.4959 55.7238 55.544 56.1917 55.5825 56.5678C55.6341 57.0731 55.668 57.4054 56.0803 58.2205C56.456 58.9621 56.8591 59.2374 57.2858 59.5284C57.6616 59.7849 58.0504 60.0505 58.4071 60.6147C59.0687 61.6615 59.0175 63.8273 59.0094 64.0705C59.004 64.2184 58.5609 64.0385 58.5657 63.8903V63.8903Z" fill="#AA5826"/>
<path d="M54.5658 43.6809C54.8615 44.2968 55.1376 45.054 55.3059 45.7048C55.4721 46.348 55.556 46.9617 55.5423 47.4334C55.5202 48.1854 55.2566 48.3152 55.1013 48.3253C54.946 48.3355 54.6254 48.245 54.222 47.5216C54.1579 47.4065 54.0954 47.282 54.0347 47.1494C53.8565 46.7593 53.6965 46.301 53.5724 45.821C53.401 45.1577 53.2744 44.3936 53.2341 43.7778C53.1791 42.9416 53.2898 42.5259 53.572 42.5069C53.8533 42.4879 54.1784 42.872 54.5658 43.6809V43.6809ZM53.9913 45.7928C54.1399 46.3679 54.342 46.9002 54.56 47.2912C54.7558 47.6426 54.904 47.7648 54.9559 47.7612C55.0077 47.758 55.0886 47.6203 55.0991 47.2553C55.1111 46.8486 55.0357 46.3079 54.8871 45.7328C54.7266 45.1118 54.4957 44.5027 54.2766 44.0232C54.047 43.5208 53.8302 43.1611 53.7213 43.0806C53.5974 43.2712 53.665 44.5297 53.9913 45.7928V45.7928Z" fill="#AA5826"/>
<path d="M48.897 32.4161C48.836 32.2644 49.2197 32.1328 49.2816 32.2834C50.4173 35.099 51.8456 37.0441 53.1057 38.7608C54.1496 40.1831 55.135 41.5259 55.8066 43.1434C57.0497 46.1383 57.3445 48.5094 56.7079 50.3927C56.6654 50.518 56.5381 50.5444 56.423 50.4511C56.3774 50.4143 56.3405 50.364 56.3154 50.309C56.2772 50.2254 56.2661 50.1314 56.2916 50.0559C56.8873 48.2944 56.6118 46.1422 55.4257 43.2839C54.7953 41.7636 53.8376 40.4592 52.8242 39.0784C51.5347 37.3223 50.0742 35.3336 48.897 32.4161V32.4161Z" fill="#AA5826"/>
<path d="M39.87 36.685C39.8863 36.7754 41.5395 45.7266 47.0853 48.7808C53.1801 52.1381 57.2215 64.1605 57.3902 64.6702C57.4414 64.8247 57.0378 64.9075 56.9872 64.7524C56.9462 64.63 52.8788 52.5208 47.0162 49.2919C44.322 47.8079 42.5051 45.0258 41.3273 42.4488C39.9504 39.4362 39.447 36.7033 39.438 36.6527C39.4101 36.497 39.8423 36.5286 39.87 36.685V36.685Z" fill="#AA5826"/>
<path d="M47.3819 53.991C49.0487 57.638 48.7978 61.1722 48.7863 61.3209C48.7751 61.4661 48.3537 60.9824 48.3577 60.7622C48.3749 59.7942 48.2982 56.9719 47.013 54.1599C45.6461 51.1691 42.4407 47.1289 41.511 45.9858C41.3526 45.7911 41.4038 45.195 41.5048 45.3153C41.6766 45.5209 45.7345 50.3865 47.3819 53.991V53.991Z" fill="#AA5826"/>
<path d="M46.8469 45.916C46.7918 46.0833 46.6683 46.1728 46.4992 46.1683C45.8539 46.1512 44.4831 44.7293 43.7415 43.7093C43.392 43.2286 42.9686 42.4687 42.6042 41.6714C41.9898 40.327 41.5433 38.8757 41.903 38.4763C42.1189 38.2367 42.522 38.6633 42.6546 38.8037C43.6186 39.8235 47.1099 45.119 46.8469 45.916V45.916ZM44.0255 43.3942C44.8139 44.4788 46.0036 45.5934 46.3832 45.6035C46.4035 45.604 46.4145 45.6009 46.4207 45.5964C46.3038 44.7312 42.9142 39.4142 42.2196 38.9904C42.0628 39.4517 43.0753 42.0877 44.0255 43.3942V43.3942Z" fill="#AA5826"/>
<rect x="52.1696" y="30.7906" width="15.4974" height="50.4114" transform="rotate(90 52.1696 30.7906)" fill="#FFE4BB" stroke="#AA5826"/>
<path d="M45.2587 37.0853C49.0122 36.9227 52.1057 37.5974 52.1364 37.6043C52.3612 37.6541 52.7744 37.2917 52.5478 37.2414C52.413 37.2113 49.1957 36.5059 45.1688 36.6813C40.221 36.8961 35.5631 38.096 35.5631 38.8692C35.5631 39.4619 37.7531 39.4619 40.7842 39.4619C42.0464 39.4619 43.3517 39.4619 44.607 39.5029C48.2472 39.6215 52.1681 40.1491 52.2075 40.1544C52.2525 40.1604 52.2974 40.1633 52.3419 40.1633C52.5382 40.1633 52.7184 39.7991 52.4763 39.7662C52.3126 39.7441 48.4196 39.2202 44.6739 39.0982C43.3847 39.0561 42.0033 39.0559 40.7842 39.0559C39.2405 39.0559 36.6556 39.0559 36.4804 38.8692C36.4804 38.4624 40.2797 37.3014 45.2587 37.0853V37.0853Z" fill="#AA5826"/>
<path d="M41.0832 35.2579C38.1731 35.3214 35.9121 35.7004 33.5175 36.1013C30.8019 36.5562 27.984 37.0325 24.0627 37.0168C20.6674 37.0085 18.0811 36.4245 15.5802 35.8596C13.864 35.4718 12.2427 35.1058 10.4664 34.9503C6.45148 34.5989 1.63211 35.3726 1.42848 35.4054C1.1909 35.4442 1.50782 35.825 1.7454 35.7865C1.79264 35.7788 6.52532 35.0191 10.288 35.3486C11.9395 35.4931 13.5053 35.8468 15.1633 36.2213C17.6386 36.7803 20.4445 37.4141 24.0576 37.423C24.1003 37.423 24.142 37.4232 24.1833 37.4232C28.2184 37.4232 31.0771 36.9444 33.8427 36.4811C36.1671 36.0918 38.363 35.7239 41.1291 35.6635C48.0705 35.5114 52.0634 36.57 52.1029 36.5808C52.318 36.6393 52.8 36.294 52.5844 36.2353C52.4138 36.1888 48.3347 35.0995 41.0832 35.2579V35.2579Z" fill="#AA5826"/>
<path d="M9.5249 44.3734C9.74551 44.2518 9.96244 44.0456 9.7423 43.7529C8.73421 42.4141 2.26054 42.7602 1.52581 42.8039C1.27493 42.8189 1.39188 43.2204 1.64872 43.2062C3.43557 43.0996 8.21916 43.0137 8.87272 43.8811C8.96812 44.0078 8.89473 44.0724 8.81034 44.1187C8.02378 44.5514 3.99236 44.5374 1.63542 44.427C1.3795 44.4158 1.28686 44.819 1.53865 44.8308C1.82667 44.8442 3.07692 44.8988 4.52163 44.8988C6.46029 44.8992 8.74797 44.8009 9.5249 44.3734V44.3734Z" fill="#AA5826"/>
<path d="M12.7459 31.9083C16.503 31.9083 20.39 31.3769 20.39 30.4874C20.39 30.3753 19.4727 30.3753 19.4727 30.4874C19.4727 30.9664 16.5961 31.5023 12.7459 31.5023C10.343 31.5023 8.31266 31.0375 8.31266 30.4874C8.31266 30.3753 7.39539 30.3753 7.39539 30.4874C7.39539 31.2843 9.74544 31.9083 12.7459 31.9083Z" fill="#AA5826"/>
<path d="M14.438 34.5146C15.1815 34.5146 15.9405 34.4927 16.7092 34.444C21.1364 34.1641 23.7433 33.3961 26.0429 32.7187C28.0123 32.1386 29.7129 31.6376 32.218 31.501C35.9701 31.2957 38.8926 31.7981 42.2801 32.3791C43.2501 32.5454 44.2531 32.7173 45.313 32.8785C48.485 33.361 52.1816 33.3634 52.343 33.3634C52.5962 33.3632 52.5953 32.9575 52.3421 32.9575C52.3417 32.9575 52.3417 32.9575 52.3412 32.9575C52.2843 32.9575 48.6258 32.9532 45.6116 32.4948C44.5677 32.3363 43.5734 32.1658 42.6117 32.0007C39.2544 31.425 36.0825 30.8816 32.1061 31.0982C29.3855 31.2464 27.5151 31.7975 25.5348 32.3809C23.2081 33.0665 20.8016 33.7753 16.5799 34.0423C8.84769 34.5317 1.9429 32.1065 1.87457 32.0819C1.67644 32.0117 1.10131 32.3276 1.29852 32.398C1.56361 32.4928 7.31722 34.5146 14.438 34.5146V34.5146Z" fill="#AA5826"/>
<path d="M19.9075 42.9757C19.2925 41.1244 3.38329 41.3042 1.57121 41.3306C1.31804 41.3345 1.34785 41.7413 1.60148 41.7364C8.12835 41.64 18.6256 41.9083 19.0003 43.0348C19.0893 43.3035 17.7662 43.5144 16.2334 43.7589C14.4644 44.041 12.263 44.392 10.5036 45.0702C7.29638 46.3067 2.13258 46.0365 2.08213 46.0338C1.83676 46.0206 2.58893 46.4699 3.42365 46.4699C5.31736 46.4699 8.66266 46.3186 11.1067 45.3763C12.7358 44.748 14.8474 44.4115 16.5443 44.1409C18.5339 43.8236 20.1061 43.5729 19.9075 42.9757V42.9757Z" fill="#AA5826"/>
<path d="M13.1284 33.0922C15.9252 33.0922 17.646 32.6706 19.8249 32.1369C20.3317 32.0127 20.8642 31.8823 21.4416 31.75C24.3558 31.0823 27.3691 30.6857 27.3993 30.6818C27.642 30.6502 27.3842 30.2608 27.1402 30.2925C27.0141 30.3089 24.0155 30.7033 21.0197 31.3895C20.4345 31.5236 19.8947 31.6558 19.3805 31.7819C17.3176 32.2871 15.688 32.6864 13.1284 32.6864C6.88449 32.6864 4.84768 30.5054 4.76421 30.4125C4.67065 30.3085 3.81804 30.4577 3.91115 30.5617C3.93362 30.587 6.24561 33.0922 13.1284 33.0922V33.0922Z" fill="#AA5826"/>
<path d="M1.85605 38.805C2.68389 38.5391 5.11054 37.8733 6.38968 37.9854C7.17074 38.054 7.65323 38.2423 8.2123 38.4604C8.94796 38.7474 9.7813 39.0724 11.3824 39.114C13.0289 39.157 13.6761 39.0164 14.4892 38.8383C15.029 38.72 15.6413 38.586 16.754 38.4658C19.4714 38.1721 23.1575 38.18 31.639 40.2065C35.4847 41.1255 39.85 41.2913 43.7012 41.4375C44.8547 41.4811 45.9439 41.5226 46.9296 41.5822C49.9556 41.7651 52.064 42.3885 52.0851 42.3948C52.164 42.4184 52.2534 42.4297 52.3424 42.4297C52.4892 42.4297 52.8102 42.122 52.6006 42.0591C52.5084 42.0313 50.3033 41.3764 47.0538 41.1799C46.0448 41.119 44.9441 41.0772 43.7792 41.0329C40.017 40.89 35.7526 40.728 32.0743 39.8491C23.3203 37.7572 19.4333 37.7588 16.5361 38.071C15.3253 38.2019 14.636 38.3528 14.0819 38.4742C13.3376 38.6374 12.8482 38.7448 11.4356 38.7086C10.15 38.6751 9.50291 38.4228 8.81862 38.1555C8.21551 37.9202 7.59131 37.6768 6.56763 37.5869C4.66841 37.4202 1.65379 38.3676 1.31669 38.4762C1.11214 38.5426 1.65058 38.871 1.85605 38.805V38.805Z" fill="#AA5826"/>
<path d="M32.8695 34.0391C31.8124 34.0261 30.569 34.0899 29.5449 34.2074C28.5326 34.3237 27.6149 34.5026 26.96 34.7113C25.9161 35.0442 25.9033 35.3381 25.989 35.4837C26.0748 35.6292 26.4087 35.8834 27.6865 35.9495C27.8896 35.9601 28.1052 35.9652 28.3308 35.9652C28.9945 35.9652 29.7425 35.9201 30.4979 35.8334C31.5418 35.7134 32.6984 35.5109 33.591 35.2914C34.8031 34.9936 35.3168 34.72 35.1618 34.4553C35.0072 34.1914 34.2574 34.0552 32.8695 34.0391V34.0391ZM30.2677 35.4404C29.3628 35.5444 28.4836 35.5819 27.7929 35.5462C27.1723 35.5141 26.9049 35.4301 26.8765 35.3813C26.8476 35.3328 26.9893 35.2019 27.4961 35.0405C28.0607 34.8605 28.8702 34.7042 29.7751 34.6002C30.7525 34.488 31.7582 34.4447 32.5742 34.4447C33.4291 34.4447 34.0748 34.4924 34.2583 34.558C34.0698 34.75 32.2554 35.212 30.2677 35.4404V35.4404Z" fill="#AA5826"/>
<path d="M52.3728 34.5132C52.6255 34.5057 52.5636 34.1017 52.3118 34.108C47.6181 34.2457 43.9609 33.7548 40.7335 33.322C38.0596 32.9635 35.5353 32.6253 32.8266 32.6868C27.8114 32.8013 24.2849 33.5193 22.0449 34.882C21.8959 34.9728 21.9408 35.0997 22.1463 35.1656C22.2275 35.1918 22.3219 35.2044 22.4155 35.2044C22.5577 35.2044 22.6971 35.1754 22.787 35.1208C24.8821 33.846 28.0879 33.2014 32.8743 33.092C35.4197 33.0334 37.872 33.3624 40.4679 33.7104C43.7697 34.1535 47.5089 34.6555 52.3728 34.5132V34.5132Z" fill="#AA5826"/>
<path d="M52.1806 44.5043C52.043 44.5271 38.382 46.7458 30.5118 42.9691C21.8615 38.8186 2.34048 40.1414 1.51448 40.1998C1.26406 40.2175 1.40761 40.6192 1.65849 40.6007C1.85708 40.5871 21.517 39.252 29.8372 43.2446C33.6608 45.0792 38.7462 45.5756 43.1312 45.5756C48.2574 45.5756 52.4274 44.8969 52.5044 44.8841C52.7415 44.8448 52.4186 44.4646 52.1806 44.5043V44.5043Z" fill="#AA5826"/>
<path d="M22.9891 44.8661C16.7833 44.8661 11.9717 46.5646 11.7699 46.6368C11.5727 46.7075 12.5248 46.8898 12.8321 46.7945C14.1833 46.3762 18.2042 45.2721 22.9891 45.2721C28.0782 45.2721 35.8282 46.5087 38.0356 46.8794C38.4117 46.9425 39.2175 46.648 38.9832 46.6062C38.5832 46.5353 29.1225 44.8661 22.9891 44.8661V44.8661Z" fill="#AA5826"/>
<path d="M34.6964 41.9941C34.4964 42.1139 34.4501 42.2635 34.5652 42.4155C35.0051 42.9957 37.889 43.6518 39.8019 43.9025C40.7036 44.0206 42.0456 44.0898 43.4022 44.0898C45.6899 44.0898 48.0198 43.8925 48.35 43.399C48.5482 43.1029 47.6882 42.9135 47.4052 42.8511C45.3492 42.3981 35.6485 41.4233 34.6964 41.9941V41.9941ZM40.0624 43.5129C38.0284 43.2466 35.6935 42.6274 35.4348 42.2862C35.421 42.2679 35.4183 42.2566 35.4206 42.2491C36.7135 41.9955 46.3788 42.8688 47.4227 43.3247C46.8746 43.6593 42.5129 43.8343 40.0624 43.5129V43.5129Z" fill="#AA5826"/>
</svg>
