<svg width="38" height="35" viewBox="0 0 38 35" fill="none" xmlns="http://www.w3.org/2000/svg">
<path d="M10.1688 10.0602C10.5694 10.0602 10.8943 9.73513 10.8943 9.33414C10.8943 8.93315 10.5694 8.6081 10.1688 8.6081C7.79088 8.6081 5.85624 6.67203 5.85624 4.29221C5.85624 2.72614 7.12938 1.45208 8.69417 1.45208C9.68395 1.45208 10.4892 2.25792 10.4892 3.24846C10.4892 3.8319 10.0149 4.30652 9.43192 4.30652C9.13672 4.30652 8.89644 4.06612 8.89644 3.77063C8.89644 3.67878 8.97109 3.60414 9.06286 3.60414C9.46348 3.60414 9.78835 3.2791 9.78835 2.8781C9.78835 2.47711 9.46348 2.15206 9.06286 2.15206C8.17103 2.15206 7.44548 2.87817 7.44548 3.77063C7.44548 4.8668 8.33659 5.7586 9.43192 5.7586C10.8149 5.7586 11.9401 4.63258 11.9401 3.24846C11.9401 1.45731 10.484 0 8.69417 0C6.32932 0 4.40527 1.92546 4.40527 4.29221C4.40527 7.47271 6.99082 10.0602 10.1688 10.0602Z" fill="#AA5826"/>
<path d="M28.8369 7.6217C29.0225 7.6217 29.2082 7.55077 29.3498 7.40904L31.7013 5.0557C31.9846 4.77218 31.9846 4.31245 31.7013 4.02893C31.418 3.7454 30.9588 3.7454 30.6753 4.02893L28.3238 6.38227C28.0405 6.66579 28.0405 7.12552 28.3238 7.40904C28.4656 7.55084 28.6511 7.6217 28.8369 7.6217Z" fill="#AA5826"/>
<path d="M24.3119 12.1501C24.4976 12.1501 24.6832 12.0792 24.8249 11.9375L27.1764 9.58415C27.4597 9.30062 27.4597 8.84089 27.1764 8.55737C26.8932 8.27385 26.4339 8.27385 26.1504 8.55737L23.7989 10.9107C23.5156 11.1942 23.5156 11.654 23.7989 11.9375C23.9407 12.0793 24.1262 12.1501 24.3119 12.1501Z" fill="#AA5826"/>
<path d="M36.9071 24.8353H28.64H27.4203H15.9041L20.8983 19.8372L21.0024 19.9414C21.1441 20.0832 21.3297 20.1541 21.5154 20.1541C21.701 20.1541 21.8867 20.0832 22.0284 19.9414L23.2476 18.7214C23.5378 18.8611 23.858 18.935 24.1895 18.935C24.7709 18.935 25.3174 18.7084 25.7286 18.297L36.8073 7.20971C37.906 6.11018 37.906 4.32106 36.8073 3.22154L34.4181 0.830448C33.3193 -0.269076 31.5317 -0.268931 30.4329 0.830448L19.3543 11.9178C18.9432 12.3293 18.7168 12.8762 18.7168 13.458C18.7168 13.7899 18.7908 14.1102 18.9303 14.4007L17.7111 15.6208C17.4278 15.9043 17.4278 16.3641 17.7111 16.6477L17.8152 16.7518L14.0556 20.5144C14.0759 20.3072 14.0866 20.0972 14.0866 19.8847C14.0866 17.2703 11.9613 15.1434 9.34901 15.1434C7.38418 15.1434 5.78572 16.7431 5.78572 18.7095C5.78572 20.2175 7.01157 21.4443 8.5184 21.4443C9.70131 21.4443 10.6636 20.4812 10.6636 19.2974C10.6636 18.343 9.88769 17.5665 8.93389 17.5665C8.53328 17.5665 8.20841 17.8915 8.20841 18.2925C8.20841 18.6935 8.53328 19.0186 8.93389 19.0186C9.08755 19.0186 9.21262 19.1437 9.21262 19.2974C9.21262 19.6805 8.90117 19.9922 8.5184 19.9922C7.81171 19.9922 7.23669 19.4168 7.23669 18.7095C7.23669 17.5438 8.18432 16.5955 9.34901 16.5955C11.1612 16.5955 12.6356 18.071 12.6356 19.8847C12.6356 22.6145 10.4165 24.8354 7.68874 24.8354H1.21328C0.812665 24.8354 0.487793 25.1604 0.487793 25.5614V34.274C0.487793 34.6749 0.812665 35 1.21328 35H36.9071C37.3078 35 37.6326 34.6749 37.6326 34.274V25.5614C37.6326 25.1603 37.3078 24.8353 36.9071 24.8353ZM21.5154 18.4013L21.412 18.2978C21.4118 18.2976 21.4116 18.2973 21.4114 18.2971L19.3543 16.2385L19.2502 16.1343L19.8699 15.5142L22.1351 17.7812L21.5154 18.4013ZM20.3802 12.9446L31.459 1.8573C31.7254 1.59062 32.0754 1.45724 32.4255 1.45724C32.7755 1.45724 33.1256 1.59062 33.392 1.8573L35.0287 3.49518L32.5853 5.94051C32.302 6.22403 32.302 6.68376 32.5853 6.96728C32.727 7.10908 32.9126 7.17994 33.0983 7.17994C33.2839 7.17994 33.4696 7.109 33.6113 6.96728L36.0146 4.56204C36.2964 5.08087 36.2191 5.74469 35.7812 6.18293L24.7025 17.2702C24.4197 17.5533 23.9593 17.5533 23.6765 17.2702L23.6744 17.2681C23.6742 17.268 23.6742 17.2678 23.674 17.2678L23.4964 17.09L26.8185 13.7653C27.1019 13.4817 27.1019 13.022 26.8185 12.7385C26.5352 12.455 26.0759 12.455 25.7925 12.7385L22.4704 16.0632L20.3828 13.9739C20.3827 13.9738 20.3826 13.9737 20.3824 13.9736L20.3802 13.9714C20.0974 13.6883 20.0974 13.2277 20.3802 12.9446ZM19.8722 18.8104L13.852 24.8353H11.79L18.8412 17.7785L19.8722 18.8104ZM8.46907 26.2874L6.69707 28.0608C6.52978 28.2282 6.30749 28.3203 6.07098 28.3203H1.93876V26.2874H8.46907ZM1.93876 33.5478V29.7724H6.07098C6.69504 29.7724 7.28167 29.5292 7.72298 29.0876L10.521 26.2874H14.1525H24.0548C23.6897 26.6745 23.3875 27.1278 23.1691 27.6353L22.483 29.2296C21.9805 30.3973 20.835 31.1519 19.5646 31.1519H18.345C17.9443 31.1519 17.6195 31.4769 17.6195 31.8779C17.6195 32.2789 17.9443 32.604 18.345 32.604H19.5646C21.4151 32.604 23.0838 31.5049 23.8157 29.804L24.5018 28.2097C25.0043 27.042 26.1498 26.2874 27.4203 26.2874H28.64H36.1817V28.4655H31.1883C30.7877 28.4655 30.4628 28.7906 30.4628 29.1916C30.4628 29.5926 30.7877 29.9176 31.1883 29.9176H36.1817V33.5478H1.93876Z" fill="#AA5826"/>
<path d="M15.5155 31.1519C15.324 31.1519 15.1376 31.2295 15.0019 31.3646C14.867 31.4996 14.79 31.687 14.79 31.8779C14.79 32.0689 14.867 32.2562 15.0019 32.3913C15.1376 32.5263 15.324 32.604 15.5155 32.604C15.7063 32.604 15.8928 32.5263 16.0278 32.3913C16.1634 32.2562 16.241 32.0689 16.241 31.8779C16.241 31.687 16.1634 31.4996 16.0278 31.3646C15.8928 31.2295 15.7063 31.1519 15.5155 31.1519Z" fill="#AA5826"/>
<path d="M10.7899 31.1519H5.94131C5.54069 31.1519 5.21582 31.4769 5.21582 31.8779C5.21582 32.2789 5.54069 32.604 5.94131 32.604H10.7899C11.1905 32.604 11.5154 32.2789 11.5154 31.8779C11.5154 31.4769 11.1905 31.1519 10.7899 31.1519Z" fill="#AA5826"/>
<path d="M18.0195 29.1916C18.0195 28.7906 17.6946 28.4656 17.294 28.4656H11.828C11.4274 28.4656 11.1025 28.7906 11.1025 29.1916C11.1025 29.5926 11.4274 29.9176 11.828 29.9176H17.294C17.6947 29.9176 18.0195 29.5925 18.0195 29.1916Z" fill="#AA5826"/>
<path d="M31.1881 31.1519H26.4589C26.0583 31.1519 25.7334 31.4769 25.7334 31.8779C25.7334 32.2789 26.0583 32.604 26.4589 32.604H31.1881C31.5887 32.604 31.9136 32.2789 31.9136 31.8779C31.9136 31.4769 31.5887 31.1519 31.1881 31.1519Z" fill="#AA5826"/>
</svg>
