<svg width="90" height="90" viewBox="0 0 90 90" fill="none" xmlns="http://www.w3.org/2000/svg">
<path d="M87.5947 0H12.8834C11.6768 0 10.6988 1.06034 10.6988 2.36842V59.6885C9.47439 58.5962 8.37512 57.3061 7.43402 55.8339C4.17053 50.7276 3.45313 44.4633 5.46553 38.6469L10.5597 23.9239C10.9835 22.6992 10.4111 21.3338 9.28149 20.8746C8.15164 20.4151 6.89247 21.0354 6.46889 22.2603L1.37476 36.9836C-1.11125 44.1687 -0.18872 52.2242 3.84285 58.5317C5.66345 61.3802 8.01577 63.7082 10.6988 65.4073V71.4517C10.6988 81.6793 18.3736 90 27.8071 90H72.671C82.1045 90 89.7793 81.6793 89.7793 71.4517V2.36842C89.7793 1.06034 88.8012 0 87.5947 0ZM15.0679 4.73684H39.3163C40.8652 4.73684 42.1252 6.10295 42.1252 7.78216V15.7725C42.1252 20.0219 44.2704 23.7361 47.4468 25.7161L37.5412 52.2142C34.8946 59.2939 28.6315 63.8685 21.5853 63.8685C19.2928 63.8685 17.0925 63.3986 15.0679 62.509V4.73684ZM85.4102 71.4517C85.4102 79.0674 79.6954 85.2632 72.671 85.2632H27.8071C20.7827 85.2632 15.0679 79.0674 15.0679 71.4517V67.5118C17.1502 68.2273 19.3452 68.6056 21.5853 68.6056C30.4196 68.6056 38.2719 62.87 41.5902 53.9936L51.6151 27.1772C51.9716 27.2167 52.3334 27.2371 52.6995 27.2371C58.53 27.2371 63.2736 22.0943 63.2736 15.773V14.882C63.2736 13.5978 64.2372 12.5531 65.4216 12.5531C66.6061 12.5531 67.5697 13.5978 67.5697 14.882V18.2368C67.5697 19.5449 68.5477 20.6053 69.7542 20.6053C70.9607 20.6053 71.9388 19.5449 71.9388 18.2368V14.8815C71.9388 10.9854 69.0152 7.81579 65.4216 7.81579C61.828 7.81579 58.9045 10.9854 58.9045 14.8815V15.7725C58.9045 19.4819 56.1209 22.4998 52.6995 22.4998C49.2781 22.4998 46.4945 19.4819 46.4945 15.7725V7.78216C46.4945 6.70192 46.29 5.67261 45.9215 4.73684H78.0258V46.3176C78.0258 48.137 76.6604 49.6172 74.9823 49.6172C73.3041 49.6172 71.939 48.137 71.939 46.3176V35.7632C71.939 34.4553 70.961 33.3947 69.7544 33.3947C68.5479 33.3947 67.5699 34.4553 67.5699 35.7632V46.3176C67.5699 50.7489 70.8952 54.3541 74.9825 54.3541C79.0695 54.3541 82.3949 50.7489 82.3949 46.3176V4.73684H85.4102V71.4517Z" fill="#AA5826"/>
<path d="M69.8081 28.9175C70.2836 28.9175 70.7501 28.7079 71.0864 28.3434C71.4225 27.9793 71.6162 27.4739 71.6162 26.9588C71.6162 26.4436 71.4227 25.9383 71.0864 25.5739C70.7501 25.2096 70.2836 25 69.8081 25C69.3326 25 68.8661 25.2094 68.5298 25.5739C68.1936 25.9383 68 26.4436 68 26.9588C68 27.4739 68.1935 27.9793 68.5298 28.3434C68.8661 28.7079 69.3326 28.9175 69.8081 28.9175Z" fill="#AA5826"/>
</svg>
