<svg width="37" height="35" viewBox="0 0 37 35" fill="none" xmlns="http://www.w3.org/2000/svg">
<path d="M32.3283 2.88855C31.1346 2.88855 30.1636 3.86045 30.1636 5.05499C30.1636 6.24954 31.1347 7.22144 32.3283 7.22144C33.522 7.22144 34.4931 6.24954 34.4931 5.05499C34.4931 3.86045 33.5219 2.88855 32.3283 2.88855ZM32.3283 5.77716C31.9304 5.77716 31.6067 5.4532 31.6067 5.05499C31.6067 4.65679 31.9304 4.33282 32.3283 4.33282C32.7262 4.33282 33.0499 4.65679 33.0499 5.05499C33.0499 5.4532 32.7261 5.77716 32.3283 5.77716Z" fill="#AA5826"/>
<path d="M6.008 19.2548C4.81432 19.2548 3.84326 20.2267 3.84326 21.4212C3.84326 22.6158 4.8144 23.5876 6.008 23.5876C7.20161 23.5876 8.17274 22.6157 8.17274 21.4212C8.17274 20.2267 7.20168 19.2548 6.008 19.2548ZM6.008 22.1434C5.61011 22.1434 5.2864 21.8195 5.2864 21.4213C5.2864 21.0231 5.61011 20.6991 6.008 20.6991C6.4059 20.6991 6.72961 21.0231 6.72961 21.4213C6.72961 21.8195 6.4059 22.1434 6.008 22.1434Z" fill="#AA5826"/>
<path d="M19.9218 30.0741C19.7313 30.0741 19.5459 30.1506 19.4116 30.285C19.2774 30.4193 19.2002 30.6056 19.2002 30.7955C19.2002 30.9862 19.2774 31.1718 19.4116 31.3068C19.5459 31.4412 19.732 31.5184 19.9218 31.5184C20.1116 31.5184 20.2978 31.4412 20.432 31.3068C20.5662 31.1718 20.6434 30.9862 20.6434 30.7955C20.6434 30.6056 20.5662 30.4193 20.432 30.285C20.2977 30.1506 20.1115 30.0741 19.9218 30.0741Z" fill="#AA5826"/>
<path d="M36.3792 9.61718C36.7279 9.2878 36.9463 8.82142 36.9463 8.30471V1.80535C36.9463 0.809839 36.137 0 35.1423 0H1.80475C0.810011 0 0.000799336 0.809911 0.000799336 1.80535V8.30471C0.000799336 9.30022 0.810083 10.1101 1.80475 10.1101H15.4215L0.90281 18.499C0.485504 18.7402 0.186974 19.1294 0.0622803 19.5953C-0.0624857 20.0611 0.00152094 20.5477 0.242466 20.9653L3.48963 26.5939C3.75836 27.0598 4.20467 27.36 4.69407 27.4595C4.69869 27.4608 4.70301 27.4627 4.70771 27.4639L16.7021 30.6803C16.7647 30.697 16.8275 30.7051 16.8894 30.7051C17.208 30.7051 17.4996 30.4922 17.586 30.1696C17.6891 29.7844 17.4607 29.3884 17.0757 29.2851L7.07913 26.6044L14.7834 22.1529C14.7427 22.5029 14.9625 22.8392 15.3127 22.9332C15.3752 22.9499 15.4381 22.9579 15.4999 22.9579C15.8185 22.9579 16.1101 22.7451 16.1965 22.4225L16.4193 21.5906L18.4534 22.1405L17.7838 24.6414C17.6806 25.0266 17.9091 25.4226 18.2941 25.5259C18.3566 25.5426 18.4195 25.5507 18.4813 25.5507C18.7999 25.5507 19.0915 25.3378 19.1779 25.0152L19.8468 22.5172L21.8809 23.067L21.6611 23.8879C21.5579 24.2731 21.7864 24.6692 22.1713 24.7724C22.2339 24.7892 22.2968 24.7972 22.3586 24.7972C22.6772 24.7972 22.9688 24.5845 23.0552 24.2618L23.2743 23.4437L25.3084 23.9936L24.6422 26.4817C24.539 26.8669 24.7675 27.2629 25.1525 27.3662C25.215 27.3829 25.2779 27.391 25.3397 27.391C25.6583 27.391 25.9499 27.1781 26.0363 26.8555L26.7017 24.3703L28.7359 24.9201L28.5198 25.7273C28.4166 26.1125 28.645 26.5085 29.03 26.6117C29.0926 26.6285 29.1554 26.6365 29.2172 26.6365C29.5358 26.6365 29.8274 26.4237 29.9138 26.101L30.1291 25.2967L32.1493 25.8428L31.4868 28.3171C31.3836 28.7024 31.6121 29.0984 31.9971 29.2016C32.0596 29.2184 32.1225 29.2264 32.1843 29.2264C32.5029 29.2264 32.7945 29.0136 32.8809 28.691L33.5426 26.2195L34.824 26.5658C35.0158 26.6177 35.1298 26.816 35.0785 27.0078L33.397 33.2879C33.3634 33.4135 33.2773 33.4792 33.2289 33.5071C33.1806 33.5351 33.0807 33.5768 32.9551 33.5432L22.937 30.8569C22.5519 30.7536 22.1563 30.9822 22.0532 31.3675C21.95 31.7528 22.1785 32.1487 22.5635 32.252L32.5814 34.9383C32.7372 34.9801 32.8937 35.0001 33.0479 35C33.8443 35 34.5751 34.4673 34.7908 33.6617L36.4722 27.3817C36.7291 26.422 36.1584 25.4306 35.2001 25.1716L17.7316 20.4495L36.1768 9.79194C36.2571 9.74551 36.3245 9.68557 36.3792 9.61718ZM5.23231 26.0038C5.11967 26.0689 5.01244 26.0544 4.95854 26.0399C4.90463 26.0255 4.80447 25.9844 4.73946 25.8717L1.49229 20.2431C1.39285 20.0706 1.4521 19.8494 1.62442 19.7498L6.21074 17.0999L6.6082 17.7889C6.74185 18.0205 6.98438 18.15 7.23377 18.15C7.35615 18.15 7.48027 18.1188 7.59392 18.0532C7.93907 17.8538 8.05734 17.4121 7.85803 17.0667L7.46057 16.3778L9.2853 15.3234L10.5487 17.5133C10.6823 17.745 10.9249 17.8744 11.1743 17.8744C11.2966 17.8744 11.4208 17.8432 11.5344 17.7776C11.8796 17.5782 11.9978 17.1365 11.7985 16.7911L10.5351 14.6012L12.3599 13.5469L12.7573 14.2358C12.891 14.4675 13.1335 14.597 13.3829 14.597C13.5053 14.597 13.6294 14.5658 13.743 14.5001C14.0882 14.3007 14.2065 13.859 14.0071 13.5136L13.6097 12.8247L15.4344 11.7703L16.6973 13.9593C16.8309 14.191 17.0735 14.3204 17.3229 14.3204C17.4452 14.3204 17.5694 14.2892 17.683 14.2236C18.0282 14.0242 18.1464 13.5825 17.9471 13.2371L16.6843 11.0482L18.3079 10.11H18.5761L18.9066 10.6827C19.0402 10.9144 19.2827 11.0439 19.5321 11.0439C19.6545 11.0439 19.7786 11.0127 19.8923 10.9471C20.1892 10.7755 20.3176 10.4246 20.2209 10.11H22.6756L22.8471 10.4072C22.9807 10.6389 23.2232 10.7684 23.4726 10.7684C23.595 10.7684 23.7191 10.7372 23.8328 10.6715C24.0442 10.5494 24.17 10.3362 24.1903 10.11H32.7398L5.23231 26.0038ZM35.5032 8.30471C35.5032 8.50381 35.3413 8.6658 35.1424 8.6658H1.80482C1.60587 8.6658 1.44402 8.50381 1.44402 8.30471V1.80535C1.44402 1.60625 1.60587 1.44426 1.80482 1.44426H3.55104V3.97178C3.55104 4.37063 3.8741 4.69395 4.27265 4.69395C4.67119 4.69395 4.99426 4.37063 4.99426 3.97178V1.44426H7.10135V2.23865C7.10135 2.6375 7.42442 2.96082 7.82296 2.96082C8.2215 2.96082 8.54457 2.6375 8.54457 2.23865V1.44426H10.6516V3.97178C10.6516 4.37063 10.9747 4.69395 11.3732 4.69395C11.7717 4.69395 12.0948 4.37063 12.0948 3.97178V1.44426H14.2018V2.23865C14.2018 2.6375 14.5249 2.96082 14.9234 2.96082C15.322 2.96082 15.645 2.6375 15.645 2.23865V1.44426H17.7521V3.97069C17.7521 4.36955 18.0751 4.69286 18.4737 4.69286C18.8722 4.69286 19.1953 4.36955 19.1953 3.97069V1.44426H21.3023V2.23865C21.3023 2.6375 21.6254 2.96082 22.0239 2.96082C22.4225 2.96082 22.7455 2.6375 22.7455 2.23865V1.44426H24.8526V3.97178C24.8526 4.37063 25.1756 4.69395 25.5742 4.69395C25.9727 4.69395 26.2958 4.37063 26.2958 3.97178V1.44426H28.4028V2.23865C28.4028 2.6375 28.7259 2.96082 29.1244 2.96082C29.5229 2.96082 29.846 2.6375 29.846 2.23865V1.44426H35.1425C35.3414 1.44426 35.5033 1.60625 35.5033 1.80535V8.30471H35.5032Z" fill="#AA5826"/>
<path d="M4.27287 5.98169C4.08309 5.98169 3.89692 6.05896 3.7627 6.19328C3.62848 6.32761 3.55127 6.51393 3.55127 6.70386C3.55127 6.89379 3.62848 7.08011 3.7627 7.21443C3.89692 7.34875 4.08309 7.42603 4.27287 7.42603C4.46265 7.42603 4.64883 7.34875 4.78305 7.21443C4.91726 7.08011 4.99448 6.89379 4.99448 6.70386C4.99448 6.51393 4.91726 6.32761 4.78305 6.19328C4.64883 6.05896 4.46265 5.98169 4.27287 5.98169Z" fill="#AA5826"/>
</svg>
