<svg width="39" height="45" viewBox="0 0 39 45" fill="none" xmlns="http://www.w3.org/2000/svg">
<path d="M34.317 22.3768C34.3799 21.9704 34.4115 21.5585 34.4115 21.1451C34.4115 18.645 33.2603 16.4095 31.4607 14.9386C31.0646 13.5028 30.3547 12.1646 29.386 11.0255C29.6723 10.1788 29.817 9.29464 29.817 8.38903C29.817 5.72294 28.5176 3.20874 26.3411 1.66342C25.9 1.35012 25.2887 1.45393 24.9757 1.89494C24.6625 2.33594 24.7661 2.94725 25.2072 3.26035C26.8672 4.4391 27.8583 6.35629 27.8583 8.38893C27.8583 9.24381 27.6896 10.0726 27.3568 10.8527C27.2026 11.2141 27.2793 11.6328 27.5517 11.916C28.0084 12.3908 28.4047 12.9166 28.7348 13.4795C27.995 13.2535 27.2104 13.131 26.3975 13.131C25.0052 13.131 23.695 13.4885 22.5529 14.1156V10.0992C22.5529 9.55838 22.1143 9.11983 21.5735 9.11983C21.0327 9.11983 20.5942 9.55838 20.5942 10.0992V15.6269C19.4849 16.7929 18.7213 18.2902 18.4724 19.9546L16.0441 15.7486H18.0332C18.3831 15.7486 18.7064 15.5619 18.8814 15.2589C19.0563 14.9559 19.0563 14.5826 18.8814 14.2796L15.297 8.07123C15.394 6.16012 16.3707 4.37427 17.9398 3.26035C18.3808 2.94725 18.4846 2.33584 18.1714 1.89484C17.8583 1.45374 17.247 1.35002 16.8059 1.66322C15.4348 2.6368 14.4093 4.00221 13.8395 5.54665L11.7978 2.01079C11.6229 1.70778 11.2995 1.52112 10.9497 1.52112C10.5999 1.52112 10.2765 1.70778 10.1016 2.01079L3.01803 14.2797C2.84312 14.5828 2.84312 14.9561 3.01803 15.2591C3.19294 15.5621 3.51633 15.7488 3.86615 15.7488H5.85543L1.60091 23.8308C1.60091 23.8308 1.3892 24.141 1.45399 24.3858C1.51878 24.6307 1.64985 24.9422 2.23743 24.8755H5.85543C5.85543 24.8755 0.814611 34.776 0.275999 35.3794C0.08014 35.7712 -0.0667568 36.016 0.0311742 36.4077C0.129105 36.7994 0.422898 37.0283 0.814611 37.1752L9.97036 37.1326V44.0207C9.97036 44.5615 10.4089 45 10.9497 45C11.4905 45 11.9291 44.5615 11.9291 44.0207V37.1326H17.6245C18.8016 37.8796 20.1957 38.3143 21.6902 38.3143C22.791 38.3143 23.8516 38.0838 24.8271 37.6403V44.0207C24.8271 44.5615 25.2657 45 25.8065 45C26.3473 45 26.7859 44.5615 26.7859 44.0207V37.5902C27.8593 38.0665 29.0227 38.3144 30.2221 38.3144C34.9058 38.3144 38.7161 34.5039 38.7161 29.8202C38.7162 26.7008 37.0136 23.8599 34.317 22.3768ZM8.39978 14.2797C8.22487 13.9767 7.90149 13.7901 7.55166 13.7901H5.56241L10.9497 4.45918L16.3369 13.7901H14.3478C13.9979 13.7901 13.6746 13.9767 13.4996 14.2797C13.3247 14.5828 13.3247 14.9561 13.4996 15.2591L18.1617 23.3343H15.13C14.7801 23.3343 14.4568 23.5209 14.2819 23.8239C14.1069 24.127 14.1069 24.5003 14.2819 24.8033L15.2984 26.5641C14.5222 27.764 14.0787 29.1893 14.0787 30.7028C14.0787 32.3726 14.6206 33.9176 15.5358 35.1739L2.58022 35.3794C2.58022 35.3794 8.11324 25.421 8.11324 24.8823C8.11324 24.4704 8.15312 24.1687 7.91738 23.8308C7.66221 23.4651 7.32981 23.3411 6.938 23.3411C6.54618 23.3411 3.86615 23.3343 3.86615 23.3343L8.39968 15.2591C8.57469 14.9561 8.57469 14.5828 8.39978 14.2797ZM30.2221 36.3556C28.9949 36.3556 27.8166 36.0192 26.7859 35.3794V30.0267L30.3973 26.4152C30.7798 26.0328 30.7798 25.4127 30.3973 25.0301C30.0148 24.6478 29.3949 24.6478 29.0122 25.0301L26.7859 27.2565V25.4011C26.7859 24.8603 26.3473 24.4217 25.8065 24.4217C25.2657 24.4217 24.8271 24.8603 24.8271 25.4011V30.7779L22.8291 28.7798C22.4465 28.3974 21.8266 28.3974 21.4439 28.7798C21.0615 29.1622 21.0615 29.7823 21.4439 30.1649L24.8271 33.548V35.4039C23.8981 36.0277 22.8228 36.3556 21.6902 36.3556C18.5733 36.3556 16.0374 33.8197 16.0374 30.7027C16.0374 28.0976 17.8014 25.8416 20.3271 25.2165C20.6152 25.1451 20.8555 24.947 20.9804 24.6776C21.1052 24.4082 21.1011 24.0967 20.9692 23.8308C20.5532 22.9917 20.3423 22.088 20.3423 21.145C20.3423 17.8061 23.0586 15.0898 26.3975 15.0898C29.7364 15.0898 32.4528 17.8061 32.4528 21.145C32.4528 21.6631 32.3872 22.1778 32.2579 22.6748C32.1364 23.142 32.3735 23.6282 32.8164 23.8201C35.2105 24.857 36.7575 27.2121 36.7575 29.82C36.7575 33.4239 33.8257 36.3556 30.2221 36.3556Z" fill="#AA5826"/>
<path d="M21.5736 1.95871C21.8312 1.95871 22.0838 1.85392 22.266 1.67166C22.4481 1.4896 22.5529 1.23692 22.5529 0.979354C22.5529 0.721784 22.4482 0.469111 22.266 0.286951C22.0838 0.104791 21.8312 0 21.5736 0C21.316 0 21.0633 0.104693 20.8812 0.286951C20.6991 0.469111 20.5942 0.721784 20.5942 0.979354C20.5942 1.23692 20.699 1.4896 20.8812 1.67166C21.0633 1.85392 21.316 1.95871 21.5736 1.95871Z" fill="#AA5826"/>
</svg>
